<svg width="17" height="16" viewBox="0 0 17 16" fill="none" xmlns="http://www.w3.org/2000/svg">
<path d="M8.5 1.75C8.5 1.33579 8.83579 1 9.25 1L14.7498 1.00001C15.164 1.00001 15.4998 1.3358 15.4998 1.75V7.25307C15.4998 7.66728 15.1641 8.00307 14.7498 8.00308C14.3356 8.00309 13.9998 7.6673 13.9998 7.25309L13.9998 3.56083L9.03033 8.53035C8.73744 8.82324 8.26256 8.82324 7.96967 8.53035C7.67678 8.23745 7.67678 7.76258 7.96967 7.46969L12.9393 2.50001L9.25 2.5C8.83579 2.5 8.5 2.16421 8.5 1.75Z" fill="#868FA0"/>
<path d="M6.75 2.50002C7.16421 2.50002 7.5 2.8358 7.5 3.25002C7.5 3.66423 7.16421 4.00002 6.75 4.00002H3.5C3.22386 4.00002 3 4.22387 3 4.50002V13C3 13.2762 3.22386 13.5 3.5 13.5H12C12.2761 13.5 12.5 13.2762 12.5 13V9.75002C12.5 9.3358 12.8358 9.00002 13.25 9.00002C13.6642 9.00002 14 9.3358 14 9.75002V13C14 14.1046 13.1046 15 12 15H3.5C2.39543 15 1.5 14.1046 1.5 13V4.50002C1.5 3.39545 2.39543 2.50002 3.5 2.50002H6.75Z" fill="#868FA0"/>
</svg>
