<svg width="16" height="16" viewBox="0 0 16 16" fill="none" xmlns="http://www.w3.org/2000/svg">
<path fill-rule="evenodd" clip-rule="evenodd" d="M7.99999 2C8.4142 2 8.74999 2.33579 8.74999 2.75V7.25H13.25C13.6642 7.25 14 7.58579 14 8C14 8.41422 13.6642 8.75 13.25 8.75H8.74999V13.25C8.74999 13.6642 8.4142 14 7.99999 14C7.58578 14 7.24999 13.6642 7.24999 13.25V8.75H2.75C2.33579 8.75 2 8.41422 2 8C2 7.58579 2.33579 7.25 2.75 7.25H7.24999V2.75C7.24999 2.33579 7.58578 2 7.99999 2Z" fill="white"/>
</svg>
