<svg width="17" height="16" viewBox="0 0 17 16" fill="none" xmlns="http://www.w3.org/2000/svg">
<path d="M8.5 1.74998C8.5 1.33577 8.83579 0.999985 9.25 0.999985L14.7498 1C15.164 1 15.4998 1.33578 15.4998 1.74999V7.25306C15.4998 7.66727 15.1641 8.00306 14.7498 8.00307C14.3356 8.00307 13.9998 7.66729 13.9998 7.25308L13.9998 3.56082L9.03033 8.53033C8.73744 8.82322 8.26256 8.82322 7.96967 8.53033C7.67678 8.23744 7.67678 7.76256 7.96967 7.46967L12.9393 2.5L9.25 2.49998C8.83579 2.49998 8.5 2.1642 8.5 1.74998Z" fill="#868FA0"/>
<path d="M6.75 2.5C7.16421 2.5 7.5 2.83579 7.5 3.25C7.5 3.66421 7.16421 4 6.75 4H3.5C3.22386 4 3 4.22386 3 4.5V13C3 13.2761 3.22386 13.5 3.5 13.5H12C12.2761 13.5 12.5 13.2761 12.5 13V9.75C12.5 9.33579 12.8358 9 13.25 9C13.6642 9 14 9.33579 14 9.75V13C14 14.1046 13.1046 15 12 15H3.5C2.39543 15 1.5 14.1046 1.5 13V4.5C1.5 3.39543 2.39543 2.5 3.5 2.5H6.75Z" fill="#868FA0"/>
</svg>
