<svg width="136" height="153" viewBox="0 0 136 153" fill="none" xmlns="http://www.w3.org/2000/svg">
<path d="M33.9652 0.765776C17.7171 4.52624 6.35516 20.114 7.59143 36.8541C8.88657 54.9892 23.3686 69 40.7942 69C50.1545 69 58.102 65.6641 64.6366 58.9923C77.3525 46.0126 77.8235 24.9055 65.7551 11.3193C57.6899 2.34274 45.0328 -1.84229 33.9652 0.765776ZM49.2126 3.85906C68.4043 9.74237 77.4114 30.6675 68.522 48.924C63.0471 60.1447 51.0964 67.3017 39.0869 66.3313C22.4856 65.1182 10.2995 51.5927 10.2995 34.428C10.2995 25.5121 12.8897 19.0222 18.9534 12.5324C25.1936 5.8606 31.7282 2.94927 40.6764 2.94927C43.9732 2.88862 47.211 3.25253 49.2126 3.85906Z" fill="url(#paint0_linear_378_741)" fill-opacity="0.6" style="mix-blend-mode:soft-light"/>
<path d="M33.9652 0.765776C17.7171 4.52624 6.35516 20.114 7.59143 36.8541C8.88657 54.9892 23.3686 69 40.7942 69C50.1545 69 58.102 65.6641 64.6366 58.9923C77.3525 46.0126 77.8235 24.9055 65.7551 11.3193C57.6899 2.34274 45.0328 -1.84229 33.9652 0.765776ZM49.2126 3.85906C68.4043 9.74237 77.4114 30.6675 68.522 48.924C63.0471 60.1447 51.0964 67.3017 39.0869 66.3313C22.4856 65.1182 10.2995 51.5927 10.2995 34.428C10.2995 25.5121 12.8897 19.0222 18.9534 12.5324C25.1936 5.8606 31.7282 2.94927 40.6764 2.94927C43.9732 2.88862 47.211 3.25253 49.2126 3.85906Z" fill="#F0F1F5"/>
<path d="M32.9943 71.643C16.257 74.7602 5.66069 83.8121 1.62687 98.379C0.482951 102.635 0.422745 104.254 0.543157 125.355L0.723776 147.775L25.89 147.955C49.6714 148.074 51.0562 148.015 50.8756 147.055C50.6949 146.036 49.0694 145.976 26.7329 145.797L2.83099 145.677V125.055C2.83099 102.096 3.25244 98.9785 7.16584 91.5452C9.6343 86.8094 15.3539 81.1745 19.9898 78.7167C27.2747 74.8801 38.8945 72.722 46.3601 73.7411C60.629 75.7194 68.8772 80.4551 73.5131 89.3272C74.7172 91.6051 76.1622 93.5234 76.6438 93.5234C79.3531 93.5234 75.1989 85.3108 70.2018 80.6349C66.0475 76.7984 60.93 74.2207 54.3073 72.5422C47.9857 70.9237 38.7741 70.504 32.9943 71.643Z" fill="url(#paint1_linear_378_741)" fill-opacity="0.6" style="mix-blend-mode:soft-light"/>
<path d="M32.9943 71.643C16.257 74.7602 5.66069 83.8121 1.62687 98.379C0.482951 102.635 0.422745 104.254 0.543157 125.355L0.723776 147.775L25.89 147.955C49.6714 148.074 51.0562 148.015 50.8756 147.055C50.6949 146.036 49.0694 145.976 26.7329 145.797L2.83099 145.677V125.055C2.83099 102.096 3.25244 98.9785 7.16584 91.5452C9.6343 86.8094 15.3539 81.1745 19.9898 78.7167C27.2747 74.8801 38.8945 72.722 46.3601 73.7411C60.629 75.7194 68.8772 80.4551 73.5131 89.3272C74.7172 91.6051 76.1622 93.5234 76.6438 93.5234C79.3531 93.5234 75.1989 85.3108 70.2018 80.6349C66.0475 76.7984 60.93 74.2207 54.3073 72.5422C47.9857 70.9237 38.7741 70.504 32.9943 71.643Z" fill="#F0F1F5"/>
<path d="M36.31 75.4268C35.1394 76.2614 33.5376 79.1229 33.5376 80.3152C33.5376 80.9709 34.7082 82.9978 36.0635 84.8459C38.4047 87.8266 38.8359 88.1247 40.9922 88.1247C43.0869 88.1247 43.5798 87.8266 46.2289 84.4286L49.1245 80.7325L47.6459 77.9902L46.1673 75.3075L41.5467 75.1287C39.0207 75.0691 36.618 75.1883 36.31 75.4268ZM44.8735 78.3479C45.428 78.8248 45.8593 79.5402 45.8593 79.8383C45.8593 80.9709 42.1012 85.7401 41.2386 85.7401C40.0681 85.7401 36.618 81.5075 36.618 80.0767C36.618 79.3613 36.9261 78.5267 37.3573 78.1094C38.4663 77.0364 43.703 77.2152 44.8735 78.3479Z" fill="url(#paint2_linear_378_741)" fill-opacity="0.6" style="mix-blend-mode:soft-light"/>
<path d="M36.31 75.4268C35.1394 76.2614 33.5376 79.1229 33.5376 80.3152C33.5376 80.9709 34.7082 82.9978 36.0635 84.8459C38.4047 87.8266 38.8359 88.1247 40.9922 88.1247C43.0869 88.1247 43.5798 87.8266 46.2289 84.4286L49.1245 80.7325L47.6459 77.9902L46.1673 75.3075L41.5467 75.1287C39.0207 75.0691 36.618 75.1883 36.31 75.4268ZM44.8735 78.3479C45.428 78.8248 45.8593 79.5402 45.8593 79.8383C45.8593 80.9709 42.1012 85.7401 41.2386 85.7401C40.0681 85.7401 36.618 81.5075 36.618 80.0767C36.618 79.3613 36.9261 78.5267 37.3573 78.1094C38.4663 77.0364 43.703 77.2152 44.8735 78.3479Z" fill="#F0F1F5"/>
<path d="M39.8218 89.4958C38.528 90.9862 26.0831 121.151 26.3295 122.105C26.7608 123.655 39.945 143.507 40.7459 143.805C41.6084 144.162 50.2952 134.088 49.9872 133.134C49.4327 131.524 47.646 132.478 44.8737 136.055C43.2102 138.201 41.6084 139.87 41.2388 139.811C40.3762 139.513 29.2867 122.582 29.2251 121.449C29.2251 120.913 31.8127 114.415 35.0163 106.903L40.8075 93.2516L41.7316 95.3381C42.1629 96.4708 43.7647 100.405 45.2433 104.101C46.7835 108.036 48.3853 111.076 49.063 111.434C51.0345 112.447 50.4184 109.646 46.2907 99.4515C42.4709 90.0324 41.1155 87.9459 39.8218 89.4958Z" fill="url(#paint3_linear_378_741)" fill-opacity="0.6" style="mix-blend-mode:soft-light"/>
<path d="M39.8218 89.4958C38.528 90.9862 26.0831 121.151 26.3295 122.105C26.7608 123.655 39.945 143.507 40.7459 143.805C41.6084 144.162 50.2952 134.088 49.9872 133.134C49.4327 131.524 47.646 132.478 44.8737 136.055C43.2102 138.201 41.6084 139.87 41.2388 139.811C40.3762 139.513 29.2867 122.582 29.2251 121.449C29.2251 120.913 31.8127 114.415 35.0163 106.903L40.8075 93.2516L41.7316 95.3381C42.1629 96.4708 43.7647 100.405 45.2433 104.101C46.7835 108.036 48.3853 111.076 49.063 111.434C51.0345 112.447 50.4184 109.646 46.2907 99.4515C42.4709 90.0324 41.1155 87.9459 39.8218 89.4958Z" fill="#F0F1F5"/>
<path d="M87.3219 89.5556C83.8719 90.6286 81.0995 92.3575 78.4503 95.0997C75.5547 98.0805 74.1993 100.048 74.1993 101.359C74.1993 103.327 75.8628 102.492 78.3887 99.2131C82.9477 93.4305 89.663 90.5094 96.5632 91.344C101.861 92.0594 105.558 94.6228 110.302 101.002C111.411 102.432 111.78 102.611 112.458 101.955C113.136 101.359 113.074 100.823 112.088 99.0343C110.363 95.994 106.236 92.0594 103.094 90.4498C99.7052 88.7806 91.3265 88.3037 87.3219 89.5556Z" fill="url(#paint4_linear_378_741)" fill-opacity="0.6" style="mix-blend-mode:soft-light"/>
<path d="M87.3219 89.5556C83.8719 90.6286 81.0995 92.3575 78.4503 95.0997C75.5547 98.0805 74.1993 100.048 74.1993 101.359C74.1993 103.327 75.8628 102.492 78.3887 99.2131C82.9477 93.4305 89.663 90.5094 96.5632 91.344C101.861 92.0594 105.558 94.6228 110.302 101.002C111.411 102.432 111.78 102.611 112.458 101.955C113.136 101.359 113.074 100.823 112.088 99.0343C110.363 95.994 106.236 92.0594 103.094 90.4498C99.7052 88.7806 91.3265 88.3037 87.3219 89.5556Z" fill="#F0F1F5"/>
<path d="M88.061 94.9805C85.6583 95.8151 80.9761 99.9285 80.9761 101.24C80.9761 102.85 83.0092 102.552 84.4878 100.703C86.7057 98.0208 89.3548 96.8882 93.6058 96.8285C97.9184 96.7689 100.321 97.9016 102.416 101.002L103.771 103.028H78.943C60.4605 103.028 53.93 103.207 53.3755 103.744C52.8211 104.28 52.6362 110.54 52.6362 128.186C52.6362 151.078 52.6978 151.912 53.8068 152.509C54.6693 152.926 68.2231 153.045 95.2692 152.986L135.499 152.807V128.067V103.327L120.282 103.148C106.174 103.028 105.127 102.909 105.435 101.955C105.866 100.346 103.155 97.0074 100.136 95.4574C96.9326 93.8478 91.9424 93.669 88.061 94.9805ZM132.727 128.067V150.124H94.2219H55.7166V128.067V106.009H94.2219H132.727V128.067Z" fill="url(#paint5_linear_378_741)" fill-opacity="0.6" style="mix-blend-mode:soft-light"/>
<path d="M88.061 94.9805C85.6583 95.8151 80.9761 99.9285 80.9761 101.24C80.9761 102.85 83.0092 102.552 84.4878 100.703C86.7057 98.0208 89.3548 96.8882 93.6058 96.8285C97.9184 96.7689 100.321 97.9016 102.416 101.002L103.771 103.028H78.943C60.4605 103.028 53.93 103.207 53.3755 103.744C52.8211 104.28 52.6362 110.54 52.6362 128.186C52.6362 151.078 52.6978 151.912 53.8068 152.509C54.6693 152.926 68.2231 153.045 95.2692 152.986L135.499 152.807V128.067V103.327L120.282 103.148C106.174 103.028 105.127 102.909 105.435 101.955C105.866 100.346 103.155 97.0074 100.136 95.4574C96.9326 93.8478 91.9424 93.669 88.061 94.9805ZM132.727 128.067V150.124H94.2219H55.7166V128.067V106.009H94.2219H132.727V128.067Z" fill="#F0F1F5"/>
<path d="M57.2569 108.573C57.0721 108.93 57.0104 118.171 57.0721 128.961C57.2569 147.143 57.3185 148.634 58.3658 148.813C59.3516 148.991 59.4132 147.74 59.4132 128.424C59.4132 110.301 59.29 107.798 58.489 107.798C57.9346 107.798 57.3801 108.155 57.2569 108.573Z" fill="url(#paint6_linear_378_741)" fill-opacity="0.6" style="mix-blend-mode:soft-light"/>
<path d="M57.2569 108.573C57.0721 108.93 57.0104 118.171 57.0721 128.961C57.2569 147.143 57.3185 148.634 58.3658 148.813C59.3516 148.991 59.4132 147.74 59.4132 128.424C59.4132 110.301 59.29 107.798 58.489 107.798C57.9346 107.798 57.3801 108.155 57.2569 108.573Z" fill="#F0F1F5"/>
<path d="M128.723 108.573C128.538 108.93 128.476 118.171 128.538 128.961C128.723 147.143 128.784 148.634 129.832 148.813C130.817 148.991 130.879 147.74 130.879 128.424C130.879 110.301 130.756 107.798 129.955 107.798C129.4 107.798 128.846 108.155 128.723 108.573Z" fill="url(#paint7_linear_378_741)" fill-opacity="0.6" style="mix-blend-mode:soft-light"/>
<path d="M128.723 108.573C128.538 108.93 128.476 118.171 128.538 128.961C128.723 147.143 128.784 148.634 129.832 148.813C130.817 148.991 130.879 147.74 130.879 128.424C130.879 110.301 130.756 107.798 129.955 107.798C129.4 107.798 128.846 108.155 128.723 108.573Z" fill="#F0F1F5"/>
<defs>
<linearGradient id="paint0_linear_378_741" x1="74.4995" y1="0" x2="5.52935" y2="66.971" gradientUnits="userSpaceOnUse">
<stop/>
<stop offset="1" stop-color="white" stop-opacity="0"/>
</linearGradient>
<linearGradient id="paint1_linear_378_741" x1="77.4995" y1="71" x2="0.499512" y2="148" gradientUnits="userSpaceOnUse">
<stop/>
<stop offset="1" stop-color="white" stop-opacity="0"/>
</linearGradient>
<linearGradient id="paint2_linear_378_741" x1="49.1245" y1="75.1135" x2="36.3227" y2="90.4496" gradientUnits="userSpaceOnUse">
<stop/>
<stop offset="1" stop-color="white" stop-opacity="0"/>
</linearGradient>
<linearGradient id="paint3_linear_378_741" x1="50.1431" y1="89.0313" x2="10.081" y2="106.449" gradientUnits="userSpaceOnUse">
<stop/>
<stop offset="1" stop-color="white" stop-opacity="0"/>
</linearGradient>
<linearGradient id="paint4_linear_378_741" x1="112.908" y1="88.8478" x2="104.442" y2="113.008" gradientUnits="userSpaceOnUse">
<stop/>
<stop offset="1" stop-color="white" stop-opacity="0"/>
</linearGradient>
<linearGradient id="paint5_linear_378_741" x1="135.499" y1="94.1097" x2="79.8842" y2="172.365" gradientUnits="userSpaceOnUse">
<stop/>
<stop offset="1" stop-color="white" stop-opacity="0"/>
</linearGradient>
<linearGradient id="paint6_linear_378_741" x1="59.4132" y1="107.798" x2="54.7004" y2="108.069" gradientUnits="userSpaceOnUse">
<stop/>
<stop offset="1" stop-color="white" stop-opacity="0"/>
</linearGradient>
<linearGradient id="paint7_linear_378_741" x1="130.879" y1="107.798" x2="126.166" y2="108.069" gradientUnits="userSpaceOnUse">
<stop/>
<stop offset="1" stop-color="white" stop-opacity="0"/>
</linearGradient>
</defs>
</svg>
