<svg width="154" height="153" viewBox="0 0 154 153" fill="none" xmlns="http://www.w3.org/2000/svg">
<path d="M64.3008 1.08014C63.5347 1.65068 62.8781 2.4287 62.8781 2.79177C62.8781 3.20671 61.2366 4.39966 59.2667 5.48888C52.3722 9.32707 46.6816 16.796 44.5476 24.8873C43.9457 27.1176 43.1249 28.7774 42.0305 29.8147C40.1701 31.6819 40.1701 31.7857 41.3192 32.8749C42.0853 33.601 46.0797 33.7048 77.1048 33.7048C96.3108 33.7048 112.398 33.5492 112.89 33.3936C114.258 32.8749 113.93 31.0595 112.124 29.296C110.975 28.155 110.319 26.8583 109.936 24.7317C108.13 15.7586 103.096 8.49719 96.3108 5.22954C95.107 4.60713 94.0674 3.93285 94.0674 3.67351C94.0674 3.41418 93.4107 2.48056 92.6447 1.59882C91.0579 -0.216545 89.0333 -0.475883 87.1182 0.768937C86.1333 1.39135 85.3125 1.44321 81.5917 0.924539C78.5822 0.561467 76.1199 0.509599 73.8764 0.872671C71.4141 1.23574 70.3197 1.18388 69.3348 0.717069C67.5291 -0.268413 65.9423 -0.164678 64.3008 1.08014ZM91.3315 4.34779C91.3315 5.22954 91.8786 5.80008 93.6296 6.52622C101.017 9.69014 106.379 17.0553 107.528 25.5616C107.747 27.4288 108.349 28.7255 109.279 29.6591L110.702 31.1114H77.3784H44.1098L45.1495 30.0222C45.6966 29.4516 46.4627 27.5325 46.8457 25.8209C48.4873 18.0927 54.8345 10.0532 61.6196 6.94116C64.246 5.74821 65.0121 5.1258 65.2857 3.98472C65.5046 2.94737 65.8876 2.5843 66.9272 2.5843C67.6386 2.5843 68.5141 2.8955 68.8424 3.31044C69.3348 3.88098 69.882 3.93285 71.25 3.51791C73.6028 2.84363 81.3728 2.8955 83.2879 3.56978C85.5861 4.39966 87.1729 4.24406 88.2125 3.10297C88.9786 2.22123 89.3616 2.16936 90.2371 2.5843C90.839 2.8955 91.3315 3.67351 91.3315 4.34779Z" fill="url(#paint0_linear_378_304)" fill-opacity="0.6" style="mix-blend-mode:soft-light"/>
<path d="M64.3008 1.08014C63.5347 1.65068 62.8781 2.4287 62.8781 2.79177C62.8781 3.20671 61.2366 4.39966 59.2667 5.48888C52.3722 9.32707 46.6816 16.796 44.5476 24.8873C43.9457 27.1176 43.1249 28.7774 42.0305 29.8147C40.1701 31.6819 40.1701 31.7857 41.3192 32.8749C42.0853 33.601 46.0797 33.7048 77.1048 33.7048C96.3108 33.7048 112.398 33.5492 112.89 33.3936C114.258 32.8749 113.93 31.0595 112.124 29.296C110.975 28.155 110.319 26.8583 109.936 24.7317C108.13 15.7586 103.096 8.49719 96.3108 5.22954C95.107 4.60713 94.0674 3.93285 94.0674 3.67351C94.0674 3.41418 93.4107 2.48056 92.6447 1.59882C91.0579 -0.216545 89.0333 -0.475883 87.1182 0.768937C86.1333 1.39135 85.3125 1.44321 81.5917 0.924539C78.5822 0.561467 76.1199 0.509599 73.8764 0.872671C71.4141 1.23574 70.3197 1.18388 69.3348 0.717069C67.5291 -0.268413 65.9423 -0.164678 64.3008 1.08014ZM91.3315 4.34779C91.3315 5.22954 91.8786 5.80008 93.6296 6.52622C101.017 9.69014 106.379 17.0553 107.528 25.5616C107.747 27.4288 108.349 28.7255 109.279 29.6591L110.702 31.1114H77.3784H44.1098L45.1495 30.0222C45.6966 29.4516 46.4627 27.5325 46.8457 25.8209C48.4873 18.0927 54.8345 10.0532 61.6196 6.94116C64.246 5.74821 65.0121 5.1258 65.2857 3.98472C65.5046 2.94737 65.8876 2.5843 66.9272 2.5843C67.6386 2.5843 68.5141 2.8955 68.8424 3.31044C69.3348 3.88098 69.882 3.93285 71.25 3.51791C73.6028 2.84363 81.3728 2.8955 83.2879 3.56978C85.5861 4.39966 87.1729 4.24406 88.2125 3.10297C88.9786 2.22123 89.3616 2.16936 90.2371 2.5843C90.839 2.8955 91.3315 3.67351 91.3315 4.34779Z" fill="#F0F1F5"/>
<path d="M73.9309 6.00767C70.2648 6.94128 68.8969 7.61556 68.8969 8.54917C68.8969 9.69026 70.0459 9.74213 72.8365 8.70478C75.9555 7.61556 80.3876 7.51182 83.3971 8.54917C86.1877 9.53466 87.501 9.53466 87.501 8.54917C87.501 7.56369 85.2028 6.47448 81.5914 5.74833C78.0348 5.02219 77.5423 5.07405 73.9309 6.00767Z" fill="url(#paint1_linear_378_304)" fill-opacity="0.6" style="mix-blend-mode:soft-light"/>
<path d="M73.9309 6.00767C70.2648 6.94128 68.8969 7.61556 68.8969 8.54917C68.8969 9.69026 70.0459 9.74213 72.8365 8.70478C75.9555 7.61556 80.3876 7.51182 83.3971 8.54917C86.1877 9.53466 87.501 9.53466 87.501 8.54917C87.501 7.56369 85.2028 6.47448 81.5914 5.74833C78.0348 5.02219 77.5423 5.07405 73.9309 6.00767Z" fill="#F0F1F5"/>
<path d="M65.0121 14.6177C64.1366 17.7298 64.6291 24.9394 65.8328 26.7028C66.3253 27.429 67.0914 27.9477 67.4197 27.8439C68.131 27.5846 68.131 26.9103 67.2008 22.7091C66.7631 20.6862 66.7083 18.8709 67.0914 16.6924C67.6385 13.2692 67.5291 12.4393 66.4347 12.4393C65.997 12.4393 65.3951 13.4248 65.0121 14.6177Z" fill="url(#paint2_linear_378_304)" fill-opacity="0.6" style="mix-blend-mode:soft-light"/>
<path d="M65.0121 14.6177C64.1366 17.7298 64.6291 24.9394 65.8328 26.7028C66.3253 27.429 67.0914 27.9477 67.4197 27.8439C68.131 27.5846 68.131 26.9103 67.2008 22.7091C66.7631 20.6862 66.7083 18.8709 67.0914 16.6924C67.6385 13.2692 67.5291 12.4393 66.4347 12.4393C65.997 12.4393 65.3951 13.4248 65.0121 14.6177Z" fill="#F0F1F5"/>
<path d="M89.0332 12.9578C88.9238 13.3209 88.9785 14.9807 89.1974 16.7441C89.3615 18.5076 89.3068 21.3603 89.0879 23.072C88.4313 27.6363 88.4313 28.1031 89.5804 27.8956C92.1522 27.4288 92.6993 13.0097 90.1276 12.5429C89.6351 12.4391 89.1427 12.6466 89.0332 12.9578Z" fill="url(#paint3_linear_378_304)" fill-opacity="0.6" style="mix-blend-mode:soft-light"/>
<path d="M89.0332 12.9578C88.9238 13.3209 88.9785 14.9807 89.1974 16.7441C89.3615 18.5076 89.3068 21.3603 89.0879 23.072C88.4313 27.6363 88.4313 28.1031 89.5804 27.8956C92.1522 27.4288 92.6993 13.0097 90.1276 12.5429C89.6351 12.4391 89.1427 12.6466 89.0332 12.9578Z" fill="#F0F1F5"/>
<path d="M104.19 35.2609C104.026 35.5721 104.409 37.2319 105.066 39.0472C106.543 42.9892 107.036 49.5245 106.105 53.5701C103.917 63.5806 95.4354 71.7756 84.4918 74.4208C69.9368 77.9478 54.4516 69.1822 50.0742 55.0224C48.7062 50.6137 48.9251 46.8274 51.1685 36.6613C51.4421 35.5203 51.3327 35.2609 50.4572 35.2609C48.5968 35.2609 46.9552 41.5888 46.9005 48.6946C46.8458 56.2672 49.8553 62.8544 56.0384 68.7154C62.2763 74.6802 69.116 77.2736 78.4728 77.2736C93.0278 77.2736 105.504 67.3669 108.622 53.4145C109.662 48.6427 109.334 44.1303 107.528 38.8398C106.27 35.2091 105.066 33.9124 104.19 35.2609Z" fill="url(#paint4_linear_378_304)" fill-opacity="0.6" style="mix-blend-mode:soft-light"/>
<path d="M104.19 35.2609C104.026 35.5721 104.409 37.2319 105.066 39.0472C106.543 42.9892 107.036 49.5245 106.105 53.5701C103.917 63.5806 95.4354 71.7756 84.4918 74.4208C69.9368 77.9478 54.4516 69.1822 50.0742 55.0224C48.7062 50.6137 48.9251 46.8274 51.1685 36.6613C51.4421 35.5203 51.3327 35.2609 50.4572 35.2609C48.5968 35.2609 46.9552 41.5888 46.9005 48.6946C46.8458 56.2672 49.8553 62.8544 56.0384 68.7154C62.2763 74.6802 69.116 77.2736 78.4728 77.2736C93.0278 77.2736 105.504 67.3669 108.622 53.4145C109.662 48.6427 109.334 44.1303 107.528 38.8398C106.27 35.2091 105.066 33.9124 104.19 35.2609Z" fill="#F0F1F5"/>
<path d="M115.462 84.0163L79.1293 90.1366L40.4984 84.2237C19.2678 80.9561 1.59387 78.4146 1.21085 78.5183C0.82782 78.6739 0.499512 79.3482 0.499512 80.0743C0.499512 81.371 9.96573 105.126 10.8412 105.956C11.1148 106.216 11.7167 106.216 12.1544 106.008C12.8658 105.593 12.1544 103.57 8.0506 93.4561C5.3147 86.8171 3.23541 81.2673 3.39957 81.1117C3.56372 80.9042 70.7574 91.0184 76.667 92.1076L78.1991 92.4188L78.3085 105.438C78.4727 118.093 78.5274 118.508 79.567 118.508C80.6067 118.508 80.6614 118.093 80.8256 105.438C80.935 92.3669 80.935 92.3151 82.1935 92.0557C84.1633 91.5889 150.7 80.4893 150.81 80.593C150.865 80.6449 149.223 86.0391 147.089 92.5744C145.01 99.1097 143.423 104.763 143.532 105.126C144.244 106.89 145.448 105.593 146.761 101.496C154.093 78.8814 154.421 77.7403 152.506 77.844C152.123 77.844 135.434 80.6449 115.462 84.0163Z" fill="url(#paint5_linear_378_304)" fill-opacity="0.6" style="mix-blend-mode:soft-light"/>
<path d="M115.462 84.0163L79.1293 90.1366L40.4984 84.2237C19.2678 80.9561 1.59387 78.4146 1.21085 78.5183C0.82782 78.6739 0.499512 79.3482 0.499512 80.0743C0.499512 81.371 9.96573 105.126 10.8412 105.956C11.1148 106.216 11.7167 106.216 12.1544 106.008C12.8658 105.593 12.1544 103.57 8.0506 93.4561C5.3147 86.8171 3.23541 81.2673 3.39957 81.1117C3.56372 80.9042 70.7574 91.0184 76.667 92.1076L78.1991 92.4188L78.3085 105.438C78.4727 118.093 78.5274 118.508 79.567 118.508C80.6067 118.508 80.6614 118.093 80.8256 105.438C80.935 92.3669 80.935 92.3151 82.1935 92.0557C84.1633 91.5889 150.7 80.4893 150.81 80.593C150.865 80.6449 149.223 86.0391 147.089 92.5744C145.01 99.1097 143.423 104.763 143.532 105.126C144.244 106.89 145.448 105.593 146.761 101.496C154.093 78.8814 154.421 77.7403 152.506 77.844C152.123 77.844 135.434 80.6449 115.462 84.0163Z" fill="#F0F1F5"/>
<path d="M74.3141 78.8815C68.3498 79.5039 57.5156 82.5641 56.6949 83.8608C56.5307 84.1201 56.5854 84.6388 56.859 85.0537C57.2421 85.6243 57.844 85.5205 60.2515 84.6388C69.663 81.0599 78.6368 80.1263 86.7898 81.838C89.5257 82.4604 93.0276 83.4977 94.5597 84.2239C97.8428 85.8317 99.1561 85.9355 98.8825 84.6388C98.6089 83.2902 93.7937 81.0599 88.5955 79.9189C82.7954 78.674 78.9104 78.4147 74.3141 78.8815Z" fill="url(#paint6_linear_378_304)" fill-opacity="0.6" style="mix-blend-mode:soft-light"/>
<path d="M74.3141 78.8815C68.3498 79.5039 57.5156 82.5641 56.6949 83.8608C56.5307 84.1201 56.5854 84.6388 56.859 85.0537C57.2421 85.6243 57.844 85.5205 60.2515 84.6388C69.663 81.0599 78.6368 80.1263 86.7898 81.838C89.5257 82.4604 93.0276 83.4977 94.5597 84.2239C97.8428 85.8317 99.1561 85.9355 98.8825 84.6388C98.6089 83.2902 93.7937 81.0599 88.5955 79.9189C82.7954 78.674 78.9104 78.4147 74.3141 78.8815Z" fill="#F0F1F5"/>
<path d="M14.2338 106.89C6.24495 110.676 3.3449 119.338 7.44875 127.066C9.19973 130.23 12.9753 133.29 16.3678 134.276C18.9943 135.002 23.5906 135.002 26.217 134.276C29.6095 133.29 33.3851 130.23 35.1361 127.066C39.2399 119.39 36.4493 110.884 28.4605 106.994C23.6453 104.608 19.1037 104.608 14.2338 106.89ZM27.0925 108.809C31.9077 111.143 34.37 114.981 34.4247 120.116C34.4795 131.371 20.3075 136.921 11.8809 128.933C9.4186 126.651 8.16009 123.695 8.16009 120.168C8.16009 114.307 11.7715 109.742 18.0093 107.823C20.0886 107.149 24.7396 107.668 27.0925 108.809Z" fill="url(#paint7_linear_378_304)" fill-opacity="0.6" style="mix-blend-mode:soft-light"/>
<path d="M14.2338 106.89C6.24495 110.676 3.3449 119.338 7.44875 127.066C9.19973 130.23 12.9753 133.29 16.3678 134.276C18.9943 135.002 23.5906 135.002 26.217 134.276C29.6095 133.29 33.3851 130.23 35.1361 127.066C39.2399 119.39 36.4493 110.884 28.4605 106.994C23.6453 104.608 19.1037 104.608 14.2338 106.89ZM27.0925 108.809C31.9077 111.143 34.37 114.981 34.4247 120.116C34.4795 131.371 20.3075 136.921 11.8809 128.933C9.4186 126.651 8.16009 123.695 8.16009 120.168C8.16009 114.307 11.7715 109.742 18.0093 107.823C20.0886 107.149 24.7396 107.668 27.0925 108.809Z" fill="#F0F1F5"/>
<path d="M130.947 106.786C127.719 108.186 124.874 110.78 123.177 113.788C121.207 117.367 121.098 123.124 122.958 126.392C125.913 131.734 130.181 134.431 136.364 134.743C139.647 134.95 140.468 134.794 143.587 133.342C149.278 130.645 152.233 126.236 152.233 120.323C152.287 114.566 149.114 109.691 143.751 107.149C140.195 105.437 134.395 105.282 130.947 106.786ZM143.751 109.794C147.253 111.817 149.497 115.344 149.77 119.286C150.044 123.072 149.168 125.614 146.706 128.207C140.468 134.743 130.345 133.861 125.804 126.392C123.67 122.865 123.506 118.041 125.421 114.618C128.923 108.342 137.459 106.06 143.751 109.794Z" fill="url(#paint8_linear_378_304)" fill-opacity="0.6" style="mix-blend-mode:soft-light"/>
<path d="M130.947 106.786C127.719 108.186 124.874 110.78 123.177 113.788C121.207 117.367 121.098 123.124 122.958 126.392C125.913 131.734 130.181 134.431 136.364 134.743C139.647 134.95 140.468 134.794 143.587 133.342C149.278 130.645 152.233 126.236 152.233 120.323C152.287 114.566 149.114 109.691 143.751 107.149C140.195 105.437 134.395 105.282 130.947 106.786ZM143.751 109.794C147.253 111.817 149.497 115.344 149.77 119.286C150.044 123.072 149.168 125.614 146.706 128.207C140.468 134.743 130.345 133.861 125.804 126.392C123.67 122.865 123.506 118.041 125.421 114.618C128.923 108.342 137.459 106.06 143.751 109.794Z" fill="#F0F1F5"/>
<path d="M23.4811 137.025C23.4811 138.27 28.0227 148.954 28.6246 149.162C28.9529 149.214 40.2248 150.147 53.7401 151.133L78.1991 153L104.847 150.355C119.511 148.954 131.659 147.658 131.823 147.502C132.315 146.983 135.489 136.973 135.215 136.662C135.051 136.506 134.504 136.402 133.957 136.402C133.081 136.402 132.698 137.232 130.4 144.805C130.236 145.324 129.798 145.739 129.415 145.739C128.485 145.739 86.0785 149.784 83.2879 150.147L80.935 150.458V146.361C80.935 143.041 80.7708 142.16 80.0595 141.9C78.5274 141.33 78.1991 142.108 78.1991 146.309V150.407L75.6273 150.355C74.15 150.355 63.3158 149.577 51.442 148.695L29.8831 147.035L27.7491 141.693C26.0528 137.543 25.3415 136.402 24.5207 136.402C23.9735 136.402 23.4811 136.714 23.4811 137.025Z" fill="url(#paint9_linear_378_304)" fill-opacity="0.6" style="mix-blend-mode:soft-light"/>
<path d="M23.4811 137.025C23.4811 138.27 28.0227 148.954 28.6246 149.162C28.9529 149.214 40.2248 150.147 53.7401 151.133L78.1991 153L104.847 150.355C119.511 148.954 131.659 147.658 131.823 147.502C132.315 146.983 135.489 136.973 135.215 136.662C135.051 136.506 134.504 136.402 133.957 136.402C133.081 136.402 132.698 137.232 130.4 144.805C130.236 145.324 129.798 145.739 129.415 145.739C128.485 145.739 86.0785 149.784 83.2879 150.147L80.935 150.458V146.361C80.935 143.041 80.7708 142.16 80.0595 141.9C78.5274 141.33 78.1991 142.108 78.1991 146.309V150.407L75.6273 150.355C74.15 150.355 63.3158 149.577 51.442 148.695L29.8831 147.035L27.7491 141.693C26.0528 137.543 25.3415 136.402 24.5207 136.402C23.9735 136.402 23.4811 136.714 23.4811 137.025Z" fill="#F0F1F5"/>
<defs>
<linearGradient id="paint0_linear_378_304" x1="113.733" y1="-7.62939e-05" x2="88.124" y2="55.6185" gradientUnits="userSpaceOnUse">
<stop/>
<stop offset="1" stop-color="white" stop-opacity="0"/>
</linearGradient>
<linearGradient id="paint1_linear_378_304" x1="87.501" y1="5.25011" x2="85.7002" y2="13.2352" gradientUnits="userSpaceOnUse">
<stop/>
<stop offset="1" stop-color="white" stop-opacity="0"/>
</linearGradient>
<linearGradient id="paint2_linear_378_304" x1="67.9286" y1="12.4393" x2="61.5112" y2="13.8383" gradientUnits="userSpaceOnUse">
<stop/>
<stop offset="1" stop-color="white" stop-opacity="0"/>
</linearGradient>
<linearGradient id="paint3_linear_378_304" x1="91.8045" y1="12.5159" x2="85.7389" y2="13.759" gradientUnits="userSpaceOnUse">
<stop/>
<stop offset="1" stop-color="white" stop-opacity="0"/>
</linearGradient>
<linearGradient id="paint4_linear_378_304" x1="109.209" y1="34.74" x2="69.5982" y2="92.7679" gradientUnits="userSpaceOnUse">
<stop/>
<stop offset="1" stop-color="white" stop-opacity="0"/>
</linearGradient>
<linearGradient id="paint5_linear_378_304" x1="153.5" y1="77.8386" x2="133.305" y2="153.81" gradientUnits="userSpaceOnUse">
<stop/>
<stop offset="1" stop-color="white" stop-opacity="0"/>
</linearGradient>
<linearGradient id="paint6_linear_378_304" x1="98.9176" y1="78.6644" x2="96.7473" y2="92.042" gradientUnits="userSpaceOnUse">
<stop/>
<stop offset="1" stop-color="white" stop-opacity="0"/>
</linearGradient>
<linearGradient id="paint7_linear_378_304" x1="37.0155" y1="105.191" x2="7.43702" y2="136.558" gradientUnits="userSpaceOnUse">
<stop/>
<stop offset="1" stop-color="white" stop-opacity="0"/>
</linearGradient>
<linearGradient id="paint8_linear_378_304" x1="152.233" y1="105.754" x2="123.209" y2="136.317" gradientUnits="userSpaceOnUse">
<stop/>
<stop offset="1" stop-color="white" stop-opacity="0"/>
</linearGradient>
<linearGradient id="paint9_linear_378_304" x1="135.232" y1="136.402" x2="130.408" y2="168.881" gradientUnits="userSpaceOnUse">
<stop/>
<stop offset="1" stop-color="white" stop-opacity="0"/>
</linearGradient>
</defs>
</svg>
