<svg width="170" height="111" viewBox="0 0 170 111" fill="none" xmlns="http://www.w3.org/2000/svg">
<path d="M27.1953 2.24888C24.7412 6.13919 0.499512 49.7836 0.499512 50.3307C0.499512 51.2425 3.07332 53.2484 8.75964 56.8348C13.0693 59.5094 14.5058 60.1172 15.1044 59.5702C16.6606 58.2937 43.5958 11.7923 43.5958 10.455C43.5958 9.48242 42.698 8.57063 40.4833 7.17255C38.7475 6.0784 35.5751 4.01168 33.4802 2.6136C31.3852 1.15473 29.4698 -0.000206486 29.1705 -0.000206486C28.8712 -0.000206486 27.9734 1.03316 27.1953 2.24888ZM35.3956 7.35491C38.0891 9.05692 40.4235 10.5766 40.5432 10.6981C40.7227 10.8805 16.9599 51.7895 14.5657 55.4367C13.9671 56.4093 13.4284 56.2269 9.11877 53.5523C6.54497 51.9719 4.39015 50.2699 4.39015 49.7836C4.39015 48.6287 29.2304 4.25482 29.8888 4.25482C30.1881 4.25482 32.6422 5.6529 35.3956 7.35491Z" fill="url(#paint0_linear_378_1260)" fill-opacity="0.6" style="mix-blend-mode:soft-light"/>
<path d="M27.1953 2.24888C24.7412 6.13919 0.499512 49.7836 0.499512 50.3307C0.499512 51.2425 3.07332 53.2484 8.75964 56.8348C13.0693 59.5094 14.5058 60.1172 15.1044 59.5702C16.6606 58.2937 43.5958 11.7923 43.5958 10.455C43.5958 9.48242 42.698 8.57063 40.4833 7.17255C38.7475 6.0784 35.5751 4.01168 33.4802 2.6136C31.3852 1.15473 29.4698 -0.000206486 29.1705 -0.000206486C28.8712 -0.000206486 27.9734 1.03316 27.1953 2.24888ZM35.3956 7.35491C38.0891 9.05692 40.4235 10.5766 40.5432 10.6981C40.7227 10.8805 16.9599 51.7895 14.5657 55.4367C13.9671 56.4093 13.4284 56.2269 9.11877 53.5523C6.54497 51.9719 4.39015 50.2699 4.39015 49.7836C4.39015 48.6287 29.2304 4.25482 29.8888 4.25482C30.1881 4.25482 32.6422 5.6529 35.3956 7.35491Z" fill="#F0F1F5"/>
<path d="M134.448 4.56486C131.276 6.69237 128.523 8.94146 128.343 9.6101C128.044 10.5219 131.456 17.2084 140.853 34.1677C147.976 46.9328 154.141 57.8135 154.56 58.239C155.218 58.9684 156.475 58.4821 162.162 55.5036C165.873 53.5584 169.165 51.5525 169.464 51.0054C169.883 50.276 166.651 44.1366 155.937 25.4753C148.215 11.9808 141.511 0.856908 141.092 0.796122C140.614 0.735336 137.681 2.43735 134.448 4.56486ZM153.662 27.1773C160.606 39.2737 166.292 49.3642 166.292 49.6681C166.292 50.1544 156.116 55.5644 155.817 55.1997C154.859 53.9839 131.575 11.1298 131.575 10.5827C131.575 9.67089 140.135 4.20014 140.673 4.74722C140.853 4.99036 146.719 15.0809 153.662 27.1773Z" fill="url(#paint1_linear_378_1260)" fill-opacity="0.6" style="mix-blend-mode:soft-light"/>
<path d="M134.448 4.56486C131.276 6.69237 128.523 8.94146 128.343 9.6101C128.044 10.5219 131.456 17.2084 140.853 34.1677C147.976 46.9328 154.141 57.8135 154.56 58.239C155.218 58.9684 156.475 58.4821 162.162 55.5036C165.873 53.5584 169.165 51.5525 169.464 51.0054C169.883 50.276 166.651 44.1366 155.937 25.4753C148.215 11.9808 141.511 0.856908 141.092 0.796122C140.614 0.735336 137.681 2.43735 134.448 4.56486ZM153.662 27.1773C160.606 39.2737 166.292 49.3642 166.292 49.6681C166.292 50.1544 156.116 55.5644 155.817 55.1997C154.859 53.9839 131.575 11.1298 131.575 10.5827C131.575 9.67089 140.135 4.20014 140.673 4.74722C140.853 4.99036 146.719 15.0809 153.662 27.1773Z" fill="#F0F1F5"/>
<path d="M83.0996 14.075C78.3112 14.5613 68.6743 16.7496 65.0231 18.2085C64.0654 18.5732 62.2099 20.6399 60.3544 23.4361C58.6784 25.9891 55.0272 30.4873 52.2139 33.4658C49.4606 36.4443 47.186 39.1797 47.186 39.5444C47.186 40.6993 49.4007 44.6504 50.7774 45.9269C52.8125 47.8113 57.9601 47.5681 62.2697 45.4406C66.3998 43.3739 71.6073 38.6934 73.9417 34.9854C76.7549 30.3657 80.2265 30.001 89.0254 33.4658C97.4052 36.809 109.556 45.2583 126.675 59.7254C131.703 64.0412 136.072 67.506 136.431 67.506C136.731 67.506 139.125 65.5 141.818 63.0686C144.512 60.6979 147.325 58.2057 148.103 57.5978C149.839 56.2606 149.899 54.5585 148.462 52.431C147.864 51.5192 143.375 43.3739 138.466 34.3776C133.558 25.3204 129.428 17.783 129.189 17.479C129.009 17.2359 125.178 16.932 120.749 16.7496C112.788 16.4457 110.334 16.2025 100.218 14.3789C94.5321 13.3456 91.1203 13.2848 83.0996 14.075ZM101.535 17.6614C107.76 18.8771 121.527 20.2752 124.999 19.9713L127.094 19.7889L136.491 36.809C141.639 46.1701 145.829 54.2546 145.769 54.8625C145.649 55.7743 137.269 63.8588 136.431 63.8588C136.192 63.8588 133.498 61.6705 130.386 58.9351C116.499 46.8995 101.655 36.1404 93.8737 32.4932C91.4196 31.2775 88.9655 30.1225 88.4268 29.8186C86.5713 28.846 80.5258 27.8735 78.4907 28.299C74.9592 28.9676 73.5825 29.8794 71.6671 32.9187C67.8364 39.0581 60.1149 44.4073 55.2067 44.4073C53.5308 44.4073 50.7774 41.915 50.7774 40.3954C50.7774 39.8483 52.7526 37.2953 55.2067 34.6815C57.601 32.1285 60.9529 27.9342 62.6289 25.442L65.6815 20.8223L70.3503 19.6065C82.0821 16.4457 92.497 15.777 101.535 17.6614Z" fill="url(#paint2_linear_378_1260)" fill-opacity="0.6" style="mix-blend-mode:soft-light"/>
<path d="M83.0996 14.075C78.3112 14.5613 68.6743 16.7496 65.0231 18.2085C64.0654 18.5732 62.2099 20.6399 60.3544 23.4361C58.6784 25.9891 55.0272 30.4873 52.2139 33.4658C49.4606 36.4443 47.186 39.1797 47.186 39.5444C47.186 40.6993 49.4007 44.6504 50.7774 45.9269C52.8125 47.8113 57.9601 47.5681 62.2697 45.4406C66.3998 43.3739 71.6073 38.6934 73.9417 34.9854C76.7549 30.3657 80.2265 30.001 89.0254 33.4658C97.4052 36.809 109.556 45.2583 126.675 59.7254C131.703 64.0412 136.072 67.506 136.431 67.506C136.731 67.506 139.125 65.5 141.818 63.0686C144.512 60.6979 147.325 58.2057 148.103 57.5978C149.839 56.2606 149.899 54.5585 148.462 52.431C147.864 51.5192 143.375 43.3739 138.466 34.3776C133.558 25.3204 129.428 17.783 129.189 17.479C129.009 17.2359 125.178 16.932 120.749 16.7496C112.788 16.4457 110.334 16.2025 100.218 14.3789C94.5321 13.3456 91.1203 13.2848 83.0996 14.075ZM101.535 17.6614C107.76 18.8771 121.527 20.2752 124.999 19.9713L127.094 19.7889L136.491 36.809C141.639 46.1701 145.829 54.2546 145.769 54.8625C145.649 55.7743 137.269 63.8588 136.431 63.8588C136.192 63.8588 133.498 61.6705 130.386 58.9351C116.499 46.8995 101.655 36.1404 93.8737 32.4932C91.4196 31.2775 88.9655 30.1225 88.4268 29.8186C86.5713 28.846 80.5258 27.8735 78.4907 28.299C74.9592 28.9676 73.5825 29.8794 71.6671 32.9187C67.8364 39.0581 60.1149 44.4073 55.2067 44.4073C53.5308 44.4073 50.7774 41.915 50.7774 40.3954C50.7774 39.8483 52.7526 37.2953 55.2067 34.6815C57.601 32.1285 60.9529 27.9342 62.6289 25.442L65.6815 20.8223L70.3503 19.6065C82.0821 16.4457 92.497 15.777 101.535 17.6614Z" fill="#F0F1F5"/>
<path d="M43.0478 18.5003C41.731 20.1416 20.2427 56.1269 20.2427 56.7348C20.2427 57.4034 25.9889 63.9075 27.2458 64.637C27.7845 64.9409 28.9218 64.7586 30.1788 64.1507C32.992 62.8134 34.7278 63.2997 39.0375 66.7037L42.6288 69.4999L45.5019 67.8586C51.2481 64.5762 54.7796 65.8527 57.8921 72.296C59.2688 75.153 59.8075 75.7001 62.501 76.6726C66.8106 78.3139 68.2472 80.1374 68.6063 84.2101C68.8457 87.5533 68.9056 87.6141 71.659 89.073C73.1554 89.8632 75.1905 91.3221 76.208 92.4162C78.1234 94.483 78.4227 97.036 77.4051 102.568L76.9862 105.06L81.0564 106.397C85.6054 107.856 93.1473 108.585 96.4992 107.977C99.2526 107.43 102.964 104.209 102.724 102.568C102.605 101.777 100.45 100.258 95.5415 97.6438C87.6405 93.4496 85.6054 92.1123 86.1441 91.5044C86.3835 91.3221 89.1968 92.477 92.429 94.1182C95.7211 95.7595 101.108 98.0085 104.4 99.1027C110.326 100.987 110.506 101.048 112.6 100.014C115.593 98.6164 116.431 96.185 115.174 92.8417C114.276 90.4103 113.857 90.0456 109.069 87.8573C103.562 85.365 93.8655 79.2864 93.8655 78.3746C93.8655 77.5844 93.9853 77.6452 98.3547 80.3198C104.46 84.0885 116.072 89.8024 118.526 90.2887C124.931 91.5044 128.343 87.6141 125.948 81.7787C125.23 80.0766 124.153 79.2256 120.322 77.2805C114.396 74.2412 101.048 65.2448 101.048 64.2115C101.048 63.3605 102.365 63.9683 105.657 66.339C110.206 69.5607 120.801 76.004 126.248 78.8001C129.779 80.5629 131.036 80.9277 132.952 80.6845C136.363 80.1982 138.159 78.2531 138.159 75.0314C138.159 71.9313 137.141 70.7764 127.804 63.3605C116.551 54.4857 102.964 45.4894 87.9398 36.9793C79.979 32.5419 78.1833 31.9341 77.8241 33.5753C77.7044 34.2439 78.4826 35.0949 80.2184 36.0675C81.6549 36.8577 86.3237 39.5323 90.5735 41.9638C104.4 49.866 122.297 62.3271 133.55 71.9313C136.184 74.1804 135.465 77.8276 132.353 77.8276C129.959 77.8276 118.706 71.5666 107.932 64.2115C104.999 62.2055 102.066 60.6251 101.407 60.6859C98.7139 60.8682 97.1576 64.2723 98.8336 66.3998C100.15 68.1626 112.181 76.3687 117.748 79.2864C121.998 81.5355 123.255 82.5081 123.554 83.7238C124.153 85.9121 123.135 87.1886 120.681 87.4318C119.065 87.5533 116.671 86.6415 110.266 83.3591C105.717 81.0492 100.21 78.0099 98.1153 76.6118C94.8232 74.4843 94.0451 74.1804 92.9079 74.7275C91.4713 75.3961 90.6333 77.5236 90.9925 79.4688C91.2917 80.9884 98.4146 85.9121 105.537 89.4377C113.199 93.2672 114.576 94.9692 111.643 96.9752C110.386 97.8262 109.787 97.7046 104.64 96.0634C101.587 95.03 96.4394 92.8417 93.267 91.2005C86.8025 87.7965 85.366 87.5533 84.0492 89.4985C81.7148 92.9025 83.2112 94.6045 93.2071 99.9537C98.654 102.811 99.1927 103.236 98.2949 104.026C95.7809 106.154 79.5001 104.573 80.3979 102.324C81.1761 100.136 81.3556 96.732 80.7571 94.4222C80.0388 91.8084 75.9686 87.4318 73.2751 86.3376C72.1977 85.9121 71.8385 85.2435 71.5991 83.0552C71.3597 81.3532 70.6414 79.4688 69.6837 78.1315C68.1275 76.0648 64.2368 73.5725 62.5609 73.5725C62.1419 73.5725 61.1243 72.1745 60.3462 70.4724C59.5681 68.7704 57.8921 66.4606 56.6351 65.3056C54.6599 63.482 53.9416 63.2389 51.1882 63.2389C49.3925 63.2389 46.9983 63.786 45.5019 64.4546L42.8682 65.6703L39.636 63.2997C35.8651 60.5643 32.992 59.8349 30.0591 60.8075C28.024 61.5369 27.9042 61.4761 25.929 59.1662C24.7917 57.8897 23.8939 56.6132 23.834 56.3701C23.834 55.9446 43.7661 22.3299 44.7238 21.1749C44.9632 20.9318 47.7166 21.6004 50.9488 22.6338C55.4979 24.1534 56.8745 24.4574 57.4731 23.8495C58.6702 22.6338 57.0541 21.6612 50.7692 19.5337C44.2449 17.4062 44.0055 17.3454 43.0478 18.5003Z" fill="url(#paint3_linear_378_1260)" fill-opacity="0.6" style="mix-blend-mode:soft-light"/>
<path d="M43.0478 18.5003C41.731 20.1416 20.2427 56.1269 20.2427 56.7348C20.2427 57.4034 25.9889 63.9075 27.2458 64.637C27.7845 64.9409 28.9218 64.7586 30.1788 64.1507C32.992 62.8134 34.7278 63.2997 39.0375 66.7037L42.6288 69.4999L45.5019 67.8586C51.2481 64.5762 54.7796 65.8527 57.8921 72.296C59.2688 75.153 59.8075 75.7001 62.501 76.6726C66.8106 78.3139 68.2472 80.1374 68.6063 84.2101C68.8457 87.5533 68.9056 87.6141 71.659 89.073C73.1554 89.8632 75.1905 91.3221 76.208 92.4162C78.1234 94.483 78.4227 97.036 77.4051 102.568L76.9862 105.06L81.0564 106.397C85.6054 107.856 93.1473 108.585 96.4992 107.977C99.2526 107.43 102.964 104.209 102.724 102.568C102.605 101.777 100.45 100.258 95.5415 97.6438C87.6405 93.4496 85.6054 92.1123 86.1441 91.5044C86.3835 91.3221 89.1968 92.477 92.429 94.1182C95.7211 95.7595 101.108 98.0085 104.4 99.1027C110.326 100.987 110.506 101.048 112.6 100.014C115.593 98.6164 116.431 96.185 115.174 92.8417C114.276 90.4103 113.857 90.0456 109.069 87.8573C103.562 85.365 93.8655 79.2864 93.8655 78.3746C93.8655 77.5844 93.9853 77.6452 98.3547 80.3198C104.46 84.0885 116.072 89.8024 118.526 90.2887C124.931 91.5044 128.343 87.6141 125.948 81.7787C125.23 80.0766 124.153 79.2256 120.322 77.2805C114.396 74.2412 101.048 65.2448 101.048 64.2115C101.048 63.3605 102.365 63.9683 105.657 66.339C110.206 69.5607 120.801 76.004 126.248 78.8001C129.779 80.5629 131.036 80.9277 132.952 80.6845C136.363 80.1982 138.159 78.2531 138.159 75.0314C138.159 71.9313 137.141 70.7764 127.804 63.3605C116.551 54.4857 102.964 45.4894 87.9398 36.9793C79.979 32.5419 78.1833 31.9341 77.8241 33.5753C77.7044 34.2439 78.4826 35.0949 80.2184 36.0675C81.6549 36.8577 86.3237 39.5323 90.5735 41.9638C104.4 49.866 122.297 62.3271 133.55 71.9313C136.184 74.1804 135.465 77.8276 132.353 77.8276C129.959 77.8276 118.706 71.5666 107.932 64.2115C104.999 62.2055 102.066 60.6251 101.407 60.6859C98.7139 60.8682 97.1576 64.2723 98.8336 66.3998C100.15 68.1626 112.181 76.3687 117.748 79.2864C121.998 81.5355 123.255 82.5081 123.554 83.7238C124.153 85.9121 123.135 87.1886 120.681 87.4318C119.065 87.5533 116.671 86.6415 110.266 83.3591C105.717 81.0492 100.21 78.0099 98.1153 76.6118C94.8232 74.4843 94.0451 74.1804 92.9079 74.7275C91.4713 75.3961 90.6333 77.5236 90.9925 79.4688C91.2917 80.9884 98.4146 85.9121 105.537 89.4377C113.199 93.2672 114.576 94.9692 111.643 96.9752C110.386 97.8262 109.787 97.7046 104.64 96.0634C101.587 95.03 96.4394 92.8417 93.267 91.2005C86.8025 87.7965 85.366 87.5533 84.0492 89.4985C81.7148 92.9025 83.2112 94.6045 93.2071 99.9537C98.654 102.811 99.1927 103.236 98.2949 104.026C95.7809 106.154 79.5001 104.573 80.3979 102.324C81.1761 100.136 81.3556 96.732 80.7571 94.4222C80.0388 91.8084 75.9686 87.4318 73.2751 86.3376C72.1977 85.9121 71.8385 85.2435 71.5991 83.0552C71.3597 81.3532 70.6414 79.4688 69.6837 78.1315C68.1275 76.0648 64.2368 73.5725 62.5609 73.5725C62.1419 73.5725 61.1243 72.1745 60.3462 70.4724C59.5681 68.7704 57.8921 66.4606 56.6351 65.3056C54.6599 63.482 53.9416 63.2389 51.1882 63.2389C49.3925 63.2389 46.9983 63.786 45.5019 64.4546L42.8682 65.6703L39.636 63.2997C35.8651 60.5643 32.992 59.8349 30.0591 60.8075C28.024 61.5369 27.9042 61.4761 25.929 59.1662C24.7917 57.8897 23.8939 56.6132 23.834 56.3701C23.834 55.9446 43.7661 22.3299 44.7238 21.1749C44.9632 20.9318 47.7166 21.6004 50.9488 22.6338C55.4979 24.1534 56.8745 24.4574 57.4731 23.8495C58.6702 22.6338 57.0541 21.6612 50.7692 19.5337C44.2449 17.4062 44.0055 17.3454 43.0478 18.5003Z" fill="#F0F1F5"/>
<path d="M27.4309 67.2553C23.241 71.0849 21.6249 76.1909 23.4804 79.5341C24.498 81.4185 27.3711 83.3029 29.2864 83.3029C33.2369 83.3029 38.5043 76.7987 38.5043 71.9359C38.5043 68.5318 35.9305 65.7357 32.399 65.2494C30.2441 64.9455 29.7054 65.1886 27.4309 67.2553ZM34.5538 69.6868C36.11 71.7535 36.11 72.6653 34.4341 75.6438C32.5187 79.1086 30.2441 80.6283 28.209 79.8988C24.7972 78.6831 24.917 74.4889 28.3886 70.5378C30.9624 67.6808 32.8179 67.4377 34.5538 69.6868Z" fill="url(#paint4_linear_378_1260)" fill-opacity="0.6" style="mix-blend-mode:soft-light"/>
<path d="M27.4309 67.2553C23.241 71.0849 21.6249 76.1909 23.4804 79.5341C24.498 81.4185 27.3711 83.3029 29.2864 83.3029C33.2369 83.3029 38.5043 76.7987 38.5043 71.9359C38.5043 68.5318 35.9305 65.7357 32.399 65.2494C30.2441 64.9455 29.7054 65.1886 27.4309 67.2553ZM34.5538 69.6868C36.11 71.7535 36.11 72.6653 34.4341 75.6438C32.5187 79.1086 30.2441 80.6283 28.209 79.8988C24.7972 78.6831 24.917 74.4889 28.3886 70.5378C30.9624 67.6808 32.8179 67.4377 34.5538 69.6868Z" fill="#F0F1F5"/>
<path d="M45.9947 69.1978C41.2062 71.8116 34.6221 82.5707 34.6221 87.7983C34.6221 91.3239 35.3403 92.722 37.7346 93.9985C41.6252 96.0652 45.5159 94.0593 49.8853 87.9199C53.5366 82.6923 55.5717 78.0726 55.5717 74.8509C55.5717 72.6626 55.2125 71.8724 53.5366 70.1704C51.2022 67.7997 49.1671 67.4958 45.9947 69.1978ZM51.5015 72.1763C53.1774 73.696 52.8183 76.6137 50.3642 81.5374C47.6707 86.765 43.1216 91.8102 41.0865 91.8102C36.4776 91.8102 36.3579 86.7042 40.8471 79.4099C43.8399 74.547 47.3115 71.1429 49.2269 71.1429C49.8853 71.1429 50.9029 71.5685 51.5015 72.1763Z" fill="url(#paint5_linear_378_1260)" fill-opacity="0.6" style="mix-blend-mode:soft-light"/>
<path d="M45.9947 69.1978C41.2062 71.8116 34.6221 82.5707 34.6221 87.7983C34.6221 91.3239 35.3403 92.722 37.7346 93.9985C41.6252 96.0652 45.5159 94.0593 49.8853 87.9199C53.5366 82.6923 55.5717 78.0726 55.5717 74.8509C55.5717 72.6626 55.2125 71.8724 53.5366 70.1704C51.2022 67.7997 49.1671 67.4958 45.9947 69.1978ZM51.5015 72.1763C53.1774 73.696 52.8183 76.6137 50.3642 81.5374C47.6707 86.765 43.1216 91.8102 41.0865 91.8102C36.4776 91.8102 36.3579 86.7042 40.8471 79.4099C43.8399 74.547 47.3115 71.1429 49.2269 71.1429C49.8853 71.1429 50.9029 71.5685 51.5015 72.1763Z" fill="#F0F1F5"/>
<path d="M55.2739 83.4568C49.1088 89.8394 45.7568 98.2886 47.8518 102.24C48.6898 103.881 51.8621 105.097 54.0768 104.671C58.6259 103.82 67.0656 91.4198 67.1853 85.3412C67.2451 81.694 65.1502 79.6273 61.3792 79.6273C59.1646 79.6273 58.566 79.992 55.2739 83.4568ZM63.953 83.8823C65.0903 86.0706 62.8756 91.663 58.6259 97.1337C54.2564 102.665 50.1862 103.455 50.1862 98.7141C50.1862 93.8513 58.147 82.6666 61.6187 82.6666C62.6961 82.6666 63.5341 83.0921 63.953 83.8823Z" fill="url(#paint6_linear_378_1260)" fill-opacity="0.6" style="mix-blend-mode:soft-light"/>
<path d="M55.2739 83.4568C49.1088 89.8394 45.7568 98.2886 47.8518 102.24C48.6898 103.881 51.8621 105.097 54.0768 104.671C58.6259 103.82 67.0656 91.4198 67.1853 85.3412C67.2451 81.694 65.1502 79.6273 61.3792 79.6273C59.1646 79.6273 58.566 79.992 55.2739 83.4568ZM63.953 83.8823C65.0903 86.0706 62.8756 91.663 58.6259 97.1337C54.2564 102.665 50.1862 103.455 50.1862 98.7141C50.1862 93.8513 58.147 82.6666 61.6187 82.6666C62.6961 82.6666 63.5341 83.0921 63.953 83.8823Z" fill="#F0F1F5"/>
<path d="M67.175 92.9571C65.0201 94.2944 61.9076 99.1573 60.9499 102.683C60.0521 106.087 61.2492 108.883 64.1822 110.281C65.9778 111.132 66.756 111.193 68.3721 110.646C72.3824 109.309 76.5125 102.804 76.5125 97.82C76.5125 95.3278 76.2731 94.7199 74.657 93.3826C72.4423 91.4982 69.8086 91.3159 67.175 92.9571ZM73.2204 96.3611C75.1358 99.4004 69.3896 108.883 66.2173 107.91C64.242 107.303 63.2245 105.722 63.6435 103.959C64.8406 99.0965 68.4319 94.6591 70.886 94.963C71.7839 95.0846 72.8014 95.6925 73.2204 96.3611Z" fill="url(#paint7_linear_378_1260)" fill-opacity="0.6" style="mix-blend-mode:soft-light"/>
<path d="M67.175 92.9571C65.0201 94.2944 61.9076 99.1573 60.9499 102.683C60.0521 106.087 61.2492 108.883 64.1822 110.281C65.9778 111.132 66.756 111.193 68.3721 110.646C72.3824 109.309 76.5125 102.804 76.5125 97.82C76.5125 95.3278 76.2731 94.7199 74.657 93.3826C72.4423 91.4982 69.8086 91.3159 67.175 92.9571ZM73.2204 96.3611C75.1358 99.4004 69.3896 108.883 66.2173 107.91C64.242 107.303 63.2245 105.722 63.6435 103.959C64.8406 99.0965 68.4319 94.6591 70.886 94.963C71.7839 95.0846 72.8014 95.6925 73.2204 96.3611Z" fill="#F0F1F5"/>
<defs>
<linearGradient id="paint0_linear_378_1260" x1="43.5958" y1="-0.000205994" x2="-13.1035" y2="40.8929" gradientUnits="userSpaceOnUse">
<stop/>
<stop offset="1" stop-color="white" stop-opacity="0"/>
</linearGradient>
<linearGradient id="paint1_linear_378_1260" x1="169.5" y1="0.79454" x2="114.907" y2="39.7213" gradientUnits="userSpaceOnUse">
<stop/>
<stop offset="1" stop-color="white" stop-opacity="0"/>
</linearGradient>
<linearGradient id="paint2_linear_378_1260" x1="149.478" y1="13.5363" x2="104.929" y2="97.9716" gradientUnits="userSpaceOnUse">
<stop/>
<stop offset="1" stop-color="white" stop-opacity="0"/>
</linearGradient>
<linearGradient id="paint3_linear_378_1260" x1="138.159" y1="17.7514" x2="50.8095" y2="131.637" gradientUnits="userSpaceOnUse">
<stop/>
<stop offset="1" stop-color="white" stop-opacity="0"/>
</linearGradient>
<linearGradient id="paint4_linear_378_1260" x1="38.5043" y1="65.1418" x2="20.5202" y2="80.7738" gradientUnits="userSpaceOnUse">
<stop/>
<stop offset="1" stop-color="white" stop-opacity="0"/>
</linearGradient>
<linearGradient id="paint5_linear_378_1260" x1="55.5717" y1="68.1193" x2="29.6643" y2="88.4738" gradientUnits="userSpaceOnUse">
<stop/>
<stop offset="1" stop-color="white" stop-opacity="0"/>
</linearGradient>
<linearGradient id="paint6_linear_378_1260" x1="67.1865" y1="79.6273" x2="42.7093" y2="99.0685" gradientUnits="userSpaceOnUse">
<stop/>
<stop offset="1" stop-color="white" stop-opacity="0"/>
</linearGradient>
<linearGradient id="paint7_linear_378_1260" x1="76.5125" y1="91.8379" x2="57.6893" y2="107.412" gradientUnits="userSpaceOnUse">
<stop/>
<stop offset="1" stop-color="white" stop-opacity="0"/>
</linearGradient>
</defs>
</svg>
