<svg width="154" height="153" viewBox="0 0 154 153" fill="none" xmlns="http://www.w3.org/2000/svg">
<path d="M70.7595 0.855137C56.2397 6.00558 52.0397 23.4469 62.7796 34.216C66.7996 38.2544 71.1195 40.0102 77.3595 40.0102C83.5994 40.0102 87.7994 38.3129 92.0593 34.1574C101.959 24.5004 99.0793 7.76142 86.4194 1.85011C82.0994 -0.139835 74.8995 -0.608058 70.7595 0.855137ZM84.8594 4.24975C88.5794 5.94705 92.1193 9.34167 93.7993 12.7948C95.7193 16.8332 95.5393 23.798 93.4393 27.7779C90.1993 33.7478 84.1994 37.3765 77.3595 37.3765C72.6795 37.3765 68.8995 35.9718 65.4196 32.9284C61.3396 29.3582 59.6596 25.4953 59.7196 19.8181C59.7796 14.6092 60.7996 12.0339 64.2796 8.28817C69.8595 2.43539 77.4795 0.972192 84.8594 4.24975Z" fill="url(#paint0_linear_378_773)" fill-opacity="0.6" style="mix-blend-mode:soft-light"/>
<path d="M70.7595 0.855137C56.2397 6.00558 52.0397 23.4469 62.7796 34.216C66.7996 38.2544 71.1195 40.0102 77.3595 40.0102C83.5994 40.0102 87.7994 38.3129 92.0593 34.1574C101.959 24.5004 99.0793 7.76142 86.4194 1.85011C82.0994 -0.139835 74.8995 -0.608058 70.7595 0.855137ZM84.8594 4.24975C88.5794 5.94705 92.1193 9.34167 93.7993 12.7948C95.7193 16.8332 95.5393 23.798 93.4393 27.7779C90.1993 33.7478 84.1994 37.3765 77.3595 37.3765C72.6795 37.3765 68.8995 35.9718 65.4196 32.9284C61.3396 29.3582 59.6596 25.4953 59.7196 19.8181C59.7796 14.6092 60.7996 12.0339 64.2796 8.28817C69.8595 2.43539 77.4795 0.972192 84.8594 4.24975Z" fill="#F0F1F5"/>
<path d="M75.2595 5.71295C74.9595 7.05909 74.5395 7.52731 73.5795 7.52731C69.6795 7.58584 64.7596 12.7948 65.5996 16.0138C66.0796 17.9453 69.0195 19.6426 72.6195 20.1108L75.5595 20.5205V25.2027V29.8849L72.5595 29.4752C70.4595 29.1826 69.2595 29.2996 68.6595 29.7679C67.0996 30.9969 68.7195 32.109 72.0195 32.109C74.6595 32.109 75.0795 32.2846 75.5595 33.5722C76.2195 35.328 77.3595 35.5036 77.7795 33.8648C78.0795 32.6943 78.6195 32.4601 82.2194 31.8749C86.1194 31.2311 88.5194 27.7194 87.7394 23.798C87.3194 21.5154 84.4394 19.1743 81.1394 18.3549L78.2595 17.6526L78.0795 13.6727L77.8995 9.69284L81.1394 10.044C84.6794 10.3952 86.1194 9.86842 85.5794 8.52228C85.3394 7.87848 84.1994 7.52731 81.7394 7.41025C78.6195 7.23467 78.2595 7.11761 77.9595 5.77147C77.4195 3.60595 75.7395 3.54742 75.2595 5.71295ZM75.5595 14.0239V17.477H73.6395C71.2395 17.477 68.7195 16.3065 68.4795 15.0774C68.0595 13.0289 73.2195 9.28314 75.1395 10.2781C75.3795 10.3952 75.5595 12.0925 75.5595 14.0239ZM83.1794 21.9251C86.0594 23.681 85.6394 27.6023 82.4594 28.9485C78.2595 30.6458 77.9595 30.3531 77.9595 25.0271V20.2864L79.9394 20.6961C80.9594 20.9302 82.4594 21.4569 83.1794 21.9251Z" fill="url(#paint1_linear_378_773)" fill-opacity="0.6" style="mix-blend-mode:soft-light"/>
<path d="M75.2595 5.71295C74.9595 7.05909 74.5395 7.52731 73.5795 7.52731C69.6795 7.58584 64.7596 12.7948 65.5996 16.0138C66.0796 17.9453 69.0195 19.6426 72.6195 20.1108L75.5595 20.5205V25.2027V29.8849L72.5595 29.4752C70.4595 29.1826 69.2595 29.2996 68.6595 29.7679C67.0996 30.9969 68.7195 32.109 72.0195 32.109C74.6595 32.109 75.0795 32.2846 75.5595 33.5722C76.2195 35.328 77.3595 35.5036 77.7795 33.8648C78.0795 32.6943 78.6195 32.4601 82.2194 31.8749C86.1194 31.2311 88.5194 27.7194 87.7394 23.798C87.3194 21.5154 84.4394 19.1743 81.1394 18.3549L78.2595 17.6526L78.0795 13.6727L77.8995 9.69284L81.1394 10.044C84.6794 10.3952 86.1194 9.86842 85.5794 8.52228C85.3394 7.87848 84.1994 7.52731 81.7394 7.41025C78.6195 7.23467 78.2595 7.11761 77.9595 5.77147C77.4195 3.60595 75.7395 3.54742 75.2595 5.71295ZM75.5595 14.0239V17.477H73.6395C71.2395 17.477 68.7195 16.3065 68.4795 15.0774C68.0595 13.0289 73.2195 9.28314 75.1395 10.2781C75.3795 10.3952 75.5595 12.0925 75.5595 14.0239ZM83.1794 21.9251C86.0594 23.681 85.6394 27.6023 82.4594 28.9485C78.2595 30.6458 77.9595 30.3531 77.9595 25.0271V20.2864L79.9394 20.6961C80.9594 20.9302 82.4594 21.4569 83.1794 21.9251Z" fill="#F0F1F5"/>
<path d="M20.5399 30.1775C19.94 30.4116 19.76 33.8647 19.76 44.7509V59.0317L17.42 63.5969C15.26 67.8109 12.74 74.9512 11.6 80.3943L11.06 82.7354L6.56008 82.911C4.1001 83.0281 1.76012 83.3792 1.34013 83.7304C0.260139 84.6083 0.200139 109.366 1.28013 110.419C1.76012 110.887 4.7001 111.121 10.52 111.121H19.04L25.3999 117.852L31.7598 124.583V138.337C31.7598 150.159 31.8798 152.149 32.6598 152.442C33.1998 152.676 36.1398 151.681 39.1998 150.335L44.7797 147.877L50.2397 150.628C53.2396 152.091 55.9996 153.203 56.3596 152.969C56.7196 152.735 56.9596 149.457 56.9596 144.424C56.9596 138.629 57.1396 136.288 57.6796 136.288C58.0396 136.288 61.3396 136.874 64.9995 137.517C70.5195 138.571 73.0995 138.747 80.0594 138.454C84.6793 138.337 90.5593 137.752 93.1393 137.166C95.7192 136.64 97.9992 136.347 98.1792 136.522C98.4192 136.698 98.6592 140.385 98.8392 144.599C98.9592 148.872 99.2592 152.618 99.4992 152.852C99.7392 153.086 102.319 152.208 105.259 150.92L110.599 148.521L116.839 150.335C120.319 151.33 123.499 152.032 123.979 151.857C124.579 151.623 124.759 148.755 124.759 137.81V124.115L129.319 119.257C131.839 116.564 135.139 112.76 136.639 110.829C144.679 100.352 146.839 88.6467 143.299 74.2489C139.039 56.6321 125.359 43.8145 103.039 36.4985C96.9792 34.5086 95.1193 34.45 95.4792 36.0888C95.5992 36.6156 97.6992 37.6105 101.059 38.664C128.839 47.3847 143.239 65.0601 141.979 88.8809C141.379 100.06 137.719 106.966 125.899 118.73L122.059 122.534V135.703C122.059 144.131 121.819 148.872 121.459 148.813C121.159 148.813 118.579 148.052 115.699 147.175L110.599 145.594L106.099 147.701L101.659 149.75L101.479 141.731C101.419 137.283 101.119 133.479 100.879 133.245C100.639 133.069 97.2192 133.538 93.2593 134.357C83.2394 136.464 72.1995 136.464 62.3596 134.357C58.3396 133.479 55.2196 133.069 54.9196 133.362C54.6196 133.655 54.4396 137.459 54.4996 141.848L54.6196 149.808L49.6997 147.409L44.7797 144.95L39.9798 147.057C37.3398 148.228 35.1198 149.106 34.9998 148.989C34.8798 148.872 34.5798 142.785 34.3398 135.469C34.0998 125.929 33.7398 122.066 33.2598 121.891C32.8398 121.715 30.1399 118.964 27.1999 115.745C24.2599 112.526 21.1399 109.483 20.24 109.014C19.1 108.429 16.46 108.195 11.06 108.195H3.56011L3.44011 99.4159C3.38011 94.5581 3.32011 89.5247 3.26011 88.12V85.6618L8.36006 85.3692L13.46 85.0766L14 82.7354C15.86 74.1904 17.06 70.4446 19.76 65.0601L22.7599 58.9146L22.3399 46.6823C22.1599 39.9516 22.2199 34.45 22.4599 34.45C22.9399 34.45 27.4399 37.9032 34.8798 43.9901L37.7598 46.3312L43.2797 43.8145C46.3397 42.4098 51.5597 40.3028 54.8596 39.1908C58.9996 37.7276 60.9196 36.7911 61.0396 36.0303C61.2196 35.2694 60.8596 35.0353 59.6596 35.0353C57.7396 35.0353 47.8397 38.6055 42.3197 41.2978C38.7798 43.0536 38.1198 43.2292 37.2198 42.4683C33.9198 39.7175 22.3399 30.5287 21.8599 30.236C21.5599 30.0604 20.8999 30.0604 20.5399 30.1775Z" fill="url(#paint2_linear_378_773)" fill-opacity="0.6" style="mix-blend-mode:soft-light"/>
<path d="M20.5399 30.1775C19.94 30.4116 19.76 33.8647 19.76 44.7509V59.0317L17.42 63.5969C15.26 67.8109 12.74 74.9512 11.6 80.3943L11.06 82.7354L6.56008 82.911C4.1001 83.0281 1.76012 83.3792 1.34013 83.7304C0.260139 84.6083 0.200139 109.366 1.28013 110.419C1.76012 110.887 4.7001 111.121 10.52 111.121H19.04L25.3999 117.852L31.7598 124.583V138.337C31.7598 150.159 31.8798 152.149 32.6598 152.442C33.1998 152.676 36.1398 151.681 39.1998 150.335L44.7797 147.877L50.2397 150.628C53.2396 152.091 55.9996 153.203 56.3596 152.969C56.7196 152.735 56.9596 149.457 56.9596 144.424C56.9596 138.629 57.1396 136.288 57.6796 136.288C58.0396 136.288 61.3396 136.874 64.9995 137.517C70.5195 138.571 73.0995 138.747 80.0594 138.454C84.6793 138.337 90.5593 137.752 93.1393 137.166C95.7192 136.64 97.9992 136.347 98.1792 136.522C98.4192 136.698 98.6592 140.385 98.8392 144.599C98.9592 148.872 99.2592 152.618 99.4992 152.852C99.7392 153.086 102.319 152.208 105.259 150.92L110.599 148.521L116.839 150.335C120.319 151.33 123.499 152.032 123.979 151.857C124.579 151.623 124.759 148.755 124.759 137.81V124.115L129.319 119.257C131.839 116.564 135.139 112.76 136.639 110.829C144.679 100.352 146.839 88.6467 143.299 74.2489C139.039 56.6321 125.359 43.8145 103.039 36.4985C96.9792 34.5086 95.1193 34.45 95.4792 36.0888C95.5992 36.6156 97.6992 37.6105 101.059 38.664C128.839 47.3847 143.239 65.0601 141.979 88.8809C141.379 100.06 137.719 106.966 125.899 118.73L122.059 122.534V135.703C122.059 144.131 121.819 148.872 121.459 148.813C121.159 148.813 118.579 148.052 115.699 147.175L110.599 145.594L106.099 147.701L101.659 149.75L101.479 141.731C101.419 137.283 101.119 133.479 100.879 133.245C100.639 133.069 97.2192 133.538 93.2593 134.357C83.2394 136.464 72.1995 136.464 62.3596 134.357C58.3396 133.479 55.2196 133.069 54.9196 133.362C54.6196 133.655 54.4396 137.459 54.4996 141.848L54.6196 149.808L49.6997 147.409L44.7797 144.95L39.9798 147.057C37.3398 148.228 35.1198 149.106 34.9998 148.989C34.8798 148.872 34.5798 142.785 34.3398 135.469C34.0998 125.929 33.7398 122.066 33.2598 121.891C32.8398 121.715 30.1399 118.964 27.1999 115.745C24.2599 112.526 21.1399 109.483 20.24 109.014C19.1 108.429 16.46 108.195 11.06 108.195H3.56011L3.44011 99.4159C3.38011 94.5581 3.32011 89.5247 3.26011 88.12V85.6618L8.36006 85.3692L13.46 85.0766L14 82.7354C15.86 74.1904 17.06 70.4446 19.76 65.0601L22.7599 58.9146L22.3399 46.6823C22.1599 39.9516 22.2199 34.45 22.4599 34.45C22.9399 34.45 27.4399 37.9032 34.8798 43.9901L37.7598 46.3312L43.2797 43.8145C46.3397 42.4098 51.5597 40.3028 54.8596 39.1908C58.9996 37.7276 60.9196 36.7911 61.0396 36.0303C61.2196 35.2694 60.8596 35.0353 59.6596 35.0353C57.7396 35.0353 47.8397 38.6055 42.3197 41.2978C38.7798 43.0536 38.1198 43.2292 37.2198 42.4683C33.9198 39.7175 22.3399 30.5287 21.8599 30.236C21.5599 30.0604 20.8999 30.0604 20.5399 30.1775Z" fill="#F0F1F5"/>
<path d="M55.8794 42.761C54.1994 44.3998 55.1594 44.868 60.7393 45.2777C63.7393 45.4533 73.3992 45.5703 82.1591 45.4533C97.159 45.2777 98.059 45.2192 98.239 44.1657C98.359 43.5804 98.119 42.8781 97.639 42.5854C96.319 41.766 56.7194 41.9416 55.8794 42.761Z" fill="url(#paint3_linear_378_773)" fill-opacity="0.6" style="mix-blend-mode:soft-light"/>
<path d="M55.8794 42.761C54.1994 44.3998 55.1594 44.868 60.7393 45.2777C63.7393 45.4533 73.3992 45.5703 82.1591 45.4533C97.159 45.2777 98.059 45.2192 98.239 44.1657C98.359 43.5804 98.119 42.8781 97.639 42.5854C96.319 41.766 56.7194 41.9416 55.8794 42.761Z" fill="#F0F1F5"/>
<path d="M151.579 62.3678C151.399 63.2457 151.039 65.2942 150.859 66.9329C150.499 69.3326 150.019 70.2105 147.979 72.0834C146.059 73.7807 145.699 74.4245 146.239 74.9512C147.379 76.0633 150.739 74.0148 152.359 71.2055C153.439 69.3326 153.619 68.2205 153.439 65.4112C153.139 61.4313 152.059 59.6755 151.579 62.3678Z" fill="url(#paint4_linear_378_773)" fill-opacity="0.6" style="mix-blend-mode:soft-light"/>
<path d="M151.579 62.3678C151.399 63.2457 151.039 65.2942 150.859 66.9329C150.499 69.3326 150.019 70.2105 147.979 72.0834C146.059 73.7807 145.699 74.4245 146.239 74.9512C147.379 76.0633 150.739 74.0148 152.359 71.2055C153.439 69.3326 153.619 68.2205 153.439 65.4112C153.139 61.4313 152.059 59.6755 151.579 62.3678Z" fill="#F0F1F5"/>
<path d="M26.1799 67.2255C23.2399 70.5616 23.3599 77.2923 26.3599 80.2187C27.3199 81.0966 28.5199 81.8575 29.0599 81.8575C32.1799 81.8575 34.3398 78.4629 34.3398 73.6636C34.3398 66.7573 29.7199 63.1286 26.1799 67.2255ZM31.0399 70.1519C32.0599 72.0833 31.6399 76.9997 30.3199 78.2288C29.3599 79.1652 29.1799 79.1652 28.0999 77.8191C26.0599 75.4194 27.0199 68.1035 29.2999 68.5131C29.8399 68.6302 30.5599 69.3325 31.0399 70.1519Z" fill="url(#paint5_linear_378_773)" fill-opacity="0.6" style="mix-blend-mode:soft-light"/>
<path d="M26.1799 67.2255C23.2399 70.5616 23.3599 77.2923 26.3599 80.2187C27.3199 81.0966 28.5199 81.8575 29.0599 81.8575C32.1799 81.8575 34.3398 78.4629 34.3398 73.6636C34.3398 66.7573 29.7199 63.1286 26.1799 67.2255ZM31.0399 70.1519C32.0599 72.0833 31.6399 76.9997 30.3199 78.2288C29.3599 79.1652 29.1799 79.1652 28.0999 77.8191C26.0599 75.4194 27.0199 68.1035 29.2999 68.5131C29.8399 68.6302 30.5599 69.3325 31.0399 70.1519Z" fill="#F0F1F5"/>
<path d="M5.95996 96.431C5.95996 103.162 6.01996 103.513 7.15995 103.513C8.35994 103.513 8.41994 103.22 8.23994 96.6651C8.05994 90.6367 7.93994 89.7588 7.03995 89.5832C6.07996 89.4077 5.95996 90.0515 5.95996 96.431Z" fill="url(#paint6_linear_378_773)" fill-opacity="0.6" style="mix-blend-mode:soft-light"/>
<path d="M5.95996 96.431C5.95996 103.162 6.01996 103.513 7.15995 103.513C8.35994 103.513 8.41994 103.22 8.23994 96.6651C8.05994 90.6367 7.93994 89.7588 7.03995 89.5832C6.07996 89.4077 5.95996 90.0515 5.95996 96.431Z" fill="#F0F1F5"/>
<path d="M36.6799 139.039C36.8599 139.976 37.6399 140.093 44.3598 140.093C50.5998 140.093 51.8598 139.976 51.8598 139.215C51.8598 138.512 50.5398 138.337 44.1798 138.161C37.0399 138.044 36.4999 138.103 36.6799 139.039Z" fill="url(#paint7_linear_378_773)" fill-opacity="0.6" style="mix-blend-mode:soft-light"/>
<path d="M36.6799 139.039C36.8599 139.976 37.6399 140.093 44.3598 140.093C50.5998 140.093 51.8598 139.976 51.8598 139.215C51.8598 138.512 50.5398 138.337 44.1798 138.161C37.0399 138.044 36.4999 138.103 36.6799 139.039Z" fill="#F0F1F5"/>
<path d="M103.399 138.688C102.559 140.034 104.479 140.444 111.919 140.268C118.699 140.093 119.659 139.976 119.839 139.039C120.019 138.161 119.359 138.044 111.919 138.044C106.759 138.044 103.699 138.278 103.399 138.688Z" fill="url(#paint8_linear_378_773)" fill-opacity="0.6" style="mix-blend-mode:soft-light"/>
<path d="M103.399 138.688C102.559 140.034 104.479 140.444 111.919 140.268C118.699 140.093 119.659 139.976 119.839 139.039C120.019 138.161 119.359 138.044 111.919 138.044C106.759 138.044 103.699 138.278 103.399 138.688Z" fill="#F0F1F5"/>
<defs>
<linearGradient id="paint0_linear_378_773" x1="97.9985" y1="4.95911e-05" x2="58.0067" y2="41.2251" gradientUnits="userSpaceOnUse">
<stop/>
<stop offset="1" stop-color="white" stop-opacity="0"/>
</linearGradient>
<linearGradient id="paint1_linear_378_773" x1="87.8861" y1="4.11777" x2="58.5398" y2="25.3876" gradientUnits="userSpaceOnUse">
<stop/>
<stop offset="1" stop-color="white" stop-opacity="0"/>
</linearGradient>
<linearGradient id="paint2_linear_378_773" x1="144.942" y1="30.0959" x2="23.6234" y2="172.676" gradientUnits="userSpaceOnUse">
<stop/>
<stop offset="1" stop-color="white" stop-opacity="0"/>
</linearGradient>
<linearGradient id="paint3_linear_378_773" x1="98.2696" y1="42.0517" x2="97.7216" y2="48.9053" gradientUnits="userSpaceOnUse">
<stop/>
<stop offset="1" stop-color="white" stop-opacity="0"/>
</linearGradient>
<linearGradient id="paint4_linear_378_773" x1="153.5" y1="61.0757" x2="141.788" y2="67.2592" gradientUnits="userSpaceOnUse">
<stop/>
<stop offset="1" stop-color="white" stop-opacity="0"/>
</linearGradient>
<linearGradient id="paint5_linear_378_773" x1="34.3398" y1="65.5019" x2="19.5904" y2="74.7894" gradientUnits="userSpaceOnUse">
<stop/>
<stop offset="1" stop-color="white" stop-opacity="0"/>
</linearGradient>
<linearGradient id="paint6_linear_378_773" x1="8.3159" y1="89.5592" x2="3.73462" y2="90.3327" gradientUnits="userSpaceOnUse">
<stop/>
<stop offset="1" stop-color="white" stop-opacity="0"/>
</linearGradient>
<linearGradient id="paint7_linear_378_773" x1="51.8598" y1="138.117" x2="51.3549" y2="142.003" gradientUnits="userSpaceOnUse">
<stop/>
<stop offset="1" stop-color="white" stop-opacity="0"/>
</linearGradient>
<linearGradient id="paint8_linear_378_773" x1="119.863" y1="138.044" x2="119.259" y2="142.487" gradientUnits="userSpaceOnUse">
<stop/>
<stop offset="1" stop-color="white" stop-opacity="0"/>
</linearGradient>
</defs>
</svg>
