<svg width="160" height="147" viewBox="0 0 160 147" fill="none" xmlns="http://www.w3.org/2000/svg">
<path d="M66.7553 0.754677C50.0221 4.46064 38.321 19.8225 39.5942 36.32C40.928 54.1923 55.8423 68 73.788 68C83.4278 68 91.6125 64.7125 98.3422 58.1374C111.438 45.3458 111.923 24.5446 99.4941 11.1553C91.1881 2.30879 78.1532 -1.81559 66.7553 0.754677ZM82.4578 3.80313C102.222 9.60117 111.498 30.2231 102.344 48.2149C96.7052 59.2731 84.3978 66.3263 72.0298 65.37C54.9329 64.1745 42.383 50.845 42.383 33.929C42.383 25.1423 45.0506 18.7465 51.2953 12.3508C57.7218 5.77566 64.4514 2.90653 73.6668 2.90653C77.0619 2.84675 80.3964 3.2054 82.4578 3.80313Z" fill="url(#paint0_linear_378_178)" fill-opacity="0.6" style="mix-blend-mode:soft-light"/>
<path d="M66.7553 0.754677C50.0221 4.46064 38.321 19.8225 39.5942 36.32C40.928 54.1923 55.8423 68 73.788 68C83.4278 68 91.6125 64.7125 98.3422 58.1374C111.438 45.3458 111.923 24.5446 99.4941 11.1553C91.1881 2.30879 78.1532 -1.81559 66.7553 0.754677ZM82.4578 3.80313C102.222 9.60117 111.498 30.2231 102.344 48.2149C96.7052 59.2731 84.3978 66.3263 72.0298 65.37C54.9329 64.1745 42.383 50.845 42.383 33.929C42.383 25.1423 45.0506 18.7465 51.2953 12.3508C57.7218 5.77566 64.4514 2.90653 73.6668 2.90653C77.0619 2.84675 80.3964 3.2054 82.4578 3.80313Z" fill="#F0F1F5"/>
<path d="M113.43 15.1643C112.283 16.3091 112.404 81.5039 113.551 82.468C114.094 82.95 120.796 83.1308 136.918 83.0103L159.5 82.8295V48.786V14.7425L136.857 14.5617C119.71 14.4412 113.974 14.622 113.43 15.1643ZM157.266 48.9065L157.386 80.7206H136.555H115.725V48.786V16.8514L136.435 16.9719L157.084 17.1527L157.266 48.9065Z" fill="url(#paint1_linear_378_178)" fill-opacity="0.6" style="mix-blend-mode:soft-light"/>
<path d="M113.43 15.1643C112.283 16.3091 112.404 81.5039 113.551 82.468C114.094 82.95 120.796 83.1308 136.918 83.0103L159.5 82.8295V48.786V14.7425L136.857 14.5617C119.71 14.4412 113.974 14.622 113.43 15.1643ZM157.266 48.9065L157.386 80.7206H136.555H115.725V48.786V16.8514L136.435 16.9719L157.084 17.1527L157.266 48.9065Z" fill="#F0F1F5"/>
<path d="M117.838 20.4666C116.872 22.0935 118.804 22.2743 135.348 22.2743C149.416 22.2743 152.496 22.1538 152.737 21.4307C152.918 20.9487 152.918 20.4064 152.737 20.2256C152.073 19.5628 118.26 19.8038 117.838 20.4666Z" fill="url(#paint2_linear_378_178)" fill-opacity="0.6" style="mix-blend-mode:soft-light"/>
<path d="M117.838 20.4666C116.872 22.0935 118.804 22.2743 135.348 22.2743C149.416 22.2743 152.496 22.1538 152.737 21.4307C152.918 20.9487 152.918 20.4064 152.737 20.2256C152.073 19.5628 118.26 19.8038 117.838 20.4666Z" fill="#F0F1F5"/>
<path d="M125.687 27.6971C124.781 29.2035 126.472 29.5048 136.012 29.5048C145.189 29.5048 145.974 29.4445 145.793 28.4202C145.612 27.5164 144.586 27.3959 135.831 27.2151C129.672 27.1549 125.928 27.2754 125.687 27.6971Z" fill="url(#paint3_linear_378_178)" fill-opacity="0.6" style="mix-blend-mode:soft-light"/>
<path d="M125.687 27.6971C124.781 29.2035 126.472 29.5048 136.012 29.5048C145.189 29.5048 145.974 29.4445 145.793 28.4202C145.612 27.5164 144.586 27.3959 135.831 27.2151C129.672 27.1549 125.928 27.2754 125.687 27.6971Z" fill="#F0F1F5"/>
<path d="M126.17 33.4815C125.566 35.1686 127.257 35.5301 135.65 35.5301C144.042 35.5301 145.733 35.1686 145.129 33.4815C144.827 32.6379 143.439 32.5174 135.65 32.5174C127.861 32.5174 126.472 32.6379 126.17 33.4815Z" fill="url(#paint4_linear_378_178)" fill-opacity="0.6" style="mix-blend-mode:soft-light"/>
<path d="M126.17 33.4815C125.566 35.1686 127.257 35.5301 135.65 35.5301C144.042 35.5301 145.733 35.1686 145.129 33.4815C144.827 32.6379 143.439 32.5174 135.65 32.5174C127.861 32.5174 126.472 32.6379 126.17 33.4815Z" fill="#F0F1F5"/>
<path d="M126.23 39.8082C125.385 41.2543 127.317 41.5555 136.012 41.435C143.982 41.2543 145.008 41.1337 145.19 40.1697C145.371 39.2056 144.646 39.1454 136.012 39.1454C129.914 39.1454 126.532 39.3864 126.23 39.8082Z" fill="url(#paint5_linear_378_178)" fill-opacity="0.6" style="mix-blend-mode:soft-light"/>
<path d="M126.23 39.8082C125.385 41.2543 127.317 41.5555 136.012 41.435C143.982 41.2543 145.008 41.1337 145.19 40.1697C145.371 39.2056 144.646 39.1454 136.012 39.1454C129.914 39.1454 126.532 39.3864 126.23 39.8082Z" fill="#F0F1F5"/>
<path d="M127.378 45.5323C126.11 46.0746 126.472 47.5207 127.981 47.8822C128.706 48.063 132.691 48.1233 136.857 48.063C143.922 47.8822 144.405 47.822 144.405 46.6772C144.405 45.5323 143.982 45.4721 136.253 45.3516C131.785 45.2913 127.74 45.4118 127.378 45.5323Z" fill="url(#paint6_linear_378_178)" fill-opacity="0.6" style="mix-blend-mode:soft-light"/>
<path d="M127.378 45.5323C126.11 46.0746 126.472 47.5207 127.981 47.8822C128.706 48.063 132.691 48.1233 136.857 48.063C143.922 47.8822 144.405 47.822 144.405 46.6772C144.405 45.5323 143.982 45.4721 136.253 45.3516C131.785 45.2913 127.74 45.4118 127.378 45.5323Z" fill="#F0F1F5"/>
<path d="M126.291 51.7988C125.385 53.2449 127.076 53.6064 135.408 53.6064C143.68 53.6064 144.103 53.5461 144.103 52.4013C144.103 51.2565 143.68 51.1962 135.408 51.1962C130.215 51.1962 126.532 51.4372 126.291 51.7988Z" fill="url(#paint7_linear_378_178)" fill-opacity="0.6" style="mix-blend-mode:soft-light"/>
<path d="M126.291 51.7988C125.385 53.2449 127.076 53.6064 135.408 53.6064C143.68 53.6064 144.103 53.5461 144.103 52.4013C144.103 51.2565 143.68 51.1962 135.408 51.1962C130.215 51.1962 126.532 51.4372 126.291 51.7988Z" fill="#F0F1F5"/>
<path d="M126.11 58.8485C126.291 59.8126 127.257 59.9331 135.952 59.9331C144.646 59.9331 145.612 59.8126 145.793 58.8485C145.975 57.8844 145.19 57.8242 135.952 57.8242C126.713 57.8242 125.929 57.8844 126.11 58.8485Z" fill="url(#paint8_linear_378_178)" fill-opacity="0.6" style="mix-blend-mode:soft-light"/>
<path d="M126.11 58.8485C126.291 59.8126 127.257 59.9331 135.952 59.9331C144.646 59.9331 145.612 59.8126 145.793 58.8485C145.975 57.8844 145.19 57.8242 135.952 57.8242C126.713 57.8242 125.929 57.8844 126.11 58.8485Z" fill="#F0F1F5"/>
<path d="M126.653 63.1868C126.17 63.488 125.989 64.1508 126.17 64.6931C126.472 65.5367 127.861 65.6572 135.348 65.6572C142.835 65.6572 144.223 65.5367 144.525 64.6931C145.129 63.0662 143.439 62.6445 135.348 62.6445C131.061 62.6445 127.136 62.8855 126.653 63.1868Z" fill="url(#paint9_linear_378_178)" fill-opacity="0.6" style="mix-blend-mode:soft-light"/>
<path d="M126.653 63.1868C126.17 63.488 125.989 64.1508 126.17 64.6931C126.472 65.5367 127.861 65.6572 135.348 65.6572C142.835 65.6572 144.223 65.5367 144.525 64.6931C145.129 63.0662 143.439 62.6445 135.348 62.6445C131.061 62.6445 127.136 62.8855 126.653 63.1868Z" fill="#F0F1F5"/>
<path d="M124.177 67.766C122.487 69.5737 121.702 69.6339 120.253 68.0673C119.045 66.7417 116.932 66.4405 116.932 67.5853C116.932 68.0071 117.656 69.0916 118.562 69.9954L120.192 71.6826L118.2 73.7312C116.328 75.6593 116.087 77.1054 117.717 77.1054C118.079 77.1054 119.226 76.2619 120.253 75.2978L122.125 73.4902L123.574 74.9965C125.023 76.5631 127.196 77.0452 127.196 75.7798C127.196 75.358 126.472 74.2735 125.566 73.3697L123.936 71.6826L125.627 69.9352C126.653 68.8506 127.196 67.766 127.015 67.2238C126.472 65.8982 125.808 66.0187 124.177 67.766Z" fill="url(#paint10_linear_378_178)" fill-opacity="0.6" style="mix-blend-mode:soft-light"/>
<path d="M124.177 67.766C122.487 69.5737 121.702 69.6339 120.253 68.0673C119.045 66.7417 116.932 66.4405 116.932 67.5853C116.932 68.0071 117.656 69.0916 118.562 69.9954L120.192 71.6826L118.2 73.7312C116.328 75.6593 116.087 77.1054 117.717 77.1054C118.079 77.1054 119.226 76.2619 120.253 75.2978L122.125 73.4902L123.574 74.9965C125.023 76.5631 127.196 77.0452 127.196 75.7798C127.196 75.358 126.472 74.2735 125.566 73.3697L123.936 71.6826L125.627 69.9352C126.653 68.8506 127.196 67.766 127.015 67.2238C126.472 65.8982 125.808 66.0187 124.177 67.766Z" fill="#F0F1F5"/>
<path d="M128.465 72.8274C127.74 73.3094 127.74 73.5504 128.344 74.3337C129.068 75.1773 131.001 75.2978 141.627 75.2978C148.45 75.2978 154.428 75.0568 154.911 74.7555C155.394 74.4542 155.575 73.7914 155.394 73.2492C155.032 72.4056 153.401 72.2851 142.171 72.2851C135.106 72.2851 128.948 72.5261 128.465 72.8274Z" fill="url(#paint11_linear_378_178)" fill-opacity="0.6" style="mix-blend-mode:soft-light"/>
<path d="M128.465 72.8274C127.74 73.3094 127.74 73.5504 128.344 74.3337C129.068 75.1773 131.001 75.2978 141.627 75.2978C148.45 75.2978 154.428 75.0568 154.911 74.7555C155.394 74.4542 155.575 73.7914 155.394 73.2492C155.032 72.4056 153.401 72.2851 142.171 72.2851C135.106 72.2851 128.948 72.5261 128.465 72.8274Z" fill="#F0F1F5"/>
<path d="M21.2305 38.0608C18.5134 39.5069 17.5473 43.0016 19.4191 44.5682C20.6267 45.5323 21.3512 44.8092 21.6531 42.4593C21.8947 40.1697 23.7664 39.6877 25.1552 41.6158C25.8193 42.4593 26.5439 42.8209 27.2081 42.5799C28.5968 42.0376 28.4156 41.0735 26.4231 39.0851C24.5514 37.2172 23.223 36.9762 21.2305 38.0608Z" fill="url(#paint12_linear_378_178)" fill-opacity="0.6" style="mix-blend-mode:soft-light"/>
<path d="M21.2305 38.0608C18.5134 39.5069 17.5473 43.0016 19.4191 44.5682C20.6267 45.5323 21.3512 44.8092 21.6531 42.4593C21.8947 40.1697 23.7664 39.6877 25.1552 41.6158C25.8193 42.4593 26.5439 42.8209 27.2081 42.5799C28.5968 42.0376 28.4156 41.0735 26.4231 39.0851C24.5514 37.2172 23.223 36.9762 21.2305 38.0608Z" fill="#F0F1F5"/>
<path d="M22.0157 45.4118C18.3929 46.4361 15.1928 47.6412 14.7701 48.0629C14.2871 48.545 13.9248 51.1962 13.8041 55.5947C13.6229 61.2586 13.8644 63.3072 15.1324 68.3083C17.1249 76.0208 18.3325 78.3707 20.7477 79.3348C22.378 79.9976 22.8006 79.9373 23.6459 79.0937C24.9139 77.8284 24.612 74.9362 22.4383 68.0673C21.5326 65.1148 20.6873 60.656 20.4458 57.5228C20.0835 53.1845 19.842 52.1 19.0571 51.9192C16.7023 51.4974 17.1853 59.6317 19.9628 69.3929C21.9553 76.2618 21.9553 76.0208 21.11 76.3221C19.6005 76.8643 16.0985 62.9457 16.1589 56.619C16.2796 49.8706 16.2192 49.9308 23.2233 47.8822C29.4424 46.0143 31.0122 45.1708 30.3481 44.0259C29.7443 43.1221 29.382 43.1824 22.0157 45.4118Z" fill="url(#paint13_linear_378_178)" fill-opacity="0.6" style="mix-blend-mode:soft-light"/>
<path d="M22.0157 45.4118C18.3929 46.4361 15.1928 47.6412 14.7701 48.0629C14.2871 48.545 13.9248 51.1962 13.8041 55.5947C13.6229 61.2586 13.8644 63.3072 15.1324 68.3083C17.1249 76.0208 18.3325 78.3707 20.7477 79.3348C22.378 79.9976 22.8006 79.9373 23.6459 79.0937C24.9139 77.8284 24.612 74.9362 22.4383 68.0673C21.5326 65.1148 20.6873 60.656 20.4458 57.5228C20.0835 53.1845 19.842 52.1 19.0571 51.9192C16.7023 51.4974 17.1853 59.6317 19.9628 69.3929C21.9553 76.2618 21.9553 76.0208 21.11 76.3221C19.6005 76.8643 16.0985 62.9457 16.1589 56.619C16.2796 49.8706 16.2192 49.9308 23.2233 47.8822C29.4424 46.0143 31.0122 45.1708 30.3481 44.0259C29.7443 43.1221 29.382 43.1824 22.0157 45.4118Z" fill="#F0F1F5"/>
<path d="M25.457 50.9552C20.7474 52.4013 20.7474 52.4013 22.9814 60.2343C24.0683 64.0303 25.7589 69.9955 26.6646 73.4902C28.1741 79.0938 28.7175 80.1181 31.1327 82.7091C36.1442 88.0717 37.231 87.8307 38.3782 81.3835L39.1631 77.1657L35.48 64.9341C33.4271 58.1857 31.4949 52.1 31.193 51.3167C30.5289 49.8104 29.6232 49.7501 25.457 50.9552ZM32.5818 64.6329C35.8423 75.4786 36.5668 79.2746 35.6611 81.5642C35.1177 83.0103 34.5139 82.7693 32.461 80.2387C31.0119 78.3708 29.9251 75.4183 27.3891 66.079L24.1286 54.2692L25.6985 53.6667C28.959 52.4616 28.8986 52.4013 32.5818 64.6329Z" fill="url(#paint14_linear_378_178)" fill-opacity="0.6" style="mix-blend-mode:soft-light"/>
<path d="M25.457 50.9552C20.7474 52.4013 20.7474 52.4013 22.9814 60.2343C24.0683 64.0303 25.7589 69.9955 26.6646 73.4902C28.1741 79.0938 28.7175 80.1181 31.1327 82.7091C36.1442 88.0717 37.231 87.8307 38.3782 81.3835L39.1631 77.1657L35.48 64.9341C33.4271 58.1857 31.4949 52.1 31.193 51.3167C30.5289 49.8104 29.6232 49.7501 25.457 50.9552ZM32.5818 64.6329C35.8423 75.4786 36.5668 79.2746 35.6611 81.5642C35.1177 83.0103 34.5139 82.7693 32.461 80.2387C31.0119 78.3708 29.9251 75.4183 27.3891 66.079L24.1286 54.2692L25.6985 53.6667C28.959 52.4616 28.8986 52.4013 32.5818 64.6329Z" fill="#F0F1F5"/>
<path d="M31.8572 77.2862C31.0119 78.3105 31.6157 78.913 33.3667 78.913C34.6346 78.913 35.7215 77.5874 34.9969 76.8644C34.3327 76.2016 32.5817 76.5029 31.8572 77.2862Z" fill="url(#paint15_linear_378_178)" fill-opacity="0.6" style="mix-blend-mode:soft-light"/>
<path d="M31.8572 77.2862C31.0119 78.3105 31.6157 78.913 33.3667 78.913C34.6346 78.913 35.7215 77.5874 34.9969 76.8644C34.3327 76.2016 32.5817 76.5029 31.8572 77.2862Z" fill="#F0F1F5"/>
<path d="M7.94697 57.7036C3.53927 60.415 1.06371 64.9943 0.580672 71.4415C0.158015 76.8644 1.36561 80.8411 4.68648 84.5166C9.45646 89.9395 16.5209 91.7471 23.9475 89.3369C27.2684 88.2524 30.9516 85.3602 30.2874 84.3359C29.6836 83.3718 27.8118 83.6731 26.6646 84.9384C26.0608 85.6012 24.0683 86.6255 22.2569 87.1075C14.2264 89.4574 6.49786 85.5409 3.72041 77.7682C2.5732 74.4542 2.5732 72.1043 3.78079 68.007C4.98838 63.97 7.10166 61.0778 9.81873 59.7522C11.0867 59.1497 11.8716 58.4267 11.7509 57.8844C11.449 56.4985 9.99987 56.4383 7.94697 57.7036Z" fill="url(#paint16_linear_378_178)" fill-opacity="0.6" style="mix-blend-mode:soft-light"/>
<path d="M7.94697 57.7036C3.53927 60.415 1.06371 64.9943 0.580672 71.4415C0.158015 76.8644 1.36561 80.8411 4.68648 84.5166C9.45646 89.9395 16.5209 91.7471 23.9475 89.3369C27.2684 88.2524 30.9516 85.3602 30.2874 84.3359C29.6836 83.3718 27.8118 83.6731 26.6646 84.9384C26.0608 85.6012 24.0683 86.6255 22.2569 87.1075C14.2264 89.4574 6.49786 85.5409 3.72041 77.7682C2.5732 74.4542 2.5732 72.1043 3.78079 68.007C4.98838 63.97 7.10166 61.0778 9.81873 59.7522C11.0867 59.1497 11.8716 58.4267 11.7509 57.8844C11.449 56.4985 9.99987 56.4383 7.94697 57.7036Z" fill="#F0F1F5"/>
<path d="M65.6701 70.1762C49.0657 73.1889 38.2578 82.4077 34.2124 97.0495C33.0652 101.327 33.0048 102.954 33.1256 124.164L33.3067 146.699L72.4326 146.879L111.498 147V124.284C111.498 98.7968 111.317 97.5315 107.211 88.6742C100.388 73.9722 84.3274 66.802 65.6701 70.1762ZM84.267 73.2491C93.5051 75.2978 100.751 81.2027 104.917 90.06C108.66 98.0738 109.083 101.388 109.083 124.405V144.59H72.2515H35.42V123.923C35.42 105.244 35.5407 102.774 36.6276 98.5558C38.2578 92.1689 41.0353 87.1075 45.3826 82.8295C49.6092 78.5515 54.4395 75.8401 60.9605 74.0927C69.9571 71.6223 75.995 71.3813 84.267 73.2491Z" fill="url(#paint17_linear_378_178)" fill-opacity="0.6" style="mix-blend-mode:soft-light"/>
<path d="M65.6701 70.1762C49.0657 73.1889 38.2578 82.4077 34.2124 97.0495C33.0652 101.327 33.0048 102.954 33.1256 124.164L33.3067 146.699L72.4326 146.879L111.498 147V124.284C111.498 98.7968 111.317 97.5315 107.211 88.6742C100.388 73.9722 84.3274 66.802 65.6701 70.1762ZM84.267 73.2491C93.5051 75.2978 100.751 81.2027 104.917 90.06C108.66 98.0738 109.083 101.388 109.083 124.405V144.59H72.2515H35.42V123.923C35.42 105.244 35.5407 102.774 36.6276 98.5558C38.2578 92.1689 41.0353 87.1075 45.3826 82.8295C49.6092 78.5515 54.4395 75.8401 60.9605 74.0927C69.9571 71.6223 75.995 71.3813 84.267 73.2491Z" fill="#F0F1F5"/>
<path d="M71.9493 83.2513C71.7682 83.6731 70.8625 86.2038 69.8964 88.855L68.1454 93.6753L63.4358 93.9765C60.6584 94.1573 58.6659 94.5791 58.5451 95.0009C58.4243 95.3624 59.9338 96.8085 61.9264 98.1943C63.9793 99.5199 65.6095 100.906 65.6095 101.207C65.6095 101.508 64.8246 103.979 63.8585 106.69C61.2622 113.921 61.6848 114.162 68.6285 109.281L73.4588 105.907L77.7458 109.04C81.5497 111.812 83.7234 112.475 83.7234 110.968C83.7234 110.667 83.0592 108.437 82.2139 106.027C81.3685 103.617 80.7044 101.448 80.7044 101.207C80.7044 100.966 81.912 99.9417 83.4215 98.8571C86.9838 96.2662 88.1311 95.1214 87.5273 94.5188C87.2857 94.2778 85.0517 93.9765 82.5761 93.856L78.1081 93.6753L76.2363 88.2524C74.9683 84.5167 74.0626 82.7693 73.2777 82.6488C72.7343 82.5283 72.1305 82.7693 71.9493 83.2513ZM74.9683 91.6869L76.3571 96.0854L79.4364 95.9047C81.127 95.7842 82.5158 95.9649 82.5158 96.2662C82.5158 96.5675 81.4289 97.5315 80.1006 98.3751L77.7458 100.002L78.9534 103.436C79.5572 105.304 80.0402 107.112 79.9798 107.353C79.8591 107.594 78.3496 106.75 76.5986 105.425L73.3985 103.015L70.0776 105.485C68.2058 106.811 66.5756 107.775 66.3944 107.594C66.2133 107.413 66.6963 105.606 67.4209 103.617C68.1454 101.629 68.6889 99.8814 68.5681 99.7609C68.4473 99.6404 67.2397 98.8571 65.9114 98.0136L63.4962 96.3867H66.636H69.7153L71.4059 91.5664C72.3116 88.9152 73.1569 86.8666 73.3381 86.9871C73.4588 87.1076 74.1834 89.2165 74.9683 91.6869Z" fill="url(#paint18_linear_378_178)" fill-opacity="0.6" style="mix-blend-mode:soft-light"/>
<path d="M71.9493 83.2513C71.7682 83.6731 70.8625 86.2038 69.8964 88.855L68.1454 93.6753L63.4358 93.9765C60.6584 94.1573 58.6659 94.5791 58.5451 95.0009C58.4243 95.3624 59.9338 96.8085 61.9264 98.1943C63.9793 99.5199 65.6095 100.906 65.6095 101.207C65.6095 101.508 64.8246 103.979 63.8585 106.69C61.2622 113.921 61.6848 114.162 68.6285 109.281L73.4588 105.907L77.7458 109.04C81.5497 111.812 83.7234 112.475 83.7234 110.968C83.7234 110.667 83.0592 108.437 82.2139 106.027C81.3685 103.617 80.7044 101.448 80.7044 101.207C80.7044 100.966 81.912 99.9417 83.4215 98.8571C86.9838 96.2662 88.1311 95.1214 87.5273 94.5188C87.2857 94.2778 85.0517 93.9765 82.5761 93.856L78.1081 93.6753L76.2363 88.2524C74.9683 84.5167 74.0626 82.7693 73.2777 82.6488C72.7343 82.5283 72.1305 82.7693 71.9493 83.2513ZM74.9683 91.6869L76.3571 96.0854L79.4364 95.9047C81.127 95.7842 82.5158 95.9649 82.5158 96.2662C82.5158 96.5675 81.4289 97.5315 80.1006 98.3751L77.7458 100.002L78.9534 103.436C79.5572 105.304 80.0402 107.112 79.9798 107.353C79.8591 107.594 78.3496 106.75 76.5986 105.425L73.3985 103.015L70.0776 105.485C68.2058 106.811 66.5756 107.775 66.3944 107.594C66.2133 107.413 66.6963 105.606 67.4209 103.617C68.1454 101.629 68.6889 99.8814 68.5681 99.7609C68.4473 99.6404 67.2397 98.8571 65.9114 98.0136L63.4962 96.3867H66.636H69.7153L71.4059 91.5664C72.3116 88.9152 73.1569 86.8666 73.3381 86.9871C73.4588 87.1076 74.1834 89.2165 74.9683 91.6869Z" fill="#F0F1F5"/>
<defs>
<linearGradient id="paint0_linear_378_178" x1="108.5" y1="0" x2="40.5068" y2="68.9926" gradientUnits="userSpaceOnUse">
<stop/>
<stop offset="1" stop-color="white" stop-opacity="0"/>
</linearGradient>
<linearGradient id="paint1_linear_378_178" x1="159.5" y1="14.5261" x2="95.6386" y2="58.2108" gradientUnits="userSpaceOnUse">
<stop/>
<stop offset="1" stop-color="white" stop-opacity="0"/>
</linearGradient>
<linearGradient id="paint2_linear_378_178" x1="152.873" y1="19.833" x2="152.536" y2="24.6922" gradientUnits="userSpaceOnUse">
<stop/>
<stop offset="1" stop-color="white" stop-opacity="0"/>
</linearGradient>
<linearGradient id="paint3_linear_378_178" x1="145.814" y1="27.2006" x2="145.299" y2="31.7506" gradientUnits="userSpaceOnUse">
<stop/>
<stop offset="1" stop-color="white" stop-opacity="0"/>
</linearGradient>
<linearGradient id="paint4_linear_378_178" x1="145.24" y1="32.5174" x2="144.316" y2="38.3977" gradientUnits="userSpaceOnUse">
<stop/>
<stop offset="1" stop-color="white" stop-opacity="0"/>
</linearGradient>
<linearGradient id="paint5_linear_378_178" x1="145.212" y1="39.1454" x2="144.661" y2="43.7062" gradientUnits="userSpaceOnUse">
<stop/>
<stop offset="1" stop-color="white" stop-opacity="0"/>
</linearGradient>
<linearGradient id="paint6_linear_378_178" x1="144.405" y1="45.3356" x2="143.575" y2="50.7074" gradientUnits="userSpaceOnUse">
<stop/>
<stop offset="1" stop-color="white" stop-opacity="0"/>
</linearGradient>
<linearGradient id="paint7_linear_378_178" x1="144.103" y1="51.1962" x2="143.47" y2="55.9319" gradientUnits="userSpaceOnUse">
<stop/>
<stop offset="1" stop-color="white" stop-opacity="0"/>
</linearGradient>
<linearGradient id="paint8_linear_378_178" x1="145.815" y1="57.8242" x2="145.369" y2="61.9943" gradientUnits="userSpaceOnUse">
<stop/>
<stop offset="1" stop-color="white" stop-opacity="0"/>
</linearGradient>
<linearGradient id="paint9_linear_378_178" x1="144.637" y1="62.6445" x2="143.682" y2="68.5148" gradientUnits="userSpaceOnUse">
<stop/>
<stop offset="1" stop-color="white" stop-opacity="0"/>
</linearGradient>
<linearGradient id="paint10_linear_378_178" x1="127.196" y1="66.3291" x2="116.422" y2="76.8924" gradientUnits="userSpaceOnUse">
<stop/>
<stop offset="1" stop-color="white" stop-opacity="0"/>
</linearGradient>
<linearGradient id="paint11_linear_378_178" x1="155.463" y1="72.2851" x2="154.812" y2="78.2393" gradientUnits="userSpaceOnUse">
<stop/>
<stop offset="1" stop-color="white" stop-opacity="0"/>
</linearGradient>
<linearGradient id="paint12_linear_378_178" x1="28.1095" y1="37.4146" x2="20.7611" y2="46.7936" gradientUnits="userSpaceOnUse">
<stop/>
<stop offset="1" stop-color="white" stop-opacity="0"/>
</linearGradient>
<linearGradient id="paint13_linear_378_178" x1="30.489" y1="43.4793" x2="2.8808" y2="56.2079" gradientUnits="userSpaceOnUse">
<stop/>
<stop offset="1" stop-color="white" stop-opacity="0"/>
</linearGradient>
<linearGradient id="paint14_linear_378_178" x1="39.1631" y1="50.113" x2="10.6061" y2="63.9533" gradientUnits="userSpaceOnUse">
<stop/>
<stop offset="1" stop-color="white" stop-opacity="0"/>
</linearGradient>
<linearGradient id="paint15_linear_378_178" x1="35.2295" y1="76.5" x2="33.0333" y2="79.9129" gradientUnits="userSpaceOnUse">
<stop/>
<stop offset="1" stop-color="white" stop-opacity="0"/>
</linearGradient>
<linearGradient id="paint16_linear_378_178" x1="30.3657" y1="56.7977" x2="-2.99076" y2="86.4593" gradientUnits="userSpaceOnUse">
<stop/>
<stop offset="1" stop-color="white" stop-opacity="0"/>
</linearGradient>
<linearGradient id="paint17_linear_378_178" x1="111.498" y1="69.3536" x2="33.8555" y2="147.766" gradientUnits="userSpaceOnUse">
<stop/>
<stop offset="1" stop-color="white" stop-opacity="0"/>
</linearGradient>
<linearGradient id="paint18_linear_378_178" x1="87.6802" y1="82.6181" x2="57.7204" y2="111.748" gradientUnits="userSpaceOnUse">
<stop/>
<stop offset="1" stop-color="white" stop-opacity="0"/>
</linearGradient>
</defs>
</svg>
