<svg width="65" height="65" viewBox="0 0 65 65" fill="none" xmlns="http://www.w3.org/2000/svg">
<path d="M26.1609 0.544129C18.8856 2.17911 13.7982 8.95639 14.3517 16.2347C14.9316 24.1195 21.4161 30.2112 29.2186 30.2112C33.4098 30.2112 36.9684 28.7608 39.8943 25.86C45.588 20.2167 45.7989 11.0397 40.3951 5.13263C36.7839 1.22977 31.1165 -0.589812 26.1609 0.544129ZM32.988 1.88904C41.5813 4.44699 45.6144 13.5449 41.634 21.4825C39.1826 26.3611 33.8316 29.4728 28.4542 29.0509C21.0207 28.5235 15.5643 22.6428 15.5643 15.1799C15.5643 11.3034 16.7241 8.48171 19.4391 5.66005C22.2333 2.75927 25.1592 1.49347 29.1659 1.49347C30.642 1.4671 32.0918 1.62533 32.988 1.88904Z" fill="white"/>
<path d="M46.1664 6.8947C45.6974 7.39927 45.7468 36.1332 46.2158 36.5581C46.4379 36.7706 49.1778 36.8503 55.7683 36.7971L64.9999 36.7175V21.7131V6.7088L55.7436 6.62913C48.7335 6.57602 46.3886 6.65569 46.1664 6.8947ZM64.0866 21.7663L64.136 35.788H55.6202H47.1044V21.7131V7.63827L55.5708 7.69139L64.0125 7.77106L64.0866 21.7663Z" fill="white"/>
<path d="M47.9685 9.23166C47.5735 9.94868 48.3634 10.0284 55.1267 10.0284C60.8779 10.0284 62.1368 9.97524 62.2355 9.65656C62.3095 9.44411 62.3095 9.2051 62.2355 9.12543C61.964 8.83331 48.1412 8.93954 47.9685 9.23166Z" fill="white"/>
<path d="M51.1771 12.4184C50.8068 13.0823 51.498 13.2151 55.398 13.2151C59.1498 13.2151 59.4707 13.1886 59.3967 12.7371C59.3226 12.3388 58.903 12.2856 55.3239 12.206C52.8062 12.1794 51.2758 12.2325 51.1771 12.4184Z" fill="white"/>
<path d="M51.3748 14.9678C51.128 15.7114 51.8191 15.8707 55.2501 15.8707C58.6811 15.8707 59.3723 15.7114 59.1254 14.9678C59.002 14.596 58.4343 14.5429 55.2501 14.5429C52.066 14.5429 51.4982 14.596 51.3748 14.9678Z" fill="white"/>
<path d="M51.3994 17.7562C51.0538 18.3936 51.8437 18.5264 55.3981 18.4733C58.6563 18.3936 59.0759 18.3405 59.15 17.9156C59.224 17.4907 58.9278 17.4641 55.3981 17.4641C52.905 17.4641 51.5228 17.5704 51.3994 17.7562Z" fill="white"/>
<path d="M51.8683 20.2791C51.35 20.5181 51.4981 21.1555 52.1152 21.3148C52.4114 21.3945 54.0405 21.421 55.7436 21.3945C58.6316 21.3148 58.8291 21.2883 58.8291 20.7837C58.8291 20.2791 58.6563 20.2526 55.4968 20.1995C53.6702 20.1729 52.0164 20.226 51.8683 20.2791Z" fill="white"/>
<path d="M51.424 23.041C51.0537 23.6783 51.7449 23.8377 55.1512 23.8377C58.5328 23.8377 58.7056 23.8111 58.7056 23.3065C58.7056 22.802 58.5328 22.7754 55.1512 22.7754C53.0284 22.7754 51.5227 22.8816 51.424 23.041Z" fill="white"/>
<path d="M51.35 26.1481C51.4241 26.573 51.819 26.6261 55.3734 26.6261C58.9278 26.6261 59.3228 26.573 59.3968 26.1481C59.4709 25.7232 59.15 25.6966 55.3734 25.6966C51.5969 25.6966 51.276 25.7232 51.35 26.1481Z" fill="white"/>
<path d="M51.5723 28.0601C51.3748 28.1929 51.3008 28.485 51.3748 28.724C51.4983 29.0958 52.066 29.1489 55.1267 29.1489C58.1875 29.1489 58.7552 29.0958 58.8786 28.724C59.1254 28.007 58.4343 27.8211 55.1267 27.8211C53.3742 27.8211 51.7698 27.9273 51.5723 28.0601Z" fill="white"/>
<path d="M50.5601 30.0784C49.869 30.8751 49.5481 30.9017 48.9557 30.2112C48.462 29.6269 47.5981 29.4942 47.5981 29.9987C47.5981 30.1846 47.8943 30.6626 48.2645 31.061L48.931 31.8046L48.1164 32.7075C47.3512 33.5573 47.2525 34.1946 47.919 34.1946C48.0671 34.1946 48.536 33.8229 48.9557 33.398L49.7209 32.6013L50.3133 33.2652C50.9057 33.9556 51.7943 34.1681 51.7943 33.6104C51.7943 33.4245 51.4981 32.9465 51.1278 32.5481L50.4614 31.8046L51.1525 31.0344C51.5721 30.5564 51.7943 30.0784 51.7202 29.8394C51.4981 29.2552 51.2265 29.3083 50.5601 30.0784Z" fill="white"/>
<path d="M52.3127 32.3091C52.0165 32.5216 52.0165 32.6278 52.2634 32.973C52.5596 33.3448 53.3494 33.3979 57.6937 33.3979C60.4829 33.3979 62.9266 33.2917 63.1241 33.1589C63.3215 33.0262 63.3956 32.734 63.3215 32.495C63.1734 32.1232 62.507 32.0701 57.9159 32.0701C55.0279 32.0701 52.5102 32.1764 52.3127 32.3091Z" fill="white"/>
<path d="M8.47508 16.9861C7.36432 17.6235 6.96939 19.1637 7.73457 19.8542C8.22824 20.2791 8.52444 19.9604 8.64786 18.9247C8.74659 17.9156 9.51178 17.7031 10.0795 18.5529C10.351 18.9247 10.6472 19.0841 10.9187 18.9778C11.4865 18.7388 11.4124 18.3139 10.5979 17.4376C9.83266 16.6143 9.28963 16.5081 8.47508 16.9861Z" fill="white"/>
<path d="M8.79574 20.226C7.31474 20.6774 6.00652 21.2086 5.83373 21.3945C5.63626 21.6069 5.48816 22.7754 5.4388 24.714C5.36475 27.2103 5.46348 28.1132 5.98183 30.3174C6.79639 33.7166 7.29005 34.7523 8.27739 35.1772C8.94384 35.4693 9.11663 35.4428 9.4622 35.071C9.98055 34.5133 9.85713 33.2386 8.96853 30.2112C8.59828 28.9099 8.25271 26.9447 8.15397 25.5638C8.00587 23.6517 7.90714 23.1737 7.58626 23.0941C6.6236 22.9082 6.82107 26.4933 7.95651 30.7954C8.77106 33.8228 8.77106 33.7166 8.42549 33.8494C7.80841 34.0884 6.37677 27.9539 6.40145 25.1655C6.45082 22.1911 6.42613 22.2177 9.28941 21.3148C11.8318 20.4915 12.4736 20.1198 12.2021 19.6152C11.9552 19.2168 11.8071 19.2434 8.79574 20.226Z" fill="white"/>
<path d="M10.2027 22.6692C8.27741 23.3066 8.27741 23.3066 9.1907 26.7589C9.635 28.4319 10.3261 31.061 10.6964 32.6013C11.3135 35.071 11.5356 35.5225 12.523 36.6644C14.5717 39.0279 15.016 38.9217 15.485 36.0802L15.8059 34.2212L14.3002 28.8303C13.4609 25.856 12.6711 23.1738 12.5476 22.8285C12.2761 22.1646 11.9059 22.1381 10.2027 22.6692ZM13.1154 28.6975C14.4483 33.4776 14.7445 35.1507 14.3742 36.1598C14.1521 36.7972 13.9052 36.691 13.066 35.5756C12.4736 34.7523 12.0293 33.4511 10.9926 29.3348L9.65968 24.1298L10.3015 23.8642C11.6344 23.3331 11.6097 23.3066 13.1154 28.6975Z" fill="white"/>
<path d="M12.8192 34.2743C12.4736 34.7258 12.7205 34.9913 13.4363 34.9913C13.9546 34.9913 14.3989 34.4071 14.1027 34.0884C13.8312 33.7963 13.1154 33.9291 12.8192 34.2743Z" fill="white"/>
<path d="M3.04456 25.6435C1.24267 26.8385 0.230646 28.8568 0.0331787 31.6983C-0.139605 34.0884 0.354063 35.8411 1.71165 37.4611C3.66164 39.8511 6.54961 40.6478 9.58567 39.5856C10.9433 39.1076 12.449 37.8328 12.1774 37.3814C11.9306 36.9565 11.1654 37.0893 10.6964 37.647C10.4496 37.9391 9.63504 38.3905 8.89453 38.603C5.61164 39.6387 2.45216 37.9125 1.31672 34.4867C0.847732 33.0261 0.847732 31.9905 1.3414 30.1846C1.83507 28.4053 2.69899 27.1306 3.80975 26.5464C4.3281 26.2808 4.64898 25.9622 4.59962 25.7232C4.4762 25.1124 3.8838 25.0858 3.04456 25.6435Z" fill="white"/>
<path d="M26.6418 31.1407C19.8539 32.4685 15.4356 36.5316 13.7818 42.9848C13.3128 44.8703 13.2881 45.5873 13.3375 54.9351L13.4115 64.8672L29.4064 64.9469L45.3766 65V54.9883C45.3766 43.7549 45.3025 43.1972 43.6241 39.2935C40.8348 32.8137 34.269 29.6535 26.6418 31.1407ZM34.2443 32.495C38.0209 33.3979 40.9829 36.0005 42.6861 39.9042C44.2165 43.4362 44.3892 44.8968 44.3892 55.0414V63.9377H29.3323H14.2754V54.8289C14.2754 46.5964 14.3248 45.5076 14.7691 43.6487C15.4356 40.8337 16.571 38.603 18.3482 36.7175C20.0761 34.832 22.0507 33.637 24.7165 32.8668C28.3944 31.778 30.8627 31.6718 34.2443 32.495Z" fill="white"/>
<path d="M29.2091 36.9034C29.135 37.0893 28.7648 38.2046 28.3698 39.3731L27.654 41.4976L25.7287 41.6304C24.5932 41.7101 23.7787 41.896 23.7293 42.0819C23.68 42.2412 24.297 42.8786 25.1116 43.4894C25.9508 44.0736 26.6173 44.6844 26.6173 44.8172C26.6173 44.95 26.2964 46.0388 25.9015 47.2338C24.8401 50.4206 25.0129 50.5268 27.8515 48.3757L29.8261 46.8886L31.5787 48.2695C33.1337 49.4911 34.0223 49.7832 34.0223 49.1193C34.0223 48.9865 33.7508 48.0039 33.4052 46.9417C33.0597 45.8794 32.7882 44.9234 32.7882 44.8172C32.7882 44.711 33.2818 44.2595 33.8989 43.7815C35.3552 42.6396 35.8242 42.135 35.5774 41.8694C35.4786 41.7632 34.5654 41.6304 33.5533 41.5773L31.7268 41.4976L30.9616 39.1076C30.4432 37.4611 30.073 36.6909 29.7521 36.6378C29.5299 36.5847 29.2831 36.6909 29.2091 36.9034ZM30.4432 40.6213L31.0109 42.5599L32.2698 42.4802C32.9609 42.4271 33.5287 42.5068 33.5287 42.6396C33.5287 42.7723 33.0844 43.1972 32.5413 43.569L31.5787 44.2861L32.0723 45.7998C32.3192 46.623 32.5166 47.4197 32.492 47.5259C32.4426 47.6322 31.8255 47.2604 31.1097 46.6761L29.8015 45.6139L28.4439 46.7027C27.6787 47.2869 27.0122 47.7118 26.9382 47.6322C26.8641 47.5525 27.0616 46.7558 27.3578 45.8794C27.654 45.0031 27.8761 44.2329 27.8268 44.1798C27.7774 44.1267 27.2837 43.7815 26.7407 43.4097L25.7534 42.6927H27.0369H28.2958L28.9869 40.5682C29.3572 39.3997 29.7027 38.4968 29.7768 38.5499C29.8261 38.603 30.1223 39.5325 30.4432 40.6213Z" fill="white"/>
</svg>
