<svg width="65" height="65" viewBox="0 0 65 65" fill="none" xmlns="http://www.w3.org/2000/svg">
<path d="M29.8491 0.363289C23.6805 2.55139 21.8962 9.96108 26.4589 14.5362C28.1667 16.2519 30.002 16.9978 32.653 16.9978C35.3039 16.9978 37.0882 16.2767 38.898 14.5113C43.1038 10.4086 41.8803 3.29733 36.5019 0.785989C34.6667 -0.0594119 31.6079 -0.25833 29.8491 0.363289ZM35.8392 1.80544C37.4196 2.52652 38.9235 3.96868 39.6372 5.4357C40.4529 7.15136 40.3764 10.1103 39.4843 11.8011C38.1078 14.3373 35.5588 15.8789 32.653 15.8789C30.6647 15.8789 29.0589 15.2821 27.5805 13.9892C25.8471 12.4724 25.1334 10.8313 25.1589 8.41947C25.1844 6.2065 25.6177 5.11245 27.0961 3.52111C29.4667 1.03464 32.7039 0.413018 35.8392 1.80544Z" fill="#80684B"/>
<path d="M31.7608 2.42707C31.6334 2.99896 31.4549 3.19788 31.0471 3.19788C29.3902 3.22274 27.3001 5.4357 27.6569 6.80326C27.8608 7.6238 29.1099 8.34488 30.6393 8.5438L31.8883 8.71785V10.707V12.6962L30.6138 12.5222C29.7216 12.3978 29.2118 12.4476 28.9569 12.6465C28.2942 13.1686 28.9824 13.6411 30.3844 13.6411C31.5059 13.6411 31.6843 13.7157 31.8883 14.2627C32.1686 15.0086 32.653 15.0832 32.8314 14.387C32.9588 13.8897 33.1882 13.7903 34.7176 13.5416C36.3745 13.2681 37.3941 11.7762 37.0627 10.1103C36.8843 9.14055 35.6608 8.14596 34.2588 7.79785L33.0353 7.49948L32.9588 5.80867L32.8824 4.11787L34.2588 4.26706C35.7627 4.41625 36.3745 4.19247 36.1451 3.62058C36.0431 3.34707 35.5588 3.19788 34.5137 3.14815C33.1882 3.07355 33.0353 3.02382 32.9079 2.45193C32.6784 1.53194 31.9647 1.50707 31.7608 2.42707ZM31.8883 5.95786V7.42488H31.0726C30.053 7.42488 28.9824 6.92759 28.8804 6.40543C28.702 5.53516 30.8942 3.94382 31.7098 4.36652C31.8118 4.41625 31.8883 5.13733 31.8883 5.95786ZM35.1255 9.3146C36.349 10.0605 36.1706 11.7265 34.8196 12.2984C33.0353 13.0194 32.9079 12.8951 32.9079 10.6324V8.61839L33.749 8.79244C34.1824 8.8919 34.8196 9.11569 35.1255 9.3146Z" fill="#80684B"/>
<path d="M8.51391 12.8205C8.25901 12.92 8.18254 14.387 8.18254 19.0118V25.0788L7.18843 27.0183C6.2708 28.8085 5.20022 31.842 4.71591 34.1545L4.4865 35.149L2.57475 35.2236C1.52966 35.2734 0.535555 35.4226 0.357125 35.5717C-0.101694 35.9447 -0.127184 46.4625 0.331635 46.9101C0.535555 47.109 1.78456 47.2084 4.25709 47.2084H7.87666L10.5786 50.0679L13.2805 52.9273V58.7705C13.2805 63.7932 13.3315 64.6386 13.6629 64.763C13.8923 64.8624 15.1413 64.4397 16.4413 63.8678L18.8119 62.8235L21.1314 63.9921C22.4059 64.6138 23.5785 65.0862 23.7314 64.9867C23.8844 64.8873 23.9863 63.4949 23.9863 61.3565C23.9863 58.8949 24.0628 57.9003 24.2922 57.9003C24.4451 57.9003 25.8471 58.1489 27.402 58.4224C29.747 58.87 30.8431 58.9446 33.8 58.8203C35.7627 58.7705 38.2607 58.5219 39.3568 58.2733C40.4528 58.0495 41.4214 57.9251 41.4979 57.9997C41.5999 58.0743 41.7018 59.6408 41.7783 61.4311C41.8293 63.2462 41.9567 64.8375 42.0587 64.937C42.1607 65.0365 43.2567 64.6635 44.5057 64.1165L46.7743 63.097L49.4253 63.8678C50.9037 64.2905 52.2547 64.5889 52.4586 64.5143C52.7135 64.4148 52.79 63.1965 52.79 58.5468V52.7284L54.7272 50.6646C55.7978 49.5209 57.1997 47.9047 57.837 47.0841C61.2526 42.6333 62.1703 37.6604 60.6664 31.5437C58.8566 24.0594 53.0449 18.614 43.5626 15.5059C40.9881 14.6605 40.1979 14.6356 40.3509 15.3318C40.4019 15.5556 41.294 15.9783 42.7214 16.4259C54.5233 20.1307 60.6409 27.6399 60.1056 37.7598C59.8507 42.509 58.2958 45.443 53.2743 50.4409L51.6429 52.0571V57.6516C51.6429 61.2322 51.541 63.2462 51.388 63.2213C51.2606 63.2213 50.1645 62.8981 48.941 62.5251L46.7743 61.8538L44.8626 62.7489L42.9763 63.6192L42.8999 60.2127C42.8744 58.323 42.7469 56.7068 42.645 56.6073C42.543 56.5327 41.0901 56.7316 39.4077 57.0797C35.1509 57.9749 30.4608 57.9749 26.2804 57.0797C24.5726 56.7068 23.2471 56.5327 23.1197 56.657C22.9922 56.7814 22.9157 58.3976 22.9412 60.2624L22.9922 63.644L20.902 62.6246L18.8119 61.5803L16.7727 62.4754C15.6511 62.9727 14.708 63.3457 14.657 63.2959C14.606 63.2462 14.4786 60.6603 14.3766 57.5522C14.2746 53.4992 14.1217 51.8582 13.9178 51.7836C13.7394 51.709 12.5923 50.5403 11.3433 49.1728C10.0943 47.8052 8.76881 46.5122 8.38646 46.3133C7.90215 46.0647 6.78059 45.9652 4.4865 45.9652H1.30025L1.24927 42.2355C1.22378 40.1717 1.19829 38.0334 1.1728 37.4366V36.3923L3.33945 36.268L5.5061 36.1436L5.73551 35.149C6.52569 31.5188 7.03549 29.9274 8.18254 27.6399L9.45704 25.0291L9.27861 19.8324C9.20214 16.9729 9.22763 14.6356 9.32959 14.6356C9.53351 14.6356 11.4453 16.1027 14.606 18.6886L15.8295 19.6832L18.1746 18.614C19.4746 18.0172 21.6922 17.1221 23.0942 16.6497C24.853 16.0281 25.6687 15.6302 25.7196 15.307C25.7961 14.9837 25.6432 14.8843 25.1334 14.8843C24.3177 14.8843 20.1118 16.401 17.7668 17.5448C16.2629 18.2907 15.9825 18.3653 15.6001 18.0421C14.1982 16.8735 9.27861 12.9697 9.07469 12.8454C8.94724 12.7708 8.66685 12.7708 8.51391 12.8205Z" fill="#80684B"/>
<path d="M23.5274 18.1664C22.8137 18.8626 23.2216 19.0616 25.5921 19.2356C26.8666 19.3102 30.9705 19.3599 34.692 19.3102C41.0645 19.2356 41.4469 19.2108 41.5234 18.7632C41.5743 18.5145 41.4724 18.2162 41.2685 18.0918C40.7077 17.7437 23.8843 17.8183 23.5274 18.1664Z" fill="#80684B"/>
<path d="M64.1841 26.4961C64.1077 26.8691 63.9547 27.7394 63.8783 28.4356C63.7253 29.455 63.5214 29.828 62.6547 30.6237C61.8391 31.3447 61.6861 31.6183 61.9155 31.842C62.3999 32.3145 63.8273 31.4442 64.5155 30.2507C64.9743 29.455 65.0508 28.9826 64.9743 27.7891C64.8469 26.0983 64.3881 25.3523 64.1841 26.4961Z" fill="#80684B"/>
<path d="M10.9101 28.5599C9.66114 29.9772 9.71212 32.8366 10.9866 34.0798C11.3945 34.4528 11.9043 34.7761 12.1337 34.7761C13.4591 34.7761 14.3768 33.3339 14.3768 31.295C14.3768 28.361 12.4141 26.8193 10.9101 28.5599ZM12.9748 29.8031C13.4082 30.6236 13.2297 32.7123 12.669 33.2344C12.2611 33.6323 12.1846 33.6323 11.7258 33.0604C10.8592 32.0409 11.267 28.9328 12.2356 29.1069C12.465 29.1566 12.7709 29.455 12.9748 29.8031Z" fill="#80684B"/>
<path d="M2.31982 40.9674C2.31982 43.8269 2.34531 43.976 2.82962 43.976C3.33942 43.976 3.36491 43.8517 3.28844 41.0669C3.21197 38.5058 3.16099 38.1328 2.77864 38.0582C2.3708 37.9836 2.31982 38.2572 2.31982 40.9674Z" fill="#80684B"/>
<path d="M15.3708 59.0689C15.4472 59.4668 15.7786 59.5165 18.6335 59.5165C21.2844 59.5165 21.8197 59.4668 21.8197 59.1435C21.8197 58.8452 21.259 58.7706 18.557 58.696C15.5237 58.6462 15.2943 58.6711 15.3708 59.0689Z" fill="#80684B"/>
<path d="M43.7154 58.9197C43.3586 59.4916 44.1743 59.6657 47.335 59.5911C50.2154 59.5165 50.6232 59.4668 50.6997 59.0689C50.7761 58.6959 50.4958 58.6462 47.335 58.6462C45.1429 58.6462 43.8429 58.7457 43.7154 58.9197Z" fill="#80684B"/>
</svg>
