<svg width="177" height="129" viewBox="0 0 177 129" fill="none" xmlns="http://www.w3.org/2000/svg">
<path d="M54.7007 0.272269C54.1695 0.556018 52.8118 2.03151 51.6312 3.62051C50.1555 5.60675 48.5618 6.912 46.2597 7.99025C42.8951 9.57924 42.5999 10.0332 41.0652 15.311C40.593 16.9 39.5305 19.4537 38.7041 21.0427C37.4055 23.483 36.6971 24.1072 33.3325 25.6394C30.3221 27.0582 29.2005 27.9094 28.079 29.8389C27.2526 31.2009 26.4853 32.7899 26.3082 33.4142C26.1311 34.0384 25.6589 35.6274 25.3047 36.9894C24.7734 39.0324 24.3012 39.5432 21.763 40.7917C18.0442 42.6076 16.8046 44.4236 16.7456 48.1124C16.7456 50.2689 16.9817 51.0066 17.6901 51.1769C18.4574 51.2904 18.6935 50.7229 18.9887 48.3961C19.4019 44.9344 19.8741 44.3669 23.2977 42.7211C26.4262 41.3024 27.2526 40.1674 28.1971 35.9679C29.1415 31.4847 30.6172 29.7254 35.1624 27.4554C38.527 25.8097 39.4124 25.0152 40.7701 22.6317C41.6555 21.0427 42.8361 18.1485 43.3673 16.1055C44.6069 11.6222 44.9611 11.1115 48.0896 9.80624C49.4472 9.29549 51.3361 7.87675 52.2215 6.74175C53.166 5.60675 54.3465 4.13126 54.8778 3.45026L55.8222 2.31526L57.8882 3.50701C59.3639 4.35826 60.8987 4.75551 63.0827 4.75551C65.798 4.75551 66.4473 4.98251 68.4543 6.74175C70.4612 8.44425 71.1696 8.72799 73.7668 8.72799C77.1314 8.72799 83.3884 10.09 85.2183 11.2817C86.2808 11.906 87.6384 15.1975 88.7009 19.6807C89.0551 21.0427 89.9405 21.667 94.6037 23.7667C100.211 26.3204 100.979 27.0582 102.336 31.7684C102.514 32.5629 104.048 33.5277 107.059 34.7762C111.781 36.7624 112.961 38.0109 113.552 41.4159C114.201 45.2181 114.378 45.4451 117.271 46.4666C118.805 47.0341 120.871 48.3961 121.934 49.4744C122.937 50.5526 124.059 51.2336 124.413 51.0066C126.302 49.9284 123.823 46.7504 119.455 44.7641C116.68 43.5156 116.208 43.0616 116.208 41.7564C116.208 40.9052 115.618 39.0324 114.85 37.6704C113.729 35.4572 112.961 34.8329 109.184 33.1304C105.17 31.2009 104.757 30.9172 103.576 28.1364C101.864 24.2775 101.451 23.937 95.9614 21.7805C92.1836 20.305 91.3572 19.6807 91.0621 18.489C89.6454 12.6437 88.3468 10.09 85.9856 8.95499C83.5065 7.7065 75.7738 5.8905 73.0585 5.8905C71.4647 5.8905 70.5793 5.49325 69.3987 4.18801C67.923 2.65576 67.4508 2.48551 64.2042 2.48551C61.666 2.48551 60.1313 2.20176 59.0688 1.46402C56.8257 -0.0114804 55.7632 -0.29523 54.7007 0.272269Z" fill="url(#paint0_linear_378_910)" fill-opacity="0.6" style="mix-blend-mode:soft-light"/>
<path d="M54.7007 0.272269C54.1695 0.556018 52.8118 2.03151 51.6312 3.62051C50.1555 5.60675 48.5618 6.912 46.2597 7.99025C42.8951 9.57924 42.5999 10.0332 41.0652 15.311C40.593 16.9 39.5305 19.4537 38.7041 21.0427C37.4055 23.483 36.6971 24.1072 33.3325 25.6394C30.3221 27.0582 29.2005 27.9094 28.079 29.8389C27.2526 31.2009 26.4853 32.7899 26.3082 33.4142C26.1311 34.0384 25.6589 35.6274 25.3047 36.9894C24.7734 39.0324 24.3012 39.5432 21.763 40.7917C18.0442 42.6076 16.8046 44.4236 16.7456 48.1124C16.7456 50.2689 16.9817 51.0066 17.6901 51.1769C18.4574 51.2904 18.6935 50.7229 18.9887 48.3961C19.4019 44.9344 19.8741 44.3669 23.2977 42.7211C26.4262 41.3024 27.2526 40.1674 28.1971 35.9679C29.1415 31.4847 30.6172 29.7254 35.1624 27.4554C38.527 25.8097 39.4124 25.0152 40.7701 22.6317C41.6555 21.0427 42.8361 18.1485 43.3673 16.1055C44.6069 11.6222 44.9611 11.1115 48.0896 9.80624C49.4472 9.29549 51.3361 7.87675 52.2215 6.74175C53.166 5.60675 54.3465 4.13126 54.8778 3.45026L55.8222 2.31526L57.8882 3.50701C59.3639 4.35826 60.8987 4.75551 63.0827 4.75551C65.798 4.75551 66.4473 4.98251 68.4543 6.74175C70.4612 8.44425 71.1696 8.72799 73.7668 8.72799C77.1314 8.72799 83.3884 10.09 85.2183 11.2817C86.2808 11.906 87.6384 15.1975 88.7009 19.6807C89.0551 21.0427 89.9405 21.667 94.6037 23.7667C100.211 26.3204 100.979 27.0582 102.336 31.7684C102.514 32.5629 104.048 33.5277 107.059 34.7762C111.781 36.7624 112.961 38.0109 113.552 41.4159C114.201 45.2181 114.378 45.4451 117.271 46.4666C118.805 47.0341 120.871 48.3961 121.934 49.4744C122.937 50.5526 124.059 51.2336 124.413 51.0066C126.302 49.9284 123.823 46.7504 119.455 44.7641C116.68 43.5156 116.208 43.0616 116.208 41.7564C116.208 40.9052 115.618 39.0324 114.85 37.6704C113.729 35.4572 112.961 34.8329 109.184 33.1304C105.17 31.2009 104.757 30.9172 103.576 28.1364C101.864 24.2775 101.451 23.937 95.9614 21.7805C92.1836 20.305 91.3572 19.6807 91.0621 18.489C89.6454 12.6437 88.3468 10.09 85.9856 8.95499C83.5065 7.7065 75.7738 5.8905 73.0585 5.8905C71.4647 5.8905 70.5793 5.49325 69.3987 4.18801C67.923 2.65576 67.4508 2.48551 64.2042 2.48551C61.666 2.48551 60.1313 2.20176 59.0688 1.46402C56.8257 -0.0114804 55.7632 -0.29523 54.7007 0.272269Z" fill="#F0F1F5"/>
<path d="M74.7776 13.1147C73.1668 13.6003 70.8997 14.268 69.8258 14.5108C67.4393 15.1785 67.0814 15.482 67.6183 16.3317C68.1553 17.2422 70.8997 17.1815 73.8827 16.0889C77.88 14.6322 78.8942 14.875 80.6841 17.6064C82.3546 20.1557 83.2495 20.6413 83.7864 19.1239C84.2041 18.092 81.4 13.6003 79.7891 12.6898C78.4766 12.0221 78.4766 12.0221 74.7776 13.1147Z" fill="url(#paint1_linear_378_910)" fill-opacity="0.6" style="mix-blend-mode:soft-light"/>
<path d="M74.7776 13.1147C73.1668 13.6003 70.8997 14.268 69.8258 14.5108C67.4393 15.1785 67.0814 15.482 67.6183 16.3317C68.1553 17.2422 70.8997 17.1815 73.8827 16.0889C77.88 14.6322 78.8942 14.875 80.6841 17.6064C82.3546 20.1557 83.2495 20.6413 83.7864 19.1239C84.2041 18.092 81.4 13.6003 79.7891 12.6898C78.4766 12.0221 78.4766 12.0221 74.7776 13.1147Z" fill="#F0F1F5"/>
<path d="M50.7341 20.9002C46.9755 21.0216 46.3788 21.2037 46.5578 22.1142C46.7368 22.964 47.5721 23.2067 51.3307 23.3281C55.7456 23.5102 55.9843 23.5709 56.9985 25.2705C58.0127 27.0914 60.1605 27.7591 60.1605 26.3024C60.1605 25.0277 57.2968 21.2037 56.1632 20.9609C55.5666 20.8395 53.1205 20.7788 50.7341 20.9002Z" fill="url(#paint2_linear_378_910)" fill-opacity="0.6" style="mix-blend-mode:soft-light"/>
<path d="M50.7341 20.9002C46.9755 21.0216 46.3788 21.2037 46.5578 22.1142C46.7368 22.964 47.5721 23.2067 51.3307 23.3281C55.7456 23.5102 55.9843 23.5709 56.9985 25.2705C58.0127 27.0914 60.1605 27.7591 60.1605 26.3024C60.1605 25.0277 57.2968 21.2037 56.1632 20.9609C55.5666 20.8395 53.1205 20.7788 50.7341 20.9002Z" fill="#F0F1F5"/>
<path d="M78.7748 34.9822C76.448 36.4389 73.8826 41.2948 74.9565 42.3874C75.6724 43.1158 77.4622 42.0839 77.4622 40.8092C77.4622 40.445 78.1185 39.2918 78.8941 38.3206C80.326 36.5603 80.5049 36.4996 86.7693 36.1962C92.3178 35.9534 93.2724 35.7713 93.4514 34.8001C93.6304 33.8896 93.0337 33.7682 87.187 33.7682C81.8175 33.7682 80.4453 33.9503 78.7748 34.9822Z" fill="url(#paint3_linear_378_910)" fill-opacity="0.6" style="mix-blend-mode:soft-light"/>
<path d="M78.7748 34.9822C76.448 36.4389 73.8826 41.2948 74.9565 42.3874C75.6724 43.1158 77.4622 42.0839 77.4622 40.8092C77.4622 40.445 78.1185 39.2918 78.8941 38.3206C80.326 36.5603 80.5049 36.4996 86.7693 36.1962C92.3178 35.9534 93.2724 35.7713 93.4514 34.8001C93.6304 33.8896 93.0337 33.7682 87.187 33.7682C81.8175 33.7682 80.4453 33.9503 78.7748 34.9822Z" fill="#F0F1F5"/>
<path d="M160.033 36.9247C157.348 37.5924 154.425 41.1736 154.425 43.7229C154.425 48.2146 159.138 48.943 163.016 45.0583C165.462 42.509 166.118 40.2024 164.925 38.3208C163.851 36.6819 162.479 36.257 160.033 36.9247ZM162.777 40.3238C162.777 41.8413 159.735 44.6941 158.124 44.6941C156.274 44.6941 156.453 43.1159 158.541 40.9915C160.57 38.9884 162.777 38.6243 162.777 40.3238Z" fill="url(#paint4_linear_378_910)" fill-opacity="0.6" style="mix-blend-mode:soft-light"/>
<path d="M160.033 36.9247C157.348 37.5924 154.425 41.1736 154.425 43.7229C154.425 48.2146 159.138 48.943 163.016 45.0583C165.462 42.509 166.118 40.2024 164.925 38.3208C163.851 36.6819 162.479 36.257 160.033 36.9247ZM162.777 40.3238C162.777 41.8413 159.735 44.6941 158.124 44.6941C156.274 44.6941 156.453 43.1159 158.541 40.9915C160.57 38.9884 162.777 38.6243 162.777 40.3238Z" fill="#F0F1F5"/>
<path d="M47.8706 37.3495C43.0381 37.7744 41.9045 38.5027 39.5778 42.7516C36.5947 48.1538 38.6232 48.8822 42.0835 43.6014L44.3506 40.1416L49.6008 39.7774C54.7913 39.4132 56.5215 38.7455 55.7459 37.4709C55.3283 36.8032 54.851 36.7425 47.8706 37.3495Z" fill="url(#paint5_linear_378_910)" fill-opacity="0.6" style="mix-blend-mode:soft-light"/>
<path d="M47.8706 37.3495C43.0381 37.7744 41.9045 38.5027 39.5778 42.7516C36.5947 48.1538 38.6232 48.8822 42.0835 43.6014L44.3506 40.1416L49.6008 39.7774C54.7913 39.4132 56.5215 38.7455 55.7459 37.4709C55.3283 36.8032 54.851 36.7425 47.8706 37.3495Z" fill="#F0F1F5"/>
<path d="M94.9796 41.8695C93.9057 43.1442 95.2183 43.9332 97.724 43.5084C99.9911 43.1442 102.378 44.2974 104.824 46.9075C106.614 48.7891 107.568 48.8498 107.568 47.0289C107.568 45.9363 104.525 42.7193 102.378 41.566C100.409 40.5341 95.9342 40.7162 94.9796 41.8695Z" fill="url(#paint6_linear_378_910)" fill-opacity="0.6" style="mix-blend-mode:soft-light"/>
<path d="M94.9796 41.8695C93.9057 43.1442 95.2183 43.9332 97.724 43.5084C99.9911 43.1442 102.378 44.2974 104.824 46.9075C106.614 48.7891 107.568 48.8498 107.568 47.0289C107.568 45.9363 104.525 42.7193 102.378 41.566C100.409 40.5341 95.9342 40.7162 94.9796 41.8695Z" fill="#F0F1F5"/>
<path d="M168.923 43.4801C164.15 46.4543 164.03 53.1918 168.803 53.1918C171.965 53.1918 176.5 48.7001 176.5 45.5438C176.5 42.4482 172.383 41.2949 168.923 43.4801ZM173.516 45.908C173.516 47.6683 170.891 50.1569 169.042 50.1569C168.207 50.1569 167.55 49.9748 167.55 49.6713C167.61 48.5787 169.281 46.2722 170.593 45.5438C172.622 44.3906 173.516 44.512 173.516 45.908Z" fill="url(#paint7_linear_378_910)" fill-opacity="0.6" style="mix-blend-mode:soft-light"/>
<path d="M168.923 43.4801C164.15 46.4543 164.03 53.1918 168.803 53.1918C171.965 53.1918 176.5 48.7001 176.5 45.5438C176.5 42.4482 172.383 41.2949 168.923 43.4801ZM173.516 45.908C173.516 47.6683 170.891 50.1569 169.042 50.1569C168.207 50.1569 167.55 49.9748 167.55 49.6713C167.61 48.5787 169.281 46.2722 170.593 45.5438C172.622 44.3906 173.516 44.512 173.516 45.908Z" fill="#F0F1F5"/>
<path d="M139.569 56.8336C130.68 63.6925 126.981 66.9095 126.981 67.7593C126.981 68.427 127.16 68.9733 127.339 68.9733C128.174 68.9733 131.038 66.9702 141.837 58.5331C152.576 50.1567 155.618 47.1218 153.053 47.1218C152.576 47.1218 146.49 51.4921 139.569 56.8336Z" fill="url(#paint8_linear_378_910)" fill-opacity="0.6" style="mix-blend-mode:soft-light"/>
<path d="M139.569 56.8336C130.68 63.6925 126.981 66.9095 126.981 67.7593C126.981 68.427 127.16 68.9733 127.339 68.9733C128.174 68.9733 131.038 66.9702 141.837 58.5331C152.576 50.1567 155.618 47.1218 153.053 47.1218C152.576 47.1218 146.49 51.4921 139.569 56.8336Z" fill="#F0F1F5"/>
<path d="M15.5938 53.0096C13.2074 53.9808 15.4148 55.9839 34.1484 69.8231C48.8846 80.6881 53.9558 84.1479 55.2684 84.1479C57.1178 84.1479 119.881 75.8323 120.12 75.5288C121.492 74.1327 132.947 54.0415 132.708 53.4345C132.41 52.7061 123.222 52.5847 74.3599 52.6454C42.4412 52.6454 15.9518 52.8275 15.5938 53.0096ZM128.771 55.6197C128.771 56.0446 119.165 72.251 118.449 72.9794C118.27 73.1615 59.3253 81.0523 56.4019 81.2951C54.7911 81.4165 52.0467 79.5956 37.3104 68.6698L20.0684 55.9232L67.1409 55.6197C92.9741 55.4376 117.435 55.2555 121.492 55.1341C125.907 55.0734 128.771 55.2555 128.771 55.6197Z" fill="url(#paint9_linear_378_910)" fill-opacity="0.6" style="mix-blend-mode:soft-light"/>
<path d="M15.5938 53.0096C13.2074 53.9808 15.4148 55.9839 34.1484 69.8231C48.8846 80.6881 53.9558 84.1479 55.2684 84.1479C57.1178 84.1479 119.881 75.8323 120.12 75.5288C121.492 74.1327 132.947 54.0415 132.708 53.4345C132.41 52.7061 123.222 52.5847 74.3599 52.6454C42.4412 52.6454 15.9518 52.8275 15.5938 53.0096ZM128.771 55.6197C128.771 56.0446 119.165 72.251 118.449 72.9794C118.27 73.1615 59.3253 81.0523 56.4019 81.2951C54.7911 81.4165 52.0467 79.5956 37.3104 68.6698L20.0684 55.9232L67.1409 55.6197C92.9741 55.4376 117.435 55.2555 121.492 55.1341C125.907 55.0734 128.771 55.2555 128.771 55.6197Z" fill="#F0F1F5"/>
<path d="M146.908 64.4818C138.078 71.0372 130.739 76.6215 130.56 76.925C130.382 77.1678 111.767 79.8992 89.2154 82.9341C66.6636 85.9691 47.572 88.7005 46.7368 89.004C45.9612 89.3075 39.6968 92.828 32.8954 96.7734L20.4859 103.997L12.9687 105.271C8.85205 106 5.33205 106.607 5.09341 106.607C4.85476 106.607 4.85476 105.757 5.09341 104.786C5.33205 103.39 5.21273 102.965 4.4968 102.965C3.24392 102.965 0.499512 106.667 0.499512 108.306C0.499512 110.066 2.0507 110.066 12.9687 108.124L21.5598 106.607L34.7449 98.8978L47.93 91.2498L89.0961 85.7263L130.262 80.2027L147.445 67.5167C163.613 55.5591 165.88 53.5561 163.613 52.767C163.314 52.6456 155.797 57.9264 146.908 64.4818Z" fill="url(#paint10_linear_378_910)" fill-opacity="0.6" style="mix-blend-mode:soft-light"/>
<path d="M146.908 64.4818C138.078 71.0372 130.739 76.6215 130.56 76.925C130.382 77.1678 111.767 79.8992 89.2154 82.9341C66.6636 85.9691 47.572 88.7005 46.7368 89.004C45.9612 89.3075 39.6968 92.828 32.8954 96.7734L20.4859 103.997L12.9687 105.271C8.85205 106 5.33205 106.607 5.09341 106.607C4.85476 106.607 4.85476 105.757 5.09341 104.786C5.33205 103.39 5.21273 102.965 4.4968 102.965C3.24392 102.965 0.499512 106.667 0.499512 108.306C0.499512 110.066 2.0507 110.066 12.9687 108.124L21.5598 106.607L34.7449 98.8978L47.93 91.2498L89.0961 85.7263L130.262 80.2027L147.445 67.5167C163.613 55.5591 165.88 53.5561 163.613 52.767C163.314 52.6456 155.797 57.9264 146.908 64.4818Z" fill="#F0F1F5"/>
<path d="M23.9467 77.4104C17.8016 79.6563 12.1935 84.8156 9.74736 90.4606C8.97177 92.1601 8.01719 95.5592 7.65922 98.0479C7.00295 101.993 7.06261 102.6 7.89787 103.511C9.27007 104.846 9.80702 103.875 10.2246 99.3226C11.2389 89.5501 17.2646 82.2056 26.3928 79.5349C32.9555 77.6532 41.1887 79.6563 46.4985 84.5121C49.8992 87.5471 50.6151 87.7898 50.6151 85.7261C50.6151 84.0872 47.6918 81.1737 44.1718 79.3528C37.967 76.1357 29.6145 75.3467 23.9467 77.4104Z" fill="url(#paint11_linear_378_910)" fill-opacity="0.6" style="mix-blend-mode:soft-light"/>
<path d="M23.9467 77.4104C17.8016 79.6563 12.1935 84.8156 9.74736 90.4606C8.97177 92.1601 8.01719 95.5592 7.65922 98.0479C7.00295 101.993 7.06261 102.6 7.89787 103.511C9.27007 104.846 9.80702 103.875 10.2246 99.3226C11.2389 89.5501 17.2646 82.2056 26.3928 79.5349C32.9555 77.6532 41.1887 79.6563 46.4985 84.5121C49.8992 87.5471 50.6151 87.7898 50.6151 85.7261C50.6151 84.0872 47.6918 81.1737 44.1718 79.3528C37.967 76.1357 29.6145 75.3467 23.9467 77.4104Z" fill="#F0F1F5"/>
<path d="M110.157 85.1799C108.844 85.5441 108.844 85.5441 106.995 98.3515L105.384 109.156L107.83 115.651C109.202 119.171 110.276 122.449 110.276 122.874C110.276 123.42 107.949 123.602 100.73 123.602H91.244L78.5959 107.213C69.945 96.0449 65.5898 90.8249 64.8142 90.8249C64.0386 90.8249 63.7403 91.1891 63.8596 91.796C64.1579 93.3742 88.9769 125.241 90.4088 125.969C92.3179 126.88 112.424 126.091 113.319 125.059C113.736 124.513 113.14 122.267 111.171 117.047C109.679 113.101 108.486 108.913 108.546 107.76C108.546 106.606 109.142 101.751 109.858 96.8947L111.171 88.1541L113.557 87.4258C114.87 87.0616 115.944 86.3939 115.944 85.9083C115.944 85.0585 112.245 84.5729 110.157 85.1799Z" fill="url(#paint12_linear_378_910)" fill-opacity="0.6" style="mix-blend-mode:soft-light"/>
<path d="M110.157 85.1799C108.844 85.5441 108.844 85.5441 106.995 98.3515L105.384 109.156L107.83 115.651C109.202 119.171 110.276 122.449 110.276 122.874C110.276 123.42 107.949 123.602 100.73 123.602H91.244L78.5959 107.213C69.945 96.0449 65.5898 90.8249 64.8142 90.8249C64.0386 90.8249 63.7403 91.1891 63.8596 91.796C64.1579 93.3742 88.9769 125.241 90.4088 125.969C92.3179 126.88 112.424 126.091 113.319 125.059C113.736 124.513 113.14 122.267 111.171 117.047C109.679 113.101 108.486 108.913 108.546 107.76C108.546 106.606 109.142 101.751 109.858 96.8947L111.171 88.1541L113.557 87.4258C114.87 87.0616 115.944 86.3939 115.944 85.9083C115.944 85.0585 112.245 84.5729 110.157 85.1799Z" fill="#F0F1F5"/>
<path d="M104.131 85.7869C103.952 86.0904 102.997 90.6427 101.923 95.9235C100.253 104.543 100.074 105.999 100.67 108.974C101.028 110.795 101.148 112.433 100.969 112.616C100.79 112.798 98.4628 113.101 95.7781 113.162L90.8859 113.405L81.3998 101.508C75.1354 93.617 71.5557 89.6109 70.9591 89.7323C70.4222 89.8537 70.0642 90.3999 70.0642 90.9462C70.1239 91.8567 87.6642 114.012 89.633 115.651C90.2296 116.197 92.1388 116.197 96.852 115.833C103.355 115.286 104.668 114.679 103.952 112.676C102.818 109.581 103.116 103.511 104.727 95.3772C105.682 90.6427 106.398 86.5152 106.219 86.0904C105.98 85.3013 104.548 85.1192 104.131 85.7869Z" fill="url(#paint13_linear_378_910)" fill-opacity="0.6" style="mix-blend-mode:soft-light"/>
<path d="M104.131 85.7869C103.952 86.0904 102.997 90.6427 101.923 95.9235C100.253 104.543 100.074 105.999 100.67 108.974C101.028 110.795 101.148 112.433 100.969 112.616C100.79 112.798 98.4628 113.101 95.7781 113.162L90.8859 113.405L81.3998 101.508C75.1354 93.617 71.5557 89.6109 70.9591 89.7323C70.4222 89.8537 70.0642 90.3999 70.0642 90.9462C70.1239 91.8567 87.6642 114.012 89.633 115.651C90.2296 116.197 92.1388 116.197 96.852 115.833C103.355 115.286 104.668 114.679 103.952 112.676C102.818 109.581 103.116 103.511 104.727 95.3772C105.682 90.6427 106.398 86.5152 106.219 86.0904C105.98 85.3013 104.548 85.1192 104.131 85.7869Z" fill="#F0F1F5"/>
<path d="M25.4976 88.2757C23.0515 89.5503 21.8583 90.7036 20.3667 93.1923C18.2189 96.8342 17.324 100.78 18.3979 102.054C19.5315 103.45 20.7844 102.418 20.7844 100.173C20.7844 95.8023 24.6027 90.8857 29.0176 89.611C32.2393 88.7006 33.6115 88.822 36.9525 90.2787C39.0406 91.2499 40.1145 91.432 40.5918 90.9464C41.4867 90.0359 40.6515 89.0041 37.8474 87.7294C34.0888 86.0298 29.3755 86.2119 25.4976 88.2757Z" fill="url(#paint14_linear_378_910)" fill-opacity="0.6" style="mix-blend-mode:soft-light"/>
<path d="M25.4976 88.2757C23.0515 89.5503 21.8583 90.7036 20.3667 93.1923C18.2189 96.8342 17.324 100.78 18.3979 102.054C19.5315 103.45 20.7844 102.418 20.7844 100.173C20.7844 95.8023 24.6027 90.8857 29.0176 89.611C32.2393 88.7006 33.6115 88.822 36.9525 90.2787C39.0406 91.2499 40.1145 91.432 40.5918 90.9464C41.4867 90.0359 40.6515 89.0041 37.8474 87.7294C34.0888 86.0298 29.3755 86.2119 25.4976 88.2757Z" fill="#F0F1F5"/>
<path d="M52.4046 94.2847C52.4046 94.8917 52.8222 96.7126 53.2995 98.3515C55.4473 105.514 53.6575 113.041 48.4073 118.746C41.248 126.637 30.688 128.64 21.7985 123.723C18.5171 121.902 13.5653 116.682 11.7754 113.223C10.4629 110.613 8.85205 110.066 8.85205 112.251C8.85205 115.893 16.5483 124.391 22.2758 127.001C29.4948 130.4 39.3985 129.368 46.1998 124.634C50.0778 121.963 54.2541 116.258 55.6859 111.766C57.1775 107.031 57.1775 100.658 55.6263 96.5912C54.4331 93.5563 52.4046 92.0388 52.4046 94.2847Z" fill="url(#paint15_linear_378_910)" fill-opacity="0.6" style="mix-blend-mode:soft-light"/>
<path d="M52.4046 94.2847C52.4046 94.8917 52.8222 96.7126 53.2995 98.3515C55.4473 105.514 53.6575 113.041 48.4073 118.746C41.248 126.637 30.688 128.64 21.7985 123.723C18.5171 121.902 13.5653 116.682 11.7754 113.223C10.4629 110.613 8.85205 110.066 8.85205 112.251C8.85205 115.893 16.5483 124.391 22.2758 127.001C29.4948 130.4 39.3985 129.368 46.1998 124.634C50.0778 121.963 54.2541 116.258 55.6859 111.766C57.1775 107.031 57.1775 100.658 55.6263 96.5912C54.4331 93.5563 52.4046 92.0388 52.4046 94.2847Z" fill="#F0F1F5"/>
<path d="M42.5008 96.4696C42.3219 96.9552 42.5008 98.594 42.8588 100.172C44.3503 107.092 39.0405 113.89 32.1198 113.89C29.2561 113.89 25.3185 111.948 23.7076 109.702C22.6337 108.245 22.2161 108.002 21.2615 108.488C20.1876 109.095 20.1876 109.156 21.2019 110.977C22.8724 113.829 27.5856 116.318 31.4636 116.318C37.9069 116.318 42.3815 113.526 44.8276 107.881C46.4981 103.996 45.7225 95.6805 43.6941 95.6805C43.2168 95.6805 42.6798 96.0447 42.5008 96.4696Z" fill="url(#paint16_linear_378_910)" fill-opacity="0.6" style="mix-blend-mode:soft-light"/>
<path d="M42.5008 96.4696C42.3219 96.9552 42.5008 98.594 42.8588 100.172C44.3503 107.092 39.0405 113.89 32.1198 113.89C29.2561 113.89 25.3185 111.948 23.7076 109.702C22.6337 108.245 22.2161 108.002 21.2615 108.488C20.1876 109.095 20.1876 109.156 21.2019 110.977C22.8724 113.829 27.5856 116.318 31.4636 116.318C37.9069 116.318 42.3815 113.526 44.8276 107.881C46.4981 103.996 45.7225 95.6805 43.6941 95.6805C43.2168 95.6805 42.6798 96.0447 42.5008 96.4696Z" fill="#F0F1F5"/>
<path d="M104.369 117.107C103.295 119.96 103.355 122.388 104.548 122.388C105.443 122.388 106.696 119.414 106.696 117.168C106.696 115.286 105.026 115.286 104.369 117.107Z" fill="url(#paint17_linear_378_910)" fill-opacity="0.6" style="mix-blend-mode:soft-light"/>
<path d="M104.369 117.107C103.295 119.96 103.355 122.388 104.548 122.388C105.443 122.388 106.696 119.414 106.696 117.168C106.696 115.286 105.026 115.286 104.369 117.107Z" fill="#F0F1F5"/>
<defs>
<linearGradient id="paint0_linear_378_910" x1="125.053" y1="1.52588e-05" x2="85.4998" y2="83.6864" gradientUnits="userSpaceOnUse">
<stop/>
<stop offset="1" stop-color="white" stop-opacity="0"/>
</linearGradient>
<linearGradient id="paint1_linear_378_910" x1="83.8283" y1="12.2325" x2="77.8467" y2="24.911" gradientUnits="userSpaceOnUse">
<stop/>
<stop offset="1" stop-color="white" stop-opacity="0"/>
</linearGradient>
<linearGradient id="paint2_linear_378_910" x1="60.1605" y1="20.834" x2="55.4095" y2="31.1756" gradientUnits="userSpaceOnUse">
<stop/>
<stop offset="1" stop-color="white" stop-opacity="0"/>
</linearGradient>
<linearGradient id="paint3_linear_378_910" x1="93.4776" y1="33.7682" x2="86.6369" y2="48.2612" gradientUnits="userSpaceOnUse">
<stop/>
<stop offset="1" stop-color="white" stop-opacity="0"/>
</linearGradient>
<linearGradient id="paint4_linear_378_910" x1="165.505" y1="36.6221" x2="154.548" y2="47.7011" gradientUnits="userSpaceOnUse">
<stop/>
<stop offset="1" stop-color="white" stop-opacity="0"/>
</linearGradient>
<linearGradient id="paint5_linear_378_910" x1="55.9225" y1="36.9297" x2="47.0229" y2="52.3391" gradientUnits="userSpaceOnUse">
<stop/>
<stop offset="1" stop-color="white" stop-opacity="0"/>
</linearGradient>
<linearGradient id="paint6_linear_378_910" x1="107.568" y1="40.8882" x2="101.107" y2="52.1045" gradientUnits="userSpaceOnUse">
<stop/>
<stop offset="1" stop-color="white" stop-opacity="0"/>
</linearGradient>
<linearGradient id="paint7_linear_378_910" x1="176.5" y1="42.3526" x2="165.667" y2="53.5628" gradientUnits="userSpaceOnUse">
<stop/>
<stop offset="1" stop-color="white" stop-opacity="0"/>
</linearGradient>
<linearGradient id="paint8_linear_378_910" x1="153.909" y1="47.1218" x2="132.526" y2="73.4732" gradientUnits="userSpaceOnUse">
<stop/>
<stop offset="1" stop-color="white" stop-opacity="0"/>
</linearGradient>
<linearGradient id="paint9_linear_378_910" x1="132.712" y1="52.6318" x2="116.987" y2="111.461" gradientUnits="userSpaceOnUse">
<stop/>
<stop offset="1" stop-color="white" stop-opacity="0"/>
</linearGradient>
<linearGradient id="paint10_linear_378_910" x1="164.355" y1="52.7649" x2="129.156" y2="154.234" gradientUnits="userSpaceOnUse">
<stop/>
<stop offset="1" stop-color="white" stop-opacity="0"/>
</linearGradient>
<linearGradient id="paint11_linear_378_910" x1="50.6151" y1="76.2697" x2="25.3712" y2="115.69" gradientUnits="userSpaceOnUse">
<stop/>
<stop offset="1" stop-color="white" stop-opacity="0"/>
</linearGradient>
<linearGradient id="paint12_linear_378_910" x1="115.944" y1="84.9087" x2="75.5432" y2="135.686" gradientUnits="userSpaceOnUse">
<stop/>
<stop offset="1" stop-color="white" stop-opacity="0"/>
</linearGradient>
<linearGradient id="paint13_linear_378_910" x1="106.246" y1="85.3773" x2="75.9456" y2="121.078" gradientUnits="userSpaceOnUse">
<stop/>
<stop offset="1" stop-color="white" stop-opacity="0"/>
</linearGradient>
<linearGradient id="paint14_linear_378_910" x1="40.935" y1="86.5781" x2="25.7922" y2="108.189" gradientUnits="userSpaceOnUse">
<stop/>
<stop offset="1" stop-color="white" stop-opacity="0"/>
</linearGradient>
<linearGradient id="paint15_linear_378_910" x1="56.7972" y1="93.2101" x2="22.4845" y2="139.176" gradientUnits="userSpaceOnUse">
<stop/>
<stop offset="1" stop-color="white" stop-opacity="0"/>
</linearGradient>
<linearGradient id="paint16_linear_378_910" x1="45.7379" y1="95.6805" x2="25.5196" y2="120.456" gradientUnits="userSpaceOnUse">
<stop/>
<stop offset="1" stop-color="white" stop-opacity="0"/>
</linearGradient>
<linearGradient id="paint17_linear_378_910" x1="106.696" y1="115.749" x2="101.617" y2="118.113" gradientUnits="userSpaceOnUse">
<stop/>
<stop offset="1" stop-color="white" stop-opacity="0"/>
</linearGradient>
</defs>
</svg>
