<svg width="65" height="63" viewBox="0 0 65 63" fill="none" xmlns="http://www.w3.org/2000/svg">
<path d="M20.0175 0.132961C19.8213 0.271536 19.3199 0.992127 18.8839 1.76815C18.3389 2.73817 17.7503 3.37562 16.9001 3.90221C15.6575 4.67823 15.5485 4.89995 14.9817 7.47745C14.8073 8.25347 14.4149 9.50064 14.1097 10.2767C13.6301 11.4684 13.3685 11.7733 12.1258 12.5216C11.014 13.2145 10.5998 13.6302 10.1856 14.5725C9.88043 15.2377 9.59703 16.0137 9.53163 16.3185C9.46623 16.6234 9.29183 17.3994 9.16103 18.0646C8.96482 19.0623 8.79042 19.3118 7.85301 19.9215C6.4796 20.8084 6.0218 21.6953 6 23.4967C6 24.5499 6.0872 24.9102 6.3488 24.9933C6.63221 25.0488 6.71941 24.7716 6.82841 23.6353C6.98101 21.9447 7.15541 21.6675 8.41982 20.8638C9.57523 20.1709 9.88043 19.6166 10.2292 17.5657C10.578 15.3762 11.123 14.5171 12.8017 13.4085C14.0443 12.6047 14.3713 12.2167 14.8727 11.0527C15.1997 10.2767 15.6357 8.8632 15.8319 7.86546C16.2897 5.67597 16.4205 5.42653 17.5759 4.78909C18.0773 4.53965 18.7749 3.84678 19.1019 3.29247C19.4507 2.73817 19.8867 2.01758 20.0829 1.685L20.4317 1.1307L21.1947 1.71272C21.7397 2.12844 22.3065 2.32245 23.1131 2.32245C24.1159 2.32245 24.3557 2.43331 25.097 3.29247C25.8382 4.12393 26.0998 4.2625 27.059 4.2625C28.3016 4.2625 30.6124 4.92766 31.2882 5.50968C31.6806 5.81454 32.182 7.42202 32.5744 9.6115C32.7052 10.2767 33.0322 10.5815 34.7544 11.607C36.8254 12.8542 37.1089 13.2145 37.6103 15.5148C37.6757 15.9028 38.2425 16.374 39.3543 16.9837C41.0983 17.9537 41.5343 18.5635 41.7523 20.2264C41.9921 22.0833 42.0575 22.1941 43.1257 22.693C43.6925 22.9702 44.4555 23.6353 44.8479 24.1619C45.2185 24.6885 45.6327 25.0211 45.7635 24.9102C46.4611 24.3836 45.5455 22.8316 43.9323 21.8616C42.9077 21.2518 42.7333 21.0301 42.7333 20.3927C42.7333 19.9769 42.5153 19.0623 42.2319 18.3972C41.8177 17.3163 41.5343 17.0114 40.1391 16.18C38.6567 15.2377 38.5041 15.0991 38.0681 13.741C37.4359 11.8564 37.2833 11.6901 35.2558 10.637C33.8606 9.91637 33.5554 9.6115 33.4464 9.02949C32.9232 6.17484 32.4436 4.92766 31.5716 4.37336C30.656 3.76363 27.8002 2.87675 26.7974 2.87675C26.2088 2.87675 25.8818 2.68274 25.4458 2.0453C24.9008 1.29699 24.7264 1.21385 23.5273 1.21385C22.5899 1.21385 22.0231 1.07527 21.6307 0.714977C20.8023 -0.00561439 20.4099 -0.14419 20.0175 0.132961Z" fill="#80684B"/>
<path d="M27.4324 6.40486C26.8375 6.64201 26.0002 6.96808 25.6036 7.08666C24.7222 7.41274 24.59 7.56095 24.7883 7.97596C24.9866 8.42061 26.0002 8.39097 27.1019 7.85739C28.5781 7.14594 28.9527 7.26452 29.6137 8.59847C30.2307 9.8435 30.5612 10.0806 30.7595 9.33956C30.9137 8.83562 29.8781 6.64201 29.2832 6.19735C28.7985 5.87128 28.7985 5.87128 27.4324 6.40486Z" fill="#80684B"/>
<path d="M18.5525 10.2071C17.1643 10.2664 16.944 10.3553 17.0101 10.8C17.0762 11.215 17.3847 11.3335 18.7728 11.3928C20.4033 11.4818 20.4915 11.5114 20.866 12.3414C21.2406 13.2307 22.0338 13.5568 22.0338 12.8454C22.0338 12.2228 20.9762 10.3553 20.5576 10.2367C20.3372 10.1774 19.4338 10.1478 18.5525 10.2071Z" fill="#80684B"/>
<path d="M28.9085 17.0843C28.0491 17.7958 27.1017 20.1672 27.4983 20.7008C27.7627 21.0565 28.4237 20.5526 28.4237 19.9301C28.4237 19.7522 28.6661 19.189 28.9525 18.7147C29.4813 17.855 29.5474 17.8254 31.861 17.6772C33.9102 17.5586 34.2627 17.4697 34.3288 16.9954C34.3949 16.5507 34.1746 16.4914 32.0152 16.4914C30.0322 16.4914 29.5254 16.5804 28.9085 17.0843Z" fill="#80684B"/>
<path d="M58.9186 18.033C57.9271 18.3591 56.8474 20.1081 56.8474 21.3531C56.8474 23.5467 58.5881 23.9024 60.0203 22.0052C60.9237 20.7602 61.1661 19.6338 60.7254 18.7148C60.3288 17.9144 59.822 17.7069 58.9186 18.033ZM59.9322 19.693C59.9322 20.4341 58.8084 21.8274 58.2135 21.8274C57.5305 21.8274 57.5966 21.0566 58.3678 20.0191C59.1169 19.0409 59.9322 18.863 59.9322 19.693Z" fill="#80684B"/>
<path d="M17.495 18.2404C15.7102 18.4479 15.2916 18.8036 14.4323 20.8787C13.3306 23.5169 14.0797 23.8727 15.3577 21.2937L16.195 19.604L18.134 19.4261C20.0509 19.2483 20.6899 18.9222 20.4034 18.2997C20.2492 17.9736 20.0729 17.944 17.495 18.2404Z" fill="#80684B"/>
<path d="M34.8933 20.4479C34.4967 21.0704 34.9814 21.4558 35.9068 21.2483C36.7441 21.0704 37.6255 21.6336 38.5289 22.9083C39.1899 23.8273 39.5424 23.8569 39.5424 22.9676C39.5424 22.434 38.4187 20.8629 37.6255 20.2997C36.8983 19.7957 35.2458 19.8847 34.8933 20.4479Z" fill="#80684B"/>
<path d="M62.2017 21.2345C60.439 22.687 60.3949 25.9774 62.1576 25.9774C63.3254 25.9774 65 23.7838 65 22.2423C65 20.7305 63.4797 20.1673 62.2017 21.2345ZM63.8983 22.4202C63.8983 23.2799 62.9288 24.4952 62.2458 24.4952C61.9373 24.4952 61.6949 24.4063 61.6949 24.2581C61.717 23.7245 62.3339 22.5981 62.8186 22.2423C63.5678 21.6791 63.8983 21.7384 63.8983 22.4202Z" fill="#80684B"/>
<path d="M51.3611 27.7559C48.078 31.1057 46.7119 32.6768 46.7119 33.0918C46.7119 33.4178 46.778 33.6846 46.8441 33.6846C47.1526 33.6846 48.2102 32.7064 52.1984 28.586C56.1645 24.4952 57.2882 23.013 56.3407 23.013C56.1645 23.013 53.917 25.1473 51.3611 27.7559Z" fill="#80684B"/>
<path d="M5.57459 25.8884C4.69324 26.3627 5.50849 27.341 12.4271 34.0997C17.8695 39.4058 19.7424 41.0955 20.2271 41.0955C20.9102 41.0955 44.0898 37.0344 44.178 36.8862C44.6848 36.2044 48.9153 26.3924 48.8271 26.0959C48.717 25.7402 45.3237 25.6809 27.278 25.7106C15.4898 25.7106 5.7068 25.7995 5.57459 25.8884ZM47.3729 27.1631C47.3729 27.3706 43.8254 35.2854 43.561 35.6411C43.4949 35.7301 21.7254 39.5837 20.6458 39.7023C20.0509 39.7616 19.0373 38.8723 13.5949 33.5364L7.22713 27.3113L24.6119 27.1631C34.1526 27.0742 43.1865 26.9852 44.6848 26.926C46.3153 26.8963 47.3729 26.9852 47.3729 27.1631Z" fill="#80684B"/>
<path d="M54.0712 31.4911C50.8102 34.6926 48.1 37.4198 48.0339 37.568C47.9678 37.6866 41.0932 39.0205 32.7644 40.5027C24.4356 41.9849 17.3847 43.3188 17.0763 43.4671C16.7898 43.6153 14.4763 45.3346 11.9644 47.2614L7.38136 50.789L4.60508 51.4115C3.08475 51.7672 1.78475 52.0637 1.69661 52.0637C1.60847 52.0637 1.60847 51.6486 1.69661 51.1744C1.78475 50.4926 1.74068 50.285 1.47627 50.285C1.01356 50.285 0 52.0933 0 52.8937C0 53.7533 0.572881 53.7533 4.60508 52.8047L7.77797 52.0637L12.6475 48.2989L17.5169 44.5639L32.7203 41.8663L47.9237 39.1688L54.2695 32.9733C60.2407 27.1335 61.078 26.1553 60.2407 25.7699C60.1305 25.7106 57.3542 28.2896 54.0712 31.4911Z" fill="#80684B"/>
<path d="M8.65931 37.8051C6.38982 38.9019 4.31864 41.4216 3.41525 44.1784C3.12881 45.0084 2.77626 46.6685 2.64406 47.8839C2.40169 49.8107 2.42372 50.1071 2.7322 50.5518C3.23898 51.2039 3.43728 50.7296 3.59152 48.5064C3.96609 43.7338 6.19152 40.1469 9.5627 38.8426C11.9864 37.9237 15.0271 38.9019 16.9881 41.2734C18.2441 42.7555 18.5085 42.8741 18.5085 41.8662C18.5085 41.0659 17.4288 39.643 16.1288 38.7537C13.8373 37.1826 10.7525 36.7972 8.65931 37.8051Z" fill="#80684B"/>
<path d="M40.4983 41.5995C40.0136 41.7774 40.0136 41.7774 39.3305 48.0321L38.7356 53.3087L39.639 56.4805C40.1458 58.1998 40.5424 59.8006 40.5424 60.0081C40.5424 60.2749 39.6831 60.3638 37.017 60.3638H33.5136L28.8424 52.3601C25.6475 46.9057 24.039 44.3564 23.7525 44.3564C23.4661 44.3564 23.3559 44.5342 23.4 44.8306C23.5102 45.6014 32.6763 61.1642 33.2051 61.5199C33.9102 61.9646 41.3356 61.5792 41.6661 61.0753C41.8203 60.8085 41.6 59.7117 40.8729 57.1623C40.322 55.2355 39.8814 53.1901 39.9034 52.6269C39.9034 52.0636 40.1237 49.6922 40.3881 47.3207L40.8729 43.052L41.7542 42.6963C42.239 42.5185 42.6356 42.1924 42.6356 41.9552C42.6356 41.5402 41.2695 41.3031 40.4983 41.5995Z" fill="#80684B"/>
<path d="M38.273 41.8959C38.2069 42.0441 37.8544 44.2674 37.4578 46.8464C36.8408 51.0557 36.7747 51.7672 36.995 53.2197C37.1272 54.109 37.1713 54.9094 37.1052 54.9983C37.0391 55.0872 36.1798 55.2354 35.1883 55.2651L33.3815 55.3837L29.8781 49.5736C27.5645 45.7199 26.2425 43.7634 26.0222 43.8227C25.8239 43.882 25.6917 44.1488 25.6917 44.4156C25.7137 44.8602 32.1916 55.6801 32.9188 56.4805C33.1391 56.7473 33.8442 56.7473 35.5849 56.5694C37.9866 56.3026 38.4713 56.0062 38.2069 55.0279C37.7883 53.5161 37.8984 50.5518 38.4933 46.5796C38.8459 44.2674 39.1103 42.2516 39.0442 42.0441C38.9561 41.6588 38.4272 41.5698 38.273 41.8959Z" fill="#80684B"/>
<path d="M9.23223 43.1114C8.32884 43.7339 7.88816 44.2971 7.33731 45.5125C6.54409 47.2911 6.21359 49.2179 6.6102 49.8404C7.02884 50.5222 7.49155 50.0183 7.49155 48.9215C7.49155 46.7872 8.90172 44.386 10.5322 43.7635C11.7221 43.3189 12.2288 43.3782 13.4627 44.0896C14.2339 44.5639 14.6305 44.6528 14.8068 44.4157C15.1373 43.971 14.8288 43.4671 13.7932 42.8446C12.4051 42.0146 10.6644 42.1035 9.23223 43.1114Z" fill="#80684B"/>
<path d="M19.1695 46.046C19.1695 46.3424 19.3237 47.2317 19.5 48.0321C20.2932 51.53 19.6322 55.2058 17.6932 57.9923C15.0491 61.846 11.1491 62.8242 7.86607 60.4231C6.65421 59.5338 4.82539 56.9844 4.16438 55.2948C3.67963 54.0201 3.08472 53.7533 3.08472 54.8205C3.08472 56.5991 5.92709 60.7492 8.04234 62.0238C10.7084 63.6839 14.3661 63.1799 16.8779 60.8677C18.3101 59.5634 19.8525 56.7769 20.3813 54.5833C20.9322 52.2711 20.9322 49.1586 20.3593 47.1725C19.9186 45.6903 19.1695 44.9492 19.1695 46.046Z" fill="#80684B"/>
<path d="M15.512 47.1131C15.4459 47.3502 15.512 48.1506 15.6442 48.9213C16.1951 52.3007 14.234 55.6207 11.6781 55.6207C10.6205 55.6207 9.16625 54.6721 8.57134 53.5753C8.17473 52.8639 8.02049 52.7453 7.66795 52.9825C7.27134 53.2789 7.27134 53.3085 7.64591 54.1978C8.26286 55.5911 10.0035 56.8065 11.4357 56.8065C13.8154 56.8065 15.4679 55.4429 16.3713 52.686C16.9883 50.7888 16.7018 46.7277 15.9527 46.7277C15.7764 46.7277 15.5781 46.9055 15.512 47.1131Z" fill="#80684B"/>
<path d="M38.3609 57.1919C37.9643 58.5851 37.9863 59.7709 38.427 59.7709C38.7575 59.7709 39.2202 58.3183 39.2202 57.2215C39.2202 56.3026 38.6033 56.3026 38.3609 57.1919Z" fill="#80684B"/>
</svg>
