<svg width="65" height="65" viewBox="0 0 65 65" fill="none" xmlns="http://www.w3.org/2000/svg">
<path d="M27.1051 0.458907C26.7797 0.701295 26.5007 1.03182 26.5007 1.18607C26.5007 1.36235 25.8033 1.86916 24.9665 2.3319C22.0374 3.9625 19.6198 7.13557 18.7132 10.5731C18.4575 11.5206 18.1088 12.2257 17.6439 12.6664C16.8535 13.4597 16.8535 13.5037 17.3417 13.9665C17.6672 14.275 19.3641 14.319 32.5447 14.319C40.7042 14.319 47.5385 14.2529 47.7478 14.1868C48.3289 13.9665 48.1894 13.1953 47.4223 12.4461C46.9341 11.9613 46.6552 11.4104 46.4925 10.507C45.7253 6.69487 43.5867 3.60994 40.7042 2.22172C40.1927 1.9573 39.7511 1.67084 39.7511 1.56067C39.7511 1.45049 39.4721 1.05386 39.1467 0.679259C38.4725 -0.0919724 37.6124 -0.202148 36.7988 0.326696C36.3804 0.591119 36.0317 0.613154 34.4509 0.392802C33.1724 0.238556 32.1263 0.21652 31.1732 0.370767C30.1271 0.525013 29.6622 0.502978 29.2438 0.304661C28.4766 -0.114008 27.8025 -0.0699372 27.1051 0.458907ZM38.5887 1.84712C38.5887 2.22172 38.8212 2.46411 39.5651 2.7726C42.7033 4.11675 44.9815 7.24575 45.4696 10.8595C45.5626 11.6528 45.8183 12.2037 46.2135 12.6003L46.8179 13.2173H32.661H18.5273L18.9689 12.7545C19.2014 12.5122 19.5268 11.6969 19.6896 10.9697C20.387 7.68645 23.0835 4.271 25.966 2.94888C27.0819 2.44208 27.4073 2.17765 27.5235 1.69288C27.6165 1.25217 27.7793 1.09793 28.2209 1.09793C28.5231 1.09793 28.8951 1.23014 29.0346 1.40642C29.2438 1.64881 29.4762 1.67084 30.0574 1.49456C31.057 1.2081 34.3579 1.23014 35.1716 1.5166C36.1479 1.86916 36.822 1.80305 37.2637 1.31828C37.5892 0.943682 37.7519 0.921647 38.1238 1.09793C38.3795 1.23014 38.5887 1.56067 38.5887 1.84712Z" fill="#80684B"/>
<path d="M31.1963 2.55228C29.6388 2.94891 29.0576 3.23537 29.0576 3.632C29.0576 4.11677 29.5458 4.13881 30.7313 3.69811C32.0564 3.23537 33.9393 3.1913 35.2179 3.632C36.4034 4.05067 36.9613 4.05067 36.9613 3.632C36.9613 3.21333 35.985 2.75059 34.4507 2.4421C32.9397 2.13361 32.7305 2.15564 31.1963 2.55228Z" fill="#80684B"/>
<path d="M27.4072 6.21014C27.0352 7.53225 27.2445 10.5951 27.7559 11.3443C27.9651 11.6528 28.2905 11.8732 28.43 11.8291C28.7322 11.7189 28.7322 11.4325 28.337 9.64763C28.1511 8.78826 28.1278 8.01703 28.2905 7.09155C28.523 5.63723 28.4765 5.28466 28.0116 5.28466C27.8256 5.28466 27.5699 5.70333 27.4072 6.21014Z" fill="#80684B"/>
<path d="M37.6125 5.50495C37.566 5.6592 37.5893 6.36433 37.6822 7.11352C37.752 7.86272 37.7287 9.07465 37.6357 9.80182C37.3568 11.7409 37.3568 11.9392 37.845 11.8511C38.9375 11.6528 39.17 5.52699 38.0774 5.32867C37.8682 5.2846 37.659 5.37274 37.6125 5.50495Z" fill="#80684B"/>
<path d="M44.0515 14.9801C43.9818 15.1123 44.1445 15.8175 44.4234 16.5887C45.0511 18.2634 45.2603 21.0398 44.8651 22.7586C43.9353 27.0114 40.3321 30.4929 35.6829 31.6167C29.4994 33.1151 22.9207 29.3912 21.061 23.3755C20.4798 21.5026 20.5728 19.894 21.5259 15.5751C21.6421 15.0903 21.5957 14.9801 21.2237 14.9801C20.4333 14.9801 19.736 17.6684 19.7127 20.6873C19.6895 23.9044 20.968 26.7029 23.5948 29.1928C26.2449 31.7269 29.1507 32.8286 33.1258 32.8286C39.3093 32.8286 44.6094 28.6199 45.9344 22.6925C46.3761 20.6652 46.2366 18.7482 45.4695 16.5006C44.9349 14.9581 44.4234 14.4072 44.0515 14.9801Z" fill="#80684B"/>
<path d="M48.8403 35.6932L33.4048 38.2933L16.993 35.7813C7.97345 34.3931 0.464924 33.3134 0.302201 33.3575C0.139477 33.4236 0 33.71 0 34.0185C0 34.5694 4.02159 44.6615 4.39353 45.0141C4.50977 45.1242 4.76547 45.1242 4.95144 45.0361C5.25364 44.8598 4.95144 44.0005 3.20798 39.7036C2.04567 36.8831 1.16231 34.5253 1.23205 34.4592C1.30179 34.3711 29.8481 38.6679 32.3587 39.1307L33.0096 39.2629L33.0561 44.7937C33.1259 50.1703 33.1491 50.3466 33.5908 50.3466C34.0325 50.3466 34.0557 50.1703 34.1254 44.7937C34.1719 39.2409 34.1719 39.2188 34.7066 39.1086C35.5435 38.9103 63.8109 34.1948 63.8573 34.2389C63.8806 34.2609 63.1832 36.5526 62.2766 39.329C61.3933 42.1054 60.7191 44.5073 60.7656 44.6615C61.0678 45.4107 61.5792 44.8598 62.1371 43.119C65.2521 33.5117 65.3916 33.0269 64.578 33.071C64.4153 33.071 57.3252 34.2609 48.8403 35.6932Z" fill="#80684B"/>
<path d="M31.359 33.5118C28.8251 33.7762 24.2224 35.0763 23.8737 35.6271C23.804 35.7373 23.8272 35.9577 23.9434 36.1339C24.1062 36.3763 24.3619 36.3323 25.3847 35.9577C29.3831 34.4372 33.1954 34.0406 36.6591 34.7678C37.8214 35.0322 39.3092 35.4729 39.9601 35.7814C41.3549 36.4645 41.9128 36.5085 41.7965 35.9577C41.6803 35.3847 39.6346 34.4372 37.4262 33.9525C34.9621 33.4236 33.3117 33.3134 31.359 33.5118Z" fill="#80684B"/>
<path d="M5.83481 45.4107C2.44086 47.0193 1.20881 50.6991 2.95228 53.9824C3.69615 55.3265 5.30014 56.6266 6.74141 57.0453C7.85723 57.3538 9.80991 57.3538 10.9257 57.0453C12.367 56.6266 13.971 55.3265 14.7149 53.9824C16.4583 50.7212 15.2728 47.1074 11.8788 45.4548C9.83315 44.4411 7.90372 44.4411 5.83481 45.4107ZM11.2977 46.226C13.3433 47.2176 14.3894 48.8482 14.4127 51.0297C14.4359 55.8113 8.41514 58.1691 4.83522 54.7756C3.78914 53.8061 3.25448 52.5501 3.25448 51.0517C3.25448 48.5617 4.78873 46.6226 7.43879 45.8073C8.32215 45.5209 10.2981 45.7412 11.2977 46.226Z" fill="#80684B"/>
<path d="M55.419 45.3666C54.0475 45.9616 52.8387 47.0633 52.118 48.3414C51.2812 49.8618 51.2347 52.3077 52.025 53.6959C53.2803 55.9655 55.0935 57.1114 57.7204 57.2436C59.1151 57.3317 59.4638 57.2656 60.7889 56.6486C63.2065 55.5028 64.4618 53.6298 64.4618 51.1178C64.485 48.6719 63.1367 46.6006 60.8586 45.5209C59.3476 44.7937 56.8835 44.7276 55.419 45.3666ZM60.8586 46.6446C62.3464 47.504 63.2995 49.0024 63.4157 50.6771C63.5319 52.2857 63.16 53.3654 62.1139 54.4671C59.4638 57.2436 55.1633 56.869 53.2338 53.6959C52.3272 52.1975 52.2575 50.1482 53.0711 48.6939C54.5589 46.0277 58.1853 45.0581 60.8586 46.6446Z" fill="#80684B"/>
<path d="M9.76343 58.2132C9.76343 58.742 11.6929 63.2813 11.9486 63.3694C12.088 63.3914 16.8768 63.7881 22.6186 64.2067L33.0096 65L44.3305 63.8762C50.5605 63.2813 55.7212 62.7304 55.7909 62.6643C56.0001 62.4439 57.3484 58.1911 57.2322 58.0589C57.1625 57.9928 56.93 57.9487 56.6975 57.9487C56.3256 57.9487 56.1629 58.3013 55.1865 61.5184C55.1168 61.7388 54.9308 61.9151 54.7681 61.9151C54.3729 61.9151 36.3571 63.6338 35.1715 63.7881L34.172 63.9203V62.1795C34.172 60.7692 34.1022 60.3946 33.8 60.2845C33.1491 60.0421 33.0096 60.3726 33.0096 62.1575V63.8982L31.9171 63.8762C31.2894 63.8762 26.6867 63.5457 21.6422 63.1711L12.4832 62.466L11.5766 60.1963C10.856 58.4335 10.5538 57.9487 10.2051 57.9487C9.97264 57.9487 9.76343 58.0809 9.76343 58.2132Z" fill="#80684B"/>
</svg>
