<svg width="65" height="66" viewBox="0 0 65 66" fill="none" xmlns="http://www.w3.org/2000/svg">
<path d="M16.3918 0.378357C9.11654 2.01334 4.02911 8.79062 4.58266 16.0689C5.16258 23.9538 11.6471 30.0454 19.4496 30.0454C23.6408 30.0454 27.1993 28.595 30.1253 25.6942C35.819 20.0509 36.0298 10.8739 30.6261 4.96686C27.0148 1.064 21.3475 -0.755583 16.3918 0.378357ZM23.219 1.72326C31.8123 4.28122 35.8453 13.3791 31.865 21.3167C29.4135 26.1953 24.0625 29.307 18.6851 28.8851C11.2517 28.3577 5.79521 22.477 5.79521 15.0141C5.79521 11.1376 6.95504 8.31594 9.67009 5.49428C12.4642 2.5935 15.3902 1.3277 19.3968 1.3277C20.873 1.30133 22.3228 1.45956 23.219 1.72326Z" fill="#80684B"/>
<path d="M15.7763 31.1943C7.65028 32.5219 2.50576 36.3772 0.547334 42.5814C-0.00804031 44.3941 -0.0372705 45.0835 0.0211899 54.0706L0.108881 63.6194L12.3271 63.696C23.8731 63.747 24.5454 63.7215 24.4577 63.313C24.37 62.879 23.5808 62.8534 12.7363 62.7768L1.13194 62.7258V53.9429C1.13194 44.1643 1.33655 42.8367 3.23652 39.6708C4.43496 37.6538 7.21183 35.2538 9.46256 34.207C12.9994 32.573 18.6408 31.6539 22.2654 32.0879C29.193 32.9304 33.1975 34.9474 35.4482 38.7261C36.0328 39.6963 36.7344 40.5133 36.9682 40.5133C38.2836 40.5133 36.2667 37.0155 33.8406 35.024C31.8237 33.39 29.3391 32.2921 26.1238 31.5773C23.0546 30.8879 18.5824 30.7092 15.7763 31.1943Z" fill="#80684B"/>
<path d="M17.9394 32.7773C17.384 33.1347 16.624 34.3602 16.624 34.8708C16.624 35.1517 17.1794 36.0198 17.8225 36.8112C18.9332 38.0878 19.1378 38.2155 20.1609 38.2155C21.1547 38.2155 21.3886 38.0878 22.6455 36.6325L24.0193 35.0496L23.3177 33.8751L22.6162 32.7262L20.424 32.6496C19.2255 32.6241 18.0855 32.6751 17.9394 32.7773ZM22.0024 34.0283C22.2655 34.2326 22.4701 34.5389 22.4701 34.6666C22.4701 35.1517 20.687 37.1942 20.2778 37.1942C19.7224 37.1942 18.0855 35.3815 18.0855 34.7687C18.0855 34.4623 18.2317 34.1049 18.4363 33.9262C18.9624 33.4666 21.447 33.5432 22.0024 34.0283Z" fill="#80684B"/>
<path d="M19.6053 38.8027C18.9914 39.441 13.0869 52.36 13.2039 52.7685C13.4085 53.4323 19.6637 61.9343 20.0437 62.062C20.453 62.2152 24.5744 57.9003 24.4283 57.4918C24.1652 56.8025 23.3175 57.211 22.0022 58.7429C21.2129 59.662 20.453 60.3769 20.2776 60.3514C19.8684 60.2237 14.6069 52.9727 14.5777 52.4876C14.5777 52.2578 15.8054 49.4749 17.3253 46.2579L20.073 40.4112L20.5114 41.3048C20.716 41.7899 21.476 43.475 22.1775 45.0579C22.9083 46.743 23.6683 48.0451 23.9898 48.1983C24.9252 48.6324 24.6329 47.4324 22.6745 43.0665C20.8622 39.0325 20.2191 38.1389 19.6053 38.8027Z" fill="#80684B"/>
<path d="M42.1421 38.8283C40.5052 39.2878 39.1898 40.0282 37.9329 41.2027C36.5591 42.4793 35.916 43.3218 35.916 43.8835C35.916 44.726 36.7052 44.3686 37.9037 42.9644C40.0667 40.4878 43.2528 39.2368 46.5266 39.5942C49.0404 39.9006 50.7942 40.9984 53.0449 43.7303C53.5711 44.3431 53.7465 44.4197 54.068 44.1388C54.3895 43.8835 54.3603 43.6537 53.8926 42.8878C53.0742 41.5857 51.1157 39.9006 49.625 39.2112C48.0173 38.4963 44.042 38.2921 42.1421 38.8283Z" fill="#80684B"/>
<path d="M42.4927 41.1516C41.3527 41.5091 39.1312 43.2707 39.1312 43.8324C39.1312 44.5218 40.0958 44.3941 40.7973 43.6026C41.8496 42.4537 43.1065 41.9686 45.1234 41.9431C47.1695 41.9176 48.3095 42.4027 49.3033 43.7303L49.9464 44.5984H38.1666C29.3975 44.5984 26.2991 44.675 26.0361 44.9048C25.773 45.1345 25.6853 47.8154 25.6853 55.3727C25.6853 65.1768 25.7145 65.5343 26.2407 65.7896C26.6499 65.9683 33.0806 66.0194 45.9126 65.9938L65 65.9172V55.3216V44.726L57.7801 44.6494C51.0864 44.5984 50.5895 44.5473 50.7356 44.1388C50.9402 43.4495 49.6541 42.0197 48.2218 41.3559C46.7018 40.6665 44.3342 40.5899 42.4927 41.1516ZM63.6846 55.3216V64.7683H45.4157H27.1468V55.3216V45.875H45.4157H63.6846V55.3216Z" fill="#80684B"/>
<path d="M27.8775 46.9728C27.7898 47.126 27.7605 51.0834 27.7898 55.7046C27.8775 63.4917 27.9067 64.13 28.4036 64.2066C28.8713 64.2832 28.9005 63.747 28.9005 55.4748C28.9005 47.7132 28.8421 46.6409 28.4621 46.6409C28.199 46.6409 27.9359 46.7941 27.8775 46.9728Z" fill="#80684B"/>
<path d="M61.7847 46.9728C61.697 47.126 61.6678 51.0834 61.697 55.7046C61.7847 63.4917 61.8139 64.13 62.3108 64.2066C62.7785 64.2832 62.8077 63.747 62.8077 55.4748C62.8077 47.7132 62.7493 46.6409 62.3693 46.6409C62.1062 46.6409 61.8431 46.7941 61.7847 46.9728Z" fill="#80684B"/>
</svg>
