<svg width="60" height="55" viewBox="0 0 60 55" fill="none" xmlns="http://www.w3.org/2000/svg">
<path d="M9.47779 1.11434C8.60651 3.04197 0 24.6676 0 24.9387C0 25.3904 0.913778 26.3844 2.93259 28.1614C4.46263 29.4867 4.97265 29.7878 5.18516 29.5168C5.73767 28.8843 15.3005 5.84306 15.3005 5.18044C15.3005 4.69853 14.9817 4.24674 14.1954 3.554C13.5792 3.01185 12.4529 1.9878 11.7091 1.29505C10.9653 0.572193 10.2853 -7.22355e-05 10.1791 -7.22355e-05C10.0728 -7.22355e-05 9.75404 0.511955 9.47779 1.11434ZM12.3891 3.64435C13.3454 4.48769 14.1742 5.24067 14.2167 5.30091C14.2804 5.39127 5.84393 25.6615 4.9939 27.4687C4.78139 27.9506 4.59014 27.8602 3.06009 26.535C2.14631 25.7519 1.38129 24.9085 1.38129 24.6676C1.38129 24.0953 10.2003 2.10827 10.4341 2.10827C10.5403 2.10827 11.4116 2.80102 12.3891 3.64435Z" fill="#80684B"/>
<path d="M47.5558 2.26185C46.4295 3.31602 45.452 4.43044 45.3882 4.76175C45.282 5.21354 46.4932 8.52665 49.8296 16.9299C52.3584 23.255 54.5472 28.6463 54.696 28.8571C54.9297 29.2186 55.376 28.9776 57.3948 27.5018C58.7124 26.538 59.8811 25.544 59.9874 25.2729C60.1362 24.9115 58.9886 21.8695 55.1848 12.6229C52.4434 5.9364 50.0634 0.424578 49.9146 0.394459C49.7446 0.36434 48.7033 1.20768 47.5558 2.26185ZM54.3772 13.4662C56.8423 19.4599 58.8611 24.4597 58.8611 24.6103C58.8611 24.8513 55.2485 27.5319 55.1423 27.3512C54.8022 26.7488 46.5357 5.51473 46.5357 5.24366C46.5357 4.79187 49.5746 2.08114 49.7658 2.35221C49.8296 2.47269 51.9122 7.47248 54.3772 13.4662Z" fill="#80684B"/>
<path d="M29.3256 6.97411C27.6255 7.21506 24.2042 8.29936 22.9079 9.02222C22.5679 9.20293 21.9091 10.227 21.2503 11.6125C20.6553 12.8775 19.359 15.1063 18.3602 16.5821C17.3827 18.058 16.5752 19.4134 16.5752 19.5941C16.5752 20.1663 17.3615 22.1241 17.8502 22.7566C18.5728 23.6903 20.4003 23.5698 21.9304 22.5156C23.3967 21.4916 25.2455 19.1724 26.0742 17.3351C27.073 15.0461 28.3056 14.8653 31.4294 16.5821C34.4045 18.2387 38.7184 22.4253 44.796 29.5937C46.5811 31.7321 48.1324 33.4489 48.2599 33.4489C48.3662 33.4489 49.2162 32.455 50.1725 31.2502C51.1287 30.0756 52.1275 28.8407 52.4038 28.5395C53.02 27.8769 53.0413 27.0335 52.5313 25.9793C52.3188 25.5276 50.725 21.4916 48.9824 17.0339C47.2399 12.5462 45.7736 8.81138 45.6886 8.66079C45.6248 8.54031 44.2648 8.38971 42.6922 8.29936C39.8659 8.14876 38.9946 8.02828 35.4033 7.12471C33.3845 6.61268 32.1732 6.58256 29.3256 6.97411ZM35.8708 8.75114C38.0808 9.35353 42.9685 10.0463 44.201 9.89567L44.9448 9.80532L48.2812 18.2387C50.1087 22.8771 51.5963 26.8829 51.575 27.1841C51.5325 27.6359 48.5574 31.6418 48.2599 31.6418C48.1749 31.6418 47.2186 30.5575 46.1136 29.2021C41.1834 23.2385 35.9133 17.9074 33.1507 16.1002C32.2794 15.4979 31.4081 14.9256 31.2169 14.775C30.5581 14.2931 28.4118 13.8112 27.6893 14.022C26.4355 14.3533 25.9467 14.8051 25.2667 16.3111C23.9067 19.3531 21.1653 22.0036 19.4228 22.0036C18.8278 22.0036 17.8502 20.7687 17.8502 20.0157C17.8502 19.7447 18.5515 18.4797 19.4228 17.1845C20.2728 15.9195 21.4628 13.8413 22.0579 12.6064L23.1416 10.3173L24.7992 9.71496C28.9643 8.14876 32.6619 7.81745 35.8708 8.75114Z" fill="#80684B"/>
<path d="M15.1058 9.16685C14.6383 9.98007 7.00928 27.8107 7.00928 28.1119C7.00928 28.4432 9.04934 31.6659 9.4956 32.0274C9.68686 32.1779 10.0906 32.0876 10.5369 31.7864C11.5357 31.1238 12.1519 31.3647 13.682 33.0514L14.957 34.4369L15.977 33.6237C18.0171 31.9972 19.2709 32.6297 20.3759 35.8224C20.8647 37.238 21.056 37.5091 22.0122 37.991C23.5423 38.8042 24.0523 39.7078 24.1798 41.7257C24.2648 43.3823 24.286 43.4124 25.2636 44.1353C25.7948 44.5268 26.5174 45.2497 26.8786 45.7918C27.5586 46.8159 27.6649 48.0809 27.3036 50.8218L27.1549 52.0566L28.5999 52.7193C30.215 53.4421 32.8926 53.8036 34.0826 53.5024C35.0601 53.2313 36.3777 51.635 36.2927 50.8218C36.2502 50.4302 35.4851 49.6772 33.7426 48.3821C30.9375 46.3039 30.215 45.6412 30.4062 45.3401C30.4912 45.2497 31.49 45.822 32.6376 46.6352C33.8063 47.4484 35.7189 48.5628 36.8877 49.105C38.9915 50.0387 39.0552 50.0688 39.799 49.5567C40.8616 48.864 41.1591 47.6592 40.7128 46.0027C40.394 44.7979 40.2453 44.6172 38.5452 43.5329C36.5902 42.298 33.1476 39.2861 33.1476 38.8343C33.1476 38.4427 33.1901 38.4729 34.7414 39.7981C36.9089 41.6655 41.0316 44.4967 41.9028 44.7377C44.1767 45.3401 45.3879 43.4124 44.5379 40.521C44.2829 39.6776 43.9004 39.256 42.5404 38.2922C40.4365 36.7862 35.6976 32.3285 35.6976 31.8165C35.6976 31.3948 36.1652 31.696 37.3339 32.8707C38.949 34.467 42.7104 37.6596 44.6442 39.0451C45.898 39.9186 46.3442 40.0993 47.0242 39.9788C48.2355 39.7379 48.873 38.7741 48.873 37.1777C48.873 35.6417 48.5118 35.0694 45.1967 31.3948C41.2016 26.9974 36.3777 22.5398 31.0438 18.3231C28.2174 16.1244 27.5799 15.8232 27.4524 16.6364C27.4099 16.9677 27.6862 17.3894 28.3024 17.8713C28.8124 18.2629 30.47 19.5881 31.9788 20.7929C36.8877 24.7084 43.2416 30.8828 47.2367 35.6417C48.1718 36.7561 47.9168 38.5632 46.8117 38.5632C45.9617 38.5632 41.9666 35.4609 38.1415 31.8165C37.1002 30.8226 36.0589 30.0395 35.8251 30.0696C34.8689 30.16 34.3164 31.8466 34.9114 32.9008C35.3789 33.7743 39.6503 37.8404 41.6266 39.2861C43.1354 40.4005 43.5816 40.8824 43.6879 41.4848C43.9004 42.5691 43.5391 43.2016 42.6679 43.3221C42.0941 43.3823 41.2441 42.9305 38.9702 41.3041C37.3552 40.1595 35.4001 38.6536 34.6564 37.9608C33.4876 36.9067 33.2113 36.7561 32.8076 37.0271C32.2975 37.3585 32 38.4126 32.1275 39.3764C32.2338 40.1294 34.7626 42.5691 37.2914 44.316C40.0115 46.2135 40.5003 47.0568 39.459 48.0508C39.0127 48.4725 38.8002 48.4122 36.9727 47.599C35.8889 47.087 34.0613 46.0027 32.9351 45.1895C30.64 43.5028 30.13 43.3823 29.6625 44.3461C28.8337 46.0328 29.365 46.8761 32.9138 49.5266C34.8476 50.9422 35.0389 51.1531 34.7201 51.5446C33.8276 52.5988 28.0474 51.8157 28.3662 50.7013C28.6424 49.617 28.7062 47.9303 28.4937 46.7858C28.2387 45.4906 26.7936 43.3221 25.8373 42.7799C25.4548 42.5691 25.3273 42.2378 25.2423 41.1535C25.1573 40.3101 24.9023 39.3764 24.5623 38.7138C24.0098 37.6898 22.6285 36.4549 22.0335 36.4549C21.8847 36.4549 21.5235 35.7621 21.2472 34.9188C20.9709 34.0755 20.3759 32.9309 19.9297 32.3587C19.2284 31.4551 18.9734 31.3346 17.9959 31.3346C17.3583 31.3346 16.5083 31.6057 15.977 31.937L15.042 32.5394L13.8945 31.3647C12.5557 30.0094 11.5357 29.6479 10.4944 30.1298C9.77186 30.4913 9.72936 30.4612 9.02809 29.3166C8.62433 28.6841 8.30557 28.0516 8.28432 27.9311C8.28432 27.7203 15.3608 11.0644 15.7008 10.4921C15.7858 10.3716 16.7633 10.7029 17.9109 11.215C19.5259 11.9679 20.0147 12.1185 20.2272 11.8173C20.6522 11.215 20.0784 10.7331 17.8471 9.67888C15.5308 8.62471 15.4458 8.59459 15.1058 9.16685Z" fill="#80684B"/>
<path d="M9.56122 33.3247C8.07368 35.2222 7.49991 37.7522 8.15868 39.4088C8.51994 40.3425 9.53997 41.2762 10.22 41.2762C11.6225 41.2762 13.4926 38.0534 13.4926 35.6439C13.4926 33.9572 12.5788 32.5717 11.325 32.3308C10.56 32.1802 10.3687 32.3007 9.56122 33.3247ZM12.0901 34.5295C12.6426 35.5535 12.6426 36.0053 12.0476 37.4812C11.3675 39.198 10.56 39.9509 9.83748 39.5895C8.6262 38.9871 8.6687 36.9089 9.90124 34.9511C10.815 33.5355 11.4738 33.4151 12.0901 34.5295Z" fill="#80684B"/>
<path d="M16.1521 34.2872C14.4521 35.5823 12.1145 40.9134 12.1145 43.5037C12.1145 45.2506 12.3695 45.9433 13.2195 46.5758C14.6008 47.5999 15.9821 46.6059 17.5334 43.5639C18.8297 40.9736 19.5522 38.6846 19.5522 37.0883C19.5522 36.004 19.4247 35.6124 18.8297 34.7691C18.0009 33.5944 17.2784 33.4438 16.1521 34.2872ZM18.1072 35.763C18.7022 36.516 18.5747 37.9617 17.7034 40.4014C16.7471 42.9916 15.1321 45.4915 14.4096 45.4915C12.7733 45.4915 12.7308 42.9615 14.3246 39.3472C15.3871 36.9377 16.6196 35.251 17.2997 35.251C17.5334 35.251 17.8947 35.4618 18.1072 35.763Z" fill="#80684B"/>
<path d="M19.4466 41.3525C17.2578 44.515 16.0678 48.7016 16.8116 50.6593C17.1091 51.4725 18.2353 52.0749 19.0216 51.8641C20.6367 51.4424 23.633 45.2981 23.6755 42.2862C23.6968 40.479 22.953 39.455 21.6142 39.455C20.8279 39.455 20.6154 39.6357 19.4466 41.3525ZM22.528 41.5633C22.9317 42.6476 22.1455 45.4186 20.6367 48.1293C19.0854 50.8701 17.6403 51.2617 17.6403 48.9124C17.6403 46.5029 20.4667 40.9609 21.6992 40.9609C22.0817 40.9609 22.3792 41.1718 22.528 41.5633Z" fill="#80684B"/>
<path d="M23.6717 46.0598C22.9067 46.7224 21.8017 49.132 21.4617 50.8789C21.1429 52.5656 21.5679 53.9511 22.6092 54.6438C23.2467 55.0655 23.523 55.0956 24.0967 54.8245C25.5205 54.1619 26.9868 50.9391 26.9868 48.4694C26.9868 47.2345 26.9018 46.9333 26.3281 46.2707C25.5418 45.337 24.6068 45.2466 23.6717 46.0598ZM25.818 47.7465C26.4981 49.2525 24.458 53.9511 23.3317 53.4692C22.6304 53.168 22.2692 52.3849 22.4179 51.5114C22.843 49.1019 24.118 46.9032 24.9893 47.0538C25.308 47.114 25.6693 47.4152 25.818 47.7465Z" fill="#80684B"/>
</svg>
